<svg width="24" height="24" viewBox="0 0 24 24" fill="none" xmlns="http://www.w3.org/2000/svg">
<path d="M10.5 5.78655C10.5 6.63903 10.1614 7.4566 9.55856 8.0594C8.95576 8.66219 8.13819 9.00084 7.28571 9.00084C6.43323 9.00084 5.61566 8.66219 5.01287 8.0594C4.41007 7.4566 4.07143 6.63903 4.07143 5.78655C4.07143 4.93407 4.41007 4.1165 5.01287 3.51371C5.61566 2.91091 6.43323 2.57227 7.28571 2.57227C8.13819 2.57227 8.95576 2.91091 9.55856 3.51371C10.1614 4.1165 10.5 4.93407 10.5 5.78655ZM4.5 10.2866C3.98851 10.2866 3.49797 10.4897 3.13629 10.8514C2.77461 11.2131 2.57143 11.7036 2.57143 12.2151V16.7151C2.57143 17.9654 3.06811 19.1645 3.95221 20.0486C4.83631 20.9327 6.03541 21.4294 7.28571 21.4294C8.53602 21.4294 9.73512 20.9327 10.6192 20.0486C11.5033 19.1645 12 17.9654 12 16.7151V12.2151C12 11.7036 11.7968 11.2131 11.4351 10.8514C11.0735 10.4897 10.5829 10.2866 10.0714 10.2866H4.5ZM12.0009 9.00084C11.4017 9.00204 10.8142 8.83482 10.3054 8.51827C10.9843 7.77057 11.3596 6.79644 11.358 5.78655C11.3596 4.77667 10.9843 3.80254 10.3054 3.05484C10.728 2.79279 11.2056 2.63237 11.7007 2.58617C12.1958 2.53997 12.6949 2.60927 13.1586 2.78861C13.6224 2.96794 14.0382 3.25243 14.3735 3.6197C14.7087 3.98696 14.9541 4.42699 15.0904 4.90517C15.2268 5.38335 15.2503 5.88664 15.1592 6.37546C15.0681 6.86428 14.8649 7.3253 14.5654 7.72226C14.266 8.11922 13.8785 8.4413 13.4335 8.66316C12.9885 8.88501 12.4981 9.0006 12.0009 9.00084ZM12.858 12.2151C12.858 11.4668 12.5631 10.7871 12.0823 10.2866H14.7866C15.2981 10.2866 15.7886 10.4897 16.1503 10.8514C16.512 11.2131 16.7151 11.7036 16.7151 12.2151V16.7151C16.7153 17.4562 16.5408 18.1869 16.2058 18.8478C15.8707 19.5088 15.3846 20.0815 14.7868 20.5195C14.1889 20.9574 13.4963 21.2482 12.765 21.3683C12.0338 21.4885 11.2845 21.4345 10.578 21.2108C11.2852 20.6939 11.8602 20.0173 12.2564 19.2361C12.6526 18.4548 12.8588 17.5911 12.858 16.7151V12.2151ZM15.0197 8.51741C15.5065 8.81959 16.0652 8.98618 16.6379 8.99991C17.2107 9.01365 17.7768 8.87404 18.2775 8.59554C18.7782 8.31704 19.1953 7.90977 19.4857 7.41589C19.7762 6.92202 19.9293 6.35949 19.9293 5.78655C19.9293 5.21361 19.7762 4.65109 19.4857 4.15721C19.1953 3.66334 18.7782 3.25607 18.2775 2.97756C17.7768 2.69906 17.2107 2.55945 16.6379 2.57319C16.0652 2.58693 15.5065 2.75351 15.0197 3.05569C15.6983 3.80317 16.0737 4.77696 16.0723 5.78655C16.0737 6.79614 15.6983 7.76993 15.0197 8.51741ZM15.2923 21.2108C15.9988 21.4347 16.7482 21.4888 17.4796 21.3687C18.211 21.2487 18.9037 20.9579 19.5016 20.5199C20.0996 20.082 20.5858 19.5092 20.9209 18.8481C21.256 18.1871 21.4305 17.4563 21.4303 16.7151V12.2151C21.4303 11.7036 21.2271 11.2131 20.8654 10.8514C20.5037 10.4897 20.0132 10.2866 19.5017 10.2866H16.7966C17.2766 10.7871 17.5723 11.4668 17.5723 12.2151V16.7151C17.573 17.5911 17.3669 18.4548 16.9707 19.2361C16.5745 20.0173 15.9994 20.6939 15.2923 21.2108Z" fill="#099797"/>
</svg>
