<svg width="24" height="24" viewBox="0 0 24 24" fill="none" xmlns="http://www.w3.org/2000/svg">
<path d="M7.28571 3.85798C6.77422 3.85798 6.28368 4.06117 5.92201 4.42285C5.56033 4.78452 5.35714 5.27506 5.35714 5.78655C5.35714 6.29804 5.56033 6.78858 5.92201 7.15026C6.28368 7.51194 6.77422 7.71512 7.28571 7.71512C7.7972 7.71512 8.28774 7.51194 8.64942 7.15026C9.0111 6.78858 9.21428 6.29804 9.21428 5.78655C9.21428 5.27506 9.0111 4.78452 8.64942 4.42285C8.28774 4.06117 7.7972 3.85798 7.28571 3.85798ZM4.07143 5.78655C4.07143 4.93407 4.41007 4.1165 5.01287 3.51371C5.61566 2.91091 6.43323 2.57227 7.28571 2.57227C8.13819 2.57227 8.95576 2.91091 9.55856 3.51371C10.1614 4.1165 10.5 4.93407 10.5 5.78655C10.5 6.63903 10.1614 7.4566 9.55856 8.0594C8.95576 8.66219 8.13819 9.00084 7.28571 9.00084C6.43323 9.00084 5.61566 8.66219 5.01287 8.0594C4.41007 7.4566 4.07143 6.63903 4.07143 5.78655ZM2.57143 12.2151C2.57143 11.7036 2.77461 11.2131 3.13629 10.8514C3.49797 10.4897 3.98851 10.2866 4.5 10.2866H10.0714C10.5829 10.2866 11.0735 10.4897 11.4351 10.8514C11.7968 11.2131 12 11.7036 12 12.2151V16.7151C12 17.9654 11.5033 19.1645 10.6192 20.0486C9.73512 20.9327 8.53602 21.4294 7.28571 21.4294C6.03541 21.4294 4.83631 20.9327 3.95221 20.0486C3.06811 19.1645 2.57143 17.9654 2.57143 16.7151V12.2151ZM4.5 11.5723C4.3295 11.5723 4.16599 11.64 4.04543 11.7606C3.92487 11.8811 3.85714 12.0446 3.85714 12.2151V16.7151C3.85714 17.6244 4.21836 18.4965 4.86135 19.1395C5.50433 19.7825 6.3764 20.1437 7.28571 20.1437C8.19503 20.1437 9.0671 19.7825 9.71008 19.1395C10.3531 18.4965 10.7143 17.6244 10.7143 16.7151V12.2151C10.7143 12.0446 10.6466 11.8811 10.526 11.7606C10.4054 11.64 10.2419 11.5723 10.0714 11.5723H4.5ZM12.0009 9.00084C11.4017 9.00204 10.8142 8.83482 10.3054 8.51827C10.5934 8.20112 10.8317 7.83684 11.0083 7.43998C11.3009 7.61552 11.6349 7.71027 11.9762 7.71454C12.3174 7.71882 12.6537 7.63247 12.9506 7.46431C13.2476 7.29615 13.4946 7.0522 13.6665 6.75737C13.8383 6.46254 13.9289 6.12739 13.9289 5.78612C13.9289 5.44486 13.8383 5.1097 13.6665 4.81487C13.4946 4.52004 13.2476 4.2761 12.9506 4.10794C12.6537 3.93978 12.3174 3.85343 11.9762 3.8577C11.6349 3.86198 11.3009 3.95672 11.0083 4.13227C10.8319 3.73849 10.5948 3.3749 10.3054 3.05484C10.728 2.79279 11.2056 2.63237 11.7007 2.58617C12.1958 2.53997 12.6949 2.60927 13.1586 2.78861C13.6224 2.96794 14.0382 3.25243 14.3735 3.6197C14.7087 3.98696 14.9541 4.42699 15.0904 4.90517C15.2268 5.38335 15.2503 5.88664 15.1592 6.37546C15.0681 6.86428 14.8649 7.3253 14.5654 7.72226C14.266 8.11922 13.8785 8.4413 13.4335 8.66316C12.9885 8.88501 12.4981 9.0006 12.0009 9.00084ZM12.0009 21.4294C11.5182 21.4298 11.0383 21.3561 10.578 21.2108C10.9971 20.9041 11.3713 20.5403 11.6897 20.13C11.7926 20.1391 11.8963 20.1437 12.0009 20.1437C12.9102 20.1437 13.7822 19.7825 14.4252 19.1395C15.0682 18.4965 15.4294 17.6244 15.4294 16.7151V12.2151C15.4294 12.0446 15.3617 11.8811 15.2411 11.7606C15.1206 11.64 14.9571 11.5723 14.7866 11.5723H12.7834C12.669 11.0887 12.4268 10.6447 12.0823 10.2866H14.7866C15.2981 10.2866 15.7886 10.4897 16.1503 10.8514C16.512 11.2131 16.7151 11.7036 16.7151 12.2151V16.7151C16.7151 17.3342 16.5932 17.9472 16.3563 18.5192C16.1194 19.0912 15.7721 19.6109 15.3344 20.0486C14.8966 20.4864 14.3769 20.8336 13.8049 21.0706C13.233 21.3075 12.6199 21.4294 12.0009 21.4294ZM15.0197 8.51741C15.5065 8.81959 16.0652 8.98618 16.6379 8.99991C17.2107 9.01365 17.7768 8.87404 18.2775 8.59554C18.7782 8.31704 19.1953 7.90977 19.4857 7.41589C19.7762 6.92202 19.9293 6.35949 19.9293 5.78655C19.9293 5.21361 19.7762 4.65109 19.4857 4.15721C19.1953 3.66334 18.7782 3.25607 18.2775 2.97756C17.7768 2.69906 17.2107 2.55945 16.6379 2.57319C16.0652 2.58693 15.5065 2.75351 15.0197 3.05569C15.3077 3.37284 15.546 3.73627 15.7226 4.13312C16.0152 3.95742 16.3492 3.86252 16.6905 3.85814C17.0319 3.85375 17.3682 3.94003 17.6653 4.10816C17.9623 4.27629 18.2094 4.52025 18.3814 4.81512C18.5533 5.10999 18.6439 5.44522 18.6439 5.78655C18.6439 6.12789 18.5533 6.46311 18.3814 6.75798C18.2094 7.05285 17.9623 7.29681 17.6653 7.46494C17.3682 7.63307 17.0319 7.71935 16.6905 7.71496C16.3492 7.71058 16.0152 7.61569 15.7226 7.43998C15.5462 7.83376 15.309 8.19734 15.0197 8.51741ZM16.4031 20.13C16.506 20.1386 16.6103 20.1431 16.716 20.1437C17.6253 20.1437 18.4974 19.7825 19.1404 19.1395C19.7833 18.4965 20.1446 17.6244 20.1446 16.7151V12.2151C20.1446 12.0446 20.0768 11.8811 19.9563 11.7606C19.8357 11.64 19.6722 11.5723 19.5017 11.5723H17.4977C17.3832 11.0887 17.1411 10.6447 16.7966 10.2866H19.5017C20.0132 10.2866 20.5037 10.4897 20.8654 10.8514C21.2271 11.2131 21.4303 11.7036 21.4303 12.2151V16.7151C21.4305 17.4563 21.256 18.1871 20.9209 18.8481C20.5858 19.5092 20.0996 20.082 19.5016 20.5199C18.9037 20.9579 18.211 21.2487 17.4796 21.3687C16.7482 21.4888 15.9988 21.4347 15.2923 21.2108C15.7111 20.9041 16.085 20.5403 16.4031 20.13Z" fill="#878787"/>
</svg>
