<svg width="23" height="25" viewBox="0 0 23 25" fill="none" xmlns="http://www.w3.org/2000/svg">
<path d="M19.9583 2.625H14.9075C14.4 1.22333 13.0708 0.208333 11.5 0.208333C9.92917 0.208333 8.6 1.22333 8.0925 2.625H3.04167C1.7125 2.625 0.625 3.7125 0.625 5.04167V21.9583C0.625 23.2875 1.7125 24.375 3.04167 24.375H19.9583C21.2875 24.375 22.375 23.2875 22.375 21.9583V5.04167C22.375 3.7125 21.2875 2.625 19.9583 2.625ZM11.5 2.625C12.1646 2.625 12.7083 3.16875 12.7083 3.83333C12.7083 4.49792 12.1646 5.04167 11.5 5.04167C10.8354 5.04167 10.2917 4.49792 10.2917 3.83333C10.2917 3.16875 10.8354 2.625 11.5 2.625ZM9.08333 19.5417L4.25 14.7083L5.95375 13.0046L9.08333 16.1221L17.0463 8.15917L18.75 9.875L9.08333 19.5417Z" fill="#099797"/>
</svg>
