<svg width="26" height="23" viewBox="0 0 26 23" fill="none" xmlns="http://www.w3.org/2000/svg">
<path d="M24.4647 15.2475L17.0747 2.92998C16.1047 1.31373 14.621 0.388733 13.001 0.388733C11.381 0.388733 9.89723 1.31373 8.92723 2.92748L1.53723 15.2475C0.55473 16.8837 0.447231 18.6287 1.24348 20.035C2.03848 21.4425 3.59098 22.25 5.50098 22.25H20.501C22.411 22.25 23.9635 21.4425 24.7585 20.0362C25.5535 18.63 25.4472 16.885 24.4647 15.2475ZM13.001 17.9362C11.9335 17.9362 11.0635 17.0675 11.0635 16C11.0635 14.9312 11.9322 14.0612 13.001 14.0612C14.0697 14.0612 14.9385 14.9312 14.9385 16C14.9385 17.0675 14.0685 17.9362 13.001 17.9362ZM15.0422 8.65623C15.0285 8.69498 13.291 12.9912 13.291 12.9912C13.2435 13.1087 13.1285 13.1862 13.0022 13.1862C12.876 13.1862 12.761 13.1087 12.7135 12.9912L10.9747 8.69373C10.8704 8.43326 10.8157 8.15557 10.8135 7.87498C10.8135 6.66873 11.7947 5.68748 13.001 5.68748C13.3553 5.68839 13.704 5.77523 14.0174 5.94056C14.3307 6.10588 14.5992 6.34476 14.8 6.63668C15.0007 6.92861 15.1276 7.26487 15.1698 7.61662C15.212 7.96838 15.1682 8.32511 15.0422 8.65623Z" fill="#FFEB85"/>
</svg>
