<svg width="24" height="28" viewBox="0 0 24 28" fill="none" xmlns="http://www.w3.org/2000/svg">
<path fill-rule="evenodd" clip-rule="evenodd" d="M19.5 12.125C20.4946 12.125 21.4484 12.5201 22.1517 13.2233C22.8549 13.9266 23.25 14.8804 23.25 15.875V23.375C23.25 24.3696 22.8549 25.3234 22.1517 26.0267C21.4484 26.7299 20.4946 27.125 19.5 27.125H4.5C3.50544 27.125 2.55161 26.7299 1.84835 26.0267C1.14509 25.3234 0.75 24.3696 0.75 23.375V15.875C0.75 14.8804 1.14509 13.9266 1.84835 13.2233C2.55161 12.5201 3.50544 12.125 4.5 12.125V8.375C4.5 6.38588 5.29018 4.47822 6.6967 3.0717C8.10322 1.66518 10.0109 0.875 12 0.875C13.9891 0.875 15.8968 1.66518 17.3033 3.0717C18.7098 4.47822 19.5 6.38588 19.5 8.375V12.125ZM12 3.375C13.3261 3.375 14.5979 3.90178 15.5355 4.83947C16.4732 5.77715 17 7.04892 17 8.375V12.125H7V8.375C7 7.04892 7.52678 5.77715 8.46447 4.83947C9.40215 3.90178 10.6739 3.375 12 3.375ZM19.5 14.625H4.5C4.16848 14.625 3.85054 14.7567 3.61612 14.9911C3.3817 15.2255 3.25 15.5435 3.25 15.875V23.375C3.25 23.7065 3.3817 24.0245 3.61612 24.2589C3.85054 24.4933 4.16848 24.625 4.5 24.625H19.5C19.8315 24.625 20.1495 24.4933 20.3839 24.2589C20.6183 24.0245 20.75 23.7065 20.75 23.375V15.875C20.75 15.5435 20.6183 15.2255 20.3839 14.9911C20.1495 14.7567 19.8315 14.625 19.5 14.625Z" fill="#393939"/>
</svg>
