<svg width="24" height="26" viewBox="0 0 24 26" fill="none" xmlns="http://www.w3.org/2000/svg">
<path d="M23.2856 20.6459C22.5356 19.9772 21.879 19.2107 21.3334 18.367C20.7372 17.2025 20.3802 15.9305 20.2834 14.6259V10.7836C20.2886 8.73467 19.5453 6.75434 18.1933 5.21473C16.8413 3.67511 14.9737 2.6822 12.9412 2.42253V1.41919C12.9412 1.14381 12.8318 0.879706 12.6371 0.68498C12.4424 0.490255 12.1783 0.380859 11.9029 0.380859C11.6275 0.380859 11.3634 0.490255 11.1687 0.68498C10.9739 0.879706 10.8645 1.14381 10.8645 1.41919V2.43808C8.85029 2.71647 7.00518 3.71539 5.67095 5.24983C4.33671 6.78427 3.60377 8.75025 3.60787 10.7836V14.6259C3.51108 15.9305 3.15406 17.2025 2.55787 18.367C2.02189 19.2088 1.3758 19.9752 0.636759 20.6459C0.553795 20.7187 0.487302 20.8085 0.441706 20.909C0.396109 21.0096 0.372454 21.1188 0.372314 21.2292V22.287C0.372314 22.4933 0.454259 22.6911 0.60012 22.8369C0.745982 22.9828 0.943813 23.0648 1.15009 23.0648H22.7723C22.9786 23.0648 23.1764 22.9828 23.3223 22.8369C23.4681 22.6911 23.5501 22.4933 23.5501 22.287V21.2292C23.55 21.1188 23.5263 21.0096 23.4807 20.909C23.4351 20.8085 23.3686 20.7187 23.2856 20.6459ZM1.99009 21.5092C2.71358 20.81 3.35071 20.0266 3.88787 19.1759C4.63904 17.7696 5.07685 16.2174 5.1712 14.6259V10.7836C5.14036 9.87211 5.29326 8.9637 5.62079 8.11249C5.94833 7.26128 6.44381 6.48469 7.07773 5.82896C7.71165 5.17323 8.47104 4.65177 9.31068 4.29563C10.1503 3.93949 11.053 3.75595 11.9651 3.75595C12.8771 3.75595 13.7799 3.93949 14.6195 4.29563C15.4591 4.65177 16.2185 5.17323 16.8525 5.82896C17.4864 6.48469 17.9819 7.26128 18.3094 8.11249C18.6369 8.9637 18.7898 9.87211 18.759 10.7836V14.6259C18.8533 16.2174 19.2911 17.7696 20.0423 19.1759C20.5795 20.0266 21.2166 20.81 21.9401 21.5092H1.99009Z" fill="#242424"/>
<path d="M12 25.662C12.4899 25.6507 12.9601 25.4665 13.3273 25.142C13.6946 24.8175 13.9352 24.3735 14.0066 23.8887H9.91553C9.98901 24.3867 10.2409 24.8411 10.6243 25.1673C11.0077 25.4935 11.4966 25.6693 12 25.662Z" fill="#242424"/>
</svg>
