<svg width="27" height="27" viewBox="0 0 27 27" fill="none" xmlns="http://www.w3.org/2000/svg">
<path d="M23.4886 0.23441C23.4163 0.160076 23.3299 0.101037 23.2344 0.0607777C23.139 0.0205181 23.0365 -0.000147238 22.9329 7.8965e-07C22.8294 0.000148817 22.727 0.0211072 22.6316 0.0616396C22.5363 0.102172 22.45 0.161457 22.3779 0.235998C22.2327 0.388913 22.1527 0.592729 22.1551 0.803978C22.1575 1.01523 22.242 1.21719 22.3906 1.36679C23.529 2.51137 24.3867 3.90592 24.8961 5.44033C25.4055 6.97474 25.5525 8.607 25.3256 10.2082C25.2963 10.4171 25.3493 10.6293 25.4734 10.7995C25.5975 10.9698 25.7829 11.0847 25.9902 11.1199C26.0925 11.1362 26.197 11.1319 26.2976 11.107C26.3982 11.0822 26.4928 11.0373 26.5759 10.9751C26.6589 10.9129 26.7287 10.8347 26.7811 10.745C26.8335 10.6553 26.8675 10.5559 26.881 10.4528C27.1423 8.60222 26.972 6.71598 26.3833 4.94274C25.7946 3.16951 24.8037 1.55772 23.4886 0.23441ZM5.73276 3.23609C5.75557 2.66912 5.96678 2.12613 6.33272 1.69364C6.69867 1.26115 7.19831 0.964048 7.75201 0.849676C8.30571 0.735304 8.88161 0.810243 9.38796 1.06255C9.8943 1.31486 10.3019 1.73002 10.5459 2.24188C10.86 1.96016 11.2391 1.76155 11.6489 1.66403C12.0588 1.56651 12.4864 1.57317 12.893 1.68341C13.2996 1.79365 13.6724 2.00398 13.9776 2.29534C14.2828 2.58671 14.5107 2.94991 14.6408 3.35202L14.78 3.78084C15.0978 3.51496 15.4756 3.33129 15.8804 3.2459C16.2853 3.16052 16.7048 3.17602 17.1023 3.29104C17.4998 3.40607 17.8631 3.61712 18.1605 3.90572C18.458 4.19433 18.6804 4.5517 18.8084 4.94657L20.495 10.0764L21.4191 12.7827C22.0973 14.7722 22.3032 16.8932 22.0203 18.9766L21.5931 22.1339C21.5003 22.8196 21.2306 23.4691 20.8107 24.0179C20.3908 24.5667 19.8352 24.9958 19.1992 25.2627L15.7847 26.6936C14.2468 27.3384 12.5126 26.9287 11.3481 25.809C6.42736 21.073 2.04614 19.5039 0.842058 19.1402C0.275616 18.9687 -0.208548 18.3144 0.0920769 17.5965C0.329413 17.0311 0.899018 16.0401 2.11892 15.4985C3.05719 15.0808 4.27235 14.9744 5.83718 15.3905L2.78821 6.52046C2.58062 5.87701 2.63496 5.17727 2.93938 4.57388C3.2438 3.9705 3.77358 3.51243 4.41317 3.29961C4.8562 3.15509 5.3103 3.1408 5.73276 3.23609ZM9.13457 9.02503L10.0127 11.6916C10.0453 11.7907 10.0582 11.8952 10.0506 11.9993C10.0429 12.1033 10.015 12.2049 9.96824 12.2981C9.92152 12.3913 9.85696 12.4743 9.77826 12.5425C9.69956 12.6107 9.60826 12.6626 9.50956 12.6953C9.41086 12.7281 9.30671 12.741 9.20304 12.7333C9.09937 12.7257 8.99822 12.6976 8.90537 12.6507C8.71784 12.556 8.57547 12.3904 8.50959 12.1903L7.61087 9.45861L6.10458 5.45796L6.09825 5.44208C6.02211 5.19975 5.85372 4.99739 5.62972 4.87902C5.40572 4.76065 5.14421 4.73584 4.90208 4.80998C4.66272 4.89231 4.46488 5.06526 4.35078 5.29195C4.23668 5.51864 4.21535 5.78111 4.29134 6.02336L7.86245 16.4228C7.91223 16.5682 7.91889 16.725 7.88163 16.8741C7.84437 17.0232 7.76478 17.1583 7.65253 17.2629C7.54028 17.3675 7.4002 17.4371 7.24928 17.4634C7.09836 17.4896 6.94311 17.4713 6.80235 17.4107C4.69481 16.5054 3.45908 16.6388 2.75815 16.9501C2.29297 17.1566 1.98285 17.479 1.78349 17.776C3.57775 18.3922 7.796 20.1932 12.4414 24.6623C13.1914 25.3834 14.2658 25.6089 15.174 25.2293L18.5869 23.7968C18.9683 23.6368 19.3016 23.3796 19.5536 23.0506C19.8056 22.7216 19.9676 22.3323 20.0235 21.9211L20.4507 18.7638C20.7007 16.9251 20.5192 15.0531 19.9207 13.2973L18.9951 10.5862L18.9919 10.5783L17.3037 5.44208V5.4389C17.2306 5.20787 17.0726 5.01345 16.8618 4.89524C16.651 4.77702 16.4032 4.74389 16.1689 4.80258C15.9346 4.86127 15.7314 5.00738 15.6007 5.21116C15.4699 5.41495 15.4214 5.66109 15.4651 5.89948L16.8179 10.0812C16.8804 10.2804 16.8621 10.4964 16.7671 10.6822C16.672 10.868 16.5078 11.0088 16.3101 11.074C16.1124 11.1391 15.8971 11.1235 15.7108 11.0304C15.5245 10.9373 15.3822 10.7743 15.3148 10.5767L15.3069 10.5783L13.9936 6.51887C13.9723 6.45071 13.9533 6.38185 13.9367 6.31241L13.1361 3.84436C13.0531 3.61085 12.8827 3.419 12.661 3.30954C12.4394 3.20008 12.184 3.18163 11.9491 3.25811C11.7141 3.33458 11.5181 3.49996 11.4027 3.71914C11.2872 3.93832 11.2614 4.19403 11.3307 4.43199L12.2848 7.37967C12.3038 7.43896 12.3159 7.49826 12.3212 7.55755L13.155 10.0859C13.2209 10.286 13.2049 10.5042 13.1106 10.6924C13.0162 10.8806 12.8512 11.0236 12.6519 11.0897C12.4526 11.1558 12.2352 11.1398 12.0477 11.045C11.8602 10.9503 11.7178 10.7847 11.6519 10.5846L9.16305 3.04074C9.08374 2.80086 8.91274 2.60243 8.68767 2.4891C8.46261 2.37577 8.20191 2.35682 7.96292 2.43643C7.72394 2.51604 7.52625 2.68768 7.41335 2.9136C7.30044 3.13951 7.28157 3.40119 7.36088 3.64107L9.10451 8.92974L9.1409 9.02503H9.13457ZM20.9491 3.29485C21.0384 3.2413 21.1372 3.20592 21.2401 3.19075C21.343 3.17558 21.4478 3.1809 21.5486 3.20642C21.6494 3.23194 21.7442 3.27715 21.8276 3.33946C21.911 3.40178 21.9813 3.47999 22.0346 3.56961L22.5029 4.35576C23.2909 5.68031 23.7149 7.19068 23.7291 8.7344C23.731 8.945 23.6495 9.14774 23.5025 9.298C23.3554 9.44826 23.155 9.53374 22.9451 9.53564C22.7353 9.53753 22.5333 9.45569 22.3836 9.30811C22.2339 9.16053 22.1488 8.9593 22.1469 8.74869C22.1355 7.48785 21.7898 6.25279 21.1453 5.1705L20.677 4.38435C20.6236 4.29488 20.5882 4.19572 20.573 4.09254C20.5578 3.98936 20.5629 3.88418 20.5882 3.78301C20.6135 3.68183 20.6584 3.58665 20.7203 3.50289C20.7822 3.41913 20.86 3.34844 20.9491 3.29485Z" fill="#393939"/>
</svg>
