<svg width="24" height="24" viewBox="0 0 24 24" fill="none" xmlns="http://www.w3.org/2000/svg">
<path d="M11 3C11 2.73478 11.1054 2.48043 11.2929 2.29289C11.4804 2.10536 11.7348 2 12 2C12.2652 2 12.5196 2.10536 12.7071 2.29289C12.8946 2.48043 13 2.73478 13 3H15C15 2.20435 14.6839 1.44129 14.1213 0.87868C13.5587 0.31607 12.7956 0 12 0C11.2044 0 10.4413 0.31607 9.87868 0.87868C9.31607 1.44129 9 2.20435 9 3H11Z" fill="#099797"/>
<path fill-rule="evenodd" clip-rule="evenodd" d="M16 3H18.6C19.2365 3 19.847 3.25286 20.2971 3.70294C20.7471 4.15303 21 4.76348 21 5.4V20.6C21 21.2365 20.7471 21.847 20.2971 22.2971C19.847 22.7471 19.2365 23 18.6 23H5.4C5.08483 23 4.77274 22.9379 4.48156 22.8173C4.19038 22.6967 3.9258 22.5199 3.70294 22.2971C3.25286 21.847 3 21.2365 3 20.6V5.4C3 5.08483 3.06208 4.77274 3.18269 4.48156C3.3033 4.19038 3.48008 3.9258 3.70294 3.70294C4.15303 3.25286 4.76348 3 5.4 3H8V4.2C8 4.41217 8.08429 4.61566 8.23431 4.76569C8.38434 4.91571 8.58783 5 8.8 5H15.2C15.4122 5 15.6157 4.91571 15.7657 4.76569C15.9157 4.61566 16 4.41217 16 4.2V3ZM7 10C6.73478 10 6.48043 10.1054 6.29289 10.2929C6.10536 10.4804 6 10.7348 6 11C6 11.2652 6.10536 11.5196 6.29289 11.7071C6.48043 11.8946 6.73478 12 7 12H17C17.2652 12 17.5196 11.8946 17.7071 11.7071C17.8946 11.5196 18 11.2652 18 11C18 10.7348 17.8946 10.4804 17.7071 10.2929C17.5196 10.1054 17.2652 10 17 10H7ZM7 13C6.73478 13 6.48043 13.1054 6.29289 13.2929C6.10536 13.4804 6 13.7348 6 14C6 14.2652 6.10536 14.5196 6.29289 14.7071C6.48043 14.8946 6.73478 15 7 15H17C17.2652 15 17.5196 14.8946 17.7071 14.7071C17.8946 14.5196 18 14.2652 18 14C18 13.7348 17.8946 13.4804 17.7071 13.2929C17.5196 13.1054 17.2652 13 17 13H7ZM7 16C6.73478 16 6.48043 16.1054 6.29289 16.2929C6.10536 16.4804 6 16.7348 6 17C6 17.2652 6.10536 17.5196 6.29289 17.7071C6.48043 17.8946 6.73478 18 7 18H13C13.2652 18 13.5196 17.8946 13.7071 17.7071C13.8946 17.5196 14 17.2652 14 17C14 16.7348 13.8946 16.4804 13.7071 16.2929C13.5196 16.1054 13.2652 16 13 16H7Z" fill="#099797"/>
</svg>
