<svg width="32" height="32" viewBox="0 0 32 32" fill="none" xmlns="http://www.w3.org/2000/svg">
<path d="M28.4728 6.5778L16.4728 2.5778C16.1655 2.47407 15.8326 2.47407 15.5253 2.5778L3.52533 6.5778C3.239 6.67264 2.98791 6.85159 2.80483 7.0913C2.62176 7.33102 2.51521 7.62036 2.49908 7.92155C2.4977 7.94778 2.4977 7.97407 2.49908 8.0003V18.0003C2.49908 18.3981 2.65712 18.7797 2.93842 19.061C3.21973 19.3423 3.60126 19.5003 3.99908 19.5003C4.39691 19.5003 4.77844 19.3423 5.05974 19.061C5.34105 18.7797 5.49908 18.3981 5.49908 18.0003V10.0816L8.46283 11.0691C7.54303 12.8297 7.26969 14.8571 7.69039 16.7984C8.1111 18.7398 9.1992 20.4722 10.7653 21.6941C8.71586 22.7047 6.98137 24.2559 5.74908 26.1803C5.63811 26.3452 5.56103 26.5306 5.52232 26.7256C5.48361 26.9205 5.48404 27.1213 5.5236 27.3161C5.56315 27.5109 5.64103 27.6959 5.75271 27.8604C5.86439 28.0248 6.00765 28.1654 6.17415 28.274C6.34065 28.3826 6.52708 28.4571 6.7226 28.493C6.91811 28.5289 7.11882 28.5256 7.31305 28.4832C7.50728 28.4409 7.69115 28.3604 7.85399 28.2464C8.01683 28.1323 8.15537 27.9871 8.26158 27.8191C10.0453 25.0741 12.8741 23.5003 15.9991 23.5003C19.1241 23.5003 21.9528 25.0741 23.7428 27.8191C23.849 27.9871 23.9876 28.1323 24.1504 28.2464C24.3133 28.3604 24.4971 28.4409 24.6914 28.4832C24.8856 28.5256 25.0863 28.5289 25.2818 28.493C25.4773 28.4571 25.6638 28.3826 25.8303 28.274C25.9968 28.1654 26.14 28.0248 26.2517 27.8604C26.3634 27.6959 26.4413 27.5109 26.4808 27.3161C26.5204 27.1213 26.5208 26.9205 26.4821 26.7256C26.4434 26.5306 26.3663 26.3452 26.2553 26.1803C25.0219 24.2537 23.2851 22.701 21.2328 21.6903C22.799 20.4684 23.8871 18.736 24.3078 16.7947C24.7285 14.8533 24.4551 12.8259 23.5353 11.0653L28.4728 9.41905C28.7711 9.31926 29.0305 9.12822 29.2143 8.87295C29.398 8.61768 29.4969 8.31109 29.4969 7.99655C29.4969 7.68201 29.398 7.37543 29.2143 7.12016C29.0305 6.86489 28.7711 6.67385 28.4728 6.57405V6.5778ZM15.9991 5.5778L23.2553 8.0003L15.9991 10.4191L8.74908 8.0003L15.9991 5.5778ZM21.4991 15.0003C21.4992 15.8546 21.3004 16.6972 20.9183 17.4613C20.5362 18.2253 19.9814 18.8899 19.2978 19.4023C18.6142 19.9147 17.8207 20.2608 16.9801 20.4131C16.1395 20.5655 15.275 20.52 14.455 20.2802C13.6351 20.0403 12.8823 19.6128 12.2563 19.0314C11.6303 18.4501 11.1484 17.7309 10.8487 16.9309C10.549 16.1309 10.4397 15.2721 10.5296 14.4226C10.6195 13.573 10.9061 12.7561 11.3666 12.0366L15.5253 13.4228C15.8327 13.5261 16.1654 13.5261 16.4728 13.4228L20.6316 12.0366C21.1988 12.9209 21.4999 13.9497 21.4991 15.0003Z" fill="#818181"/>
</svg>
