<svg width="32" height="32" viewBox="0 0 32 32" fill="none" xmlns="http://www.w3.org/2000/svg">
<path d="M28.4728 6.5775L16.4728 2.5775C16.1655 2.47376 15.8326 2.47376 15.5253 2.5775L3.52533 6.5775C3.239 6.67233 2.98791 6.85128 2.80483 7.091C2.62176 7.33071 2.51521 7.62005 2.49908 7.92125C2.4977 7.94748 2.4977 7.97377 2.49908 8V18C2.49908 18.3978 2.65712 18.7794 2.93842 19.0607C3.21973 19.342 3.60126 19.5 3.99908 19.5C4.39691 19.5 4.77844 19.342 5.05974 19.0607C5.34105 18.7794 5.49908 18.3978 5.49908 18V10.0812L8.46283 11.0687C7.54303 12.8294 7.26969 14.8568 7.69039 16.7981C8.1111 18.7395 9.1992 20.4718 10.7653 21.6937C8.71586 22.7044 6.98137 24.2556 5.74908 26.18C5.63811 26.3449 5.56103 26.5303 5.52232 26.7253C5.48361 26.9202 5.48404 27.121 5.5236 27.3158C5.56315 27.5106 5.64103 27.6956 5.75271 27.8601C5.86439 28.0245 6.00765 28.1651 6.17415 28.2737C6.34065 28.3823 6.52708 28.4567 6.7226 28.4927C6.91811 28.5286 7.11882 28.5253 7.31305 28.4829C7.50728 28.4406 7.69115 28.3601 7.85399 28.2461C8.01683 28.132 8.15537 27.9868 8.26158 27.8187C10.0453 25.0737 12.8741 23.5 15.9991 23.5C19.1241 23.5 21.9528 25.0737 23.7428 27.8187C23.849 27.9868 23.9876 28.132 24.1504 28.2461C24.3133 28.3601 24.4971 28.4406 24.6914 28.4829C24.8856 28.5253 25.0863 28.5286 25.2818 28.4927C25.4773 28.4567 25.6638 28.3823 25.8303 28.2737C25.9968 28.1651 26.14 28.0245 26.2517 27.8601C26.3634 27.6956 26.4413 27.5106 26.4808 27.3158C26.5204 27.121 26.5208 26.9202 26.4821 26.7253C26.4434 26.5303 26.3663 26.3449 26.2553 26.18C25.0219 24.2534 23.2851 22.7007 21.2328 21.69C22.799 20.4681 23.8871 18.7357 24.3078 16.7944C24.7285 14.853 24.4551 12.8256 23.5353 11.065L28.4728 9.41875C28.7711 9.31895 29.0305 9.12791 29.2143 8.87264C29.398 8.61737 29.4969 8.31079 29.4969 7.99625C29.4969 7.68171 29.398 7.37512 29.2143 7.11985C29.0305 6.86458 28.7711 6.67354 28.4728 6.57375V6.5775ZM15.9991 5.5775L23.2553 8L15.9991 10.4187L8.74908 8L15.9991 5.5775ZM21.4991 15C21.4992 15.8543 21.3004 16.6969 20.9183 17.461C20.5362 18.225 19.9814 18.8896 19.2978 19.402C18.6142 19.9144 17.8207 20.2605 16.9801 20.4128C16.1395 20.5652 15.275 20.5197 14.455 20.2798C13.6351 20.04 12.8823 19.6125 12.2563 19.0311C11.6303 18.4498 11.1484 17.7306 10.8487 16.9306C10.549 16.1306 10.4397 15.2718 10.5296 14.4223C10.6195 13.5727 10.9061 12.7558 11.3666 12.0362L15.5253 13.4225C15.8327 13.5258 16.1654 13.5258 16.4728 13.4225L20.6316 12.0362C21.1988 12.9206 21.4999 13.9494 21.4991 15Z" fill="#099797"/>
</svg>
