<svg width="37" height="37" viewBox="0 0 37 37" fill="none" xmlns="http://www.w3.org/2000/svg">
<path d="M23.8333 22C26.2645 22 28.5961 22.9658 30.3151 24.6849C32.0342 26.4039 33 28.7355 33 31.1667V33C33 33.9725 32.6137 34.9051 31.9261 35.5927C31.2384 36.2804 30.3058 36.6667 29.3333 36.6667H3.66667C2.69421 36.6667 1.76157 36.2804 1.07394 35.5927C0.386308 34.9051 0 33.9725 0 33V31.1667C0 28.7355 0.965771 26.4039 2.68485 24.6849C4.40394 22.9658 6.73552 22 9.16667 22H23.8333ZM31.1667 11C31.6529 11 32.1192 11.1932 32.463 11.537C32.8068 11.8808 33 12.3471 33 12.8333V14.6667H34.8333C35.3196 14.6667 35.7859 14.8598 36.1297 15.2036C36.4735 15.5475 36.6667 16.0138 36.6667 16.5C36.6667 16.9862 36.4735 17.4525 36.1297 17.7964C35.7859 18.1402 35.3196 18.3333 34.8333 18.3333H33V20.1667C33 20.6529 32.8068 21.1192 32.463 21.463C32.1192 21.8068 31.6529 22 31.1667 22C30.6804 22 30.2141 21.8068 29.8703 21.463C29.5265 21.1192 29.3333 20.6529 29.3333 20.1667V18.3333H27.5C27.0138 18.3333 26.5475 18.1402 26.2036 17.7964C25.8598 17.4525 25.6667 16.9862 25.6667 16.5C25.6667 16.0138 25.8598 15.5475 26.2036 15.2036C26.5475 14.8598 27.0138 14.6667 27.5 14.6667H29.3333V12.8333C29.3333 12.3471 29.5265 11.8808 29.8703 11.537C30.2141 11.1932 30.6804 11 31.1667 11ZM16.5 0C18.9312 0 21.2627 0.965771 22.9818 2.68485C24.7009 4.40394 25.6667 6.73552 25.6667 9.16667C25.6667 11.5978 24.7009 13.9294 22.9818 15.6485C21.2627 17.3676 18.9312 18.3333 16.5 18.3333C14.0688 18.3333 11.7373 17.3676 10.0182 15.6485C8.2991 13.9294 7.33333 11.5978 7.33333 9.16667C7.33333 6.73552 8.2991 4.40394 10.0182 2.68485C11.7373 0.965771 14.0688 0 16.5 0Z" fill="#099797"/>
</svg>
