<svg width="34" height="34" viewBox="0 0 34 34" fill="none" xmlns="http://www.w3.org/2000/svg">
<path fill-rule="evenodd" clip-rule="evenodd" d="M21.7775 20.1023C23.999 20.1023 26.1294 20.9848 27.7002 22.5556C29.271 24.1264 30.1535 26.2568 30.1535 28.4783V31.8287C30.1535 32.273 29.977 32.6991 29.6628 33.0132C29.3487 33.3274 28.9226 33.5039 28.4783 33.5039C28.034 33.5039 27.6079 33.3274 27.2937 33.0132C26.9796 32.6991 26.8031 32.273 26.8031 31.8287V28.4783C26.8031 27.1454 26.2736 25.8671 25.3311 24.9247C24.3887 23.9822 23.1104 23.4527 21.7775 23.4527H8.37597C7.0431 23.4527 5.76482 23.9822 4.82235 24.9247C3.87987 25.8671 3.35039 27.1454 3.35039 28.4783V31.8287C3.35039 32.273 3.17389 32.6991 2.85973 33.0132C2.54557 33.3274 2.11948 33.5039 1.67519 33.5039C1.2309 33.5039 0.804812 33.3274 0.490653 33.0132C0.176493 32.6991 0 32.273 0 31.8287V28.4783C0 26.2568 0.882465 24.1264 2.45326 22.5556C4.02406 20.9848 6.15452 20.1023 8.37597 20.1023H21.7775ZM28.4783 10.0512C28.9226 10.0512 29.3487 10.2277 29.6628 10.5418C29.977 10.856 30.1535 11.2821 30.1535 11.7264V13.4015H31.8287C32.273 13.4015 32.6991 13.578 33.0132 13.8922C33.3274 14.2064 33.5039 14.6325 33.5039 15.0767C33.5039 15.521 33.3274 15.9471 33.0132 16.2613C32.6991 16.5754 32.273 16.7519 31.8287 16.7519H30.1535V18.4271C30.1535 18.8714 29.977 19.2975 29.6628 19.6117C29.3487 19.9258 28.9226 20.1023 28.4783 20.1023C28.034 20.1023 27.6079 19.9258 27.2937 19.6117C26.9796 19.2975 26.8031 18.8714 26.8031 18.4271V16.7519H25.1279C24.6836 16.7519 24.2575 16.5754 23.9434 16.2613C23.6292 15.9471 23.4527 15.521 23.4527 15.0767C23.4527 14.6325 23.6292 14.2064 23.9434 13.8922C24.2575 13.578 24.6836 13.4015 25.1279 13.4015H26.8031V11.7264C26.8031 11.2821 26.9796 10.856 27.2937 10.5418C27.6079 10.2277 28.034 10.0512 28.4783 10.0512ZM15.0767 0C17.2982 0 19.4286 0.882465 20.9994 2.45326C22.5702 4.02406 23.4527 6.15452 23.4527 8.37597C23.4527 10.5974 22.5702 12.7279 20.9994 14.2987C19.4286 15.8695 17.2982 16.7519 15.0767 16.7519C12.8553 16.7519 10.7248 15.8695 9.15404 14.2987C7.58324 12.7279 6.70077 10.5974 6.70077 8.37597C6.70077 6.15452 7.58324 4.02406 9.15404 2.45326C10.7248 0.882465 12.8553 0 15.0767 0ZM15.0767 3.35039C14.4168 3.35039 13.7633 3.48038 13.1535 3.73294C12.5438 3.9855 11.9898 4.35568 11.5231 4.82235C11.0564 5.28901 10.6863 5.84303 10.4337 6.45276C10.1812 7.06249 10.0512 7.716 10.0512 8.37597C10.0512 9.03594 10.1812 9.68944 10.4337 10.2992C10.6863 10.9089 11.0564 11.4629 11.5231 11.9296C11.9898 12.3963 12.5438 12.7664 13.1535 13.019C13.7633 13.2716 14.4168 13.4015 15.0767 13.4015C16.4096 13.4015 17.6879 12.8721 18.6304 11.9296C19.5728 10.9871 20.1023 9.70883 20.1023 8.37597C20.1023 7.0431 19.5728 5.76482 18.6304 4.82235C17.6879 3.87987 16.4096 3.35039 15.0767 3.35039Z" fill="#818181"/>
</svg>
