<svg width="161" height="58" viewBox="0 0 161 58" fill="none" xmlns="http://www.w3.org/2000/svg">
<ellipse cx="29.5" cy="29" rx="29.5" ry="29" fill="#DCDCDC"/>
<path d="M48.6657 39.8071L51.7749 41.966L45.2437 46.4744L42.1895 42.181L47.1486 35.5486L48.4757 39.5537L48.528 39.7115L48.6657 39.8071Z" fill="#099797" stroke="black"/>
<path d="M13.4886 36.8881L14.7607 39.8555L14.7833 39.9081L14.8174 39.9544L16.4689 42.1939L12.3956 46.5749L7.94345 41.0977L11.1369 39.8688L11.2709 39.8172L11.3568 39.7037L13.4886 36.8881Z" fill="#099797" stroke="black"/>
<path d="M37.9575 41.0354C40.3567 39.2734 42.2981 36.966 43.6203 34.3054C44.9424 31.6448 45.6069 28.7079 45.5585 25.7394L45.3166 10.3142C45.3128 10.0049 45.2395 9.70033 45.102 9.42288C44.9644 9.14543 44.7662 8.90217 44.5219 8.71097M37.9575 41.0354L37.6619 40.632M37.9575 41.0354L37.6614 40.6323M37.9575 41.0354L30.4525 46.5341M37.6619 40.632C39.9967 38.9171 41.886 36.6717 43.1725 34.0827C44.4591 31.4936 45.1057 28.6358 45.0586 25.7473L45.0586 25.747L44.8167 10.3219L44.8167 10.3201C44.8138 10.0858 44.7582 9.85507 44.654 9.64476C44.5498 9.43464 44.3997 9.25021 44.2144 9.10508M37.6619 40.632C37.6618 40.6321 37.6616 40.6322 37.6614 40.6323M37.6619 40.632L37.6614 40.6323M44.2144 9.10508L44.5219 8.71097M44.2144 9.10508C44.2143 9.10494 44.2141 9.1048 44.2139 9.10466L44.5219 8.71097M44.2144 9.10508C44.0287 8.96011 43.8125 8.85831 43.5818 8.80731C43.3511 8.75631 43.1118 8.75744 42.8816 8.81062L42.8786 8.81131C40.5977 9.32367 38.2355 9.36571 35.9374 8.93481C33.6394 8.50396 31.4541 7.60937 29.5159 6.306M44.5219 8.71097C44.2773 8.52007 43.9929 8.38616 43.6895 8.3191C43.3861 8.25204 43.0715 8.25353 42.7688 8.32346C40.5542 8.82094 38.2606 8.86175 36.0293 8.44338C33.7979 8.02501 31.6761 7.15631 29.7943 5.89076M29.5159 6.306C29.5161 6.30614 29.5164 6.30628 29.5166 6.30642L29.7943 5.89076M29.5159 6.306C29.2488 6.12764 28.9331 6.03455 28.6111 6.03945C28.2891 6.04435 27.9765 6.14701 27.715 6.33343M29.5159 6.306C29.5157 6.30587 29.5156 6.30574 29.5154 6.30561L29.7943 5.89076M29.7943 5.89076C29.4424 5.65562 29.0269 5.53307 28.6033 5.53951C28.1796 5.54596 27.7681 5.6811 27.4238 5.92683M27.4238 5.92683C25.5826 7.24904 23.489 8.1819 21.2718 8.66797C19.0547 9.15404 16.7609 9.18304 14.5318 8.75318C14.227 8.69249 13.9125 8.70058 13.6114 8.77684M27.4238 5.92683L27.7145 6.33385C27.7146 6.33371 27.7148 6.33357 27.715 6.33343M27.4238 5.92683L27.7156 6.333C27.7154 6.33314 27.7152 6.33328 27.715 6.33343M27.715 6.33343C25.8187 7.69514 23.6624 8.6558 21.3791 9.15637C19.0956 9.65699 16.7332 9.68686 14.4373 9.24413L14.4343 9.24354C14.2026 9.19739 13.9634 9.20354 13.7344 9.26154L13.6114 8.77684M13.6114 8.77684L13.7344 9.26154C13.5055 9.3195 13.2927 9.42774 13.1117 9.57817C13.1117 9.5781 13.1118 9.57804 13.1119 9.57798L12.7916 9.19386C13.0301 8.9956 13.3103 8.8531 13.6114 8.77684ZM30.4525 46.5341L30.1569 46.1307L37.6614 40.6323M30.4525 46.5341C30.1042 46.7892 29.6848 46.9298 29.2525 46.9363C28.8202 46.9429 28.3965 46.8152 28.0405 46.5708L30.4525 46.5341ZM35.7889 38.1001L35.7885 38.1004L29.4761 42.7319L29.1898 42.9419L28.8971 42.7407L22.4425 38.3035L22.4422 38.3032C20.4697 36.9448 18.8513 35.137 17.7217 33.0299C16.5921 30.923 15.9841 28.578 15.9482 26.19C15.9482 26.1899 15.9482 26.1898 15.9482 26.1897M35.7889 38.1001L16.4482 26.1824L15.9482 26.1897M35.7889 38.1001C37.7177 36.6823 39.2787 34.8261 40.3417 32.6857C41.4047 30.5453 41.9389 28.1828 41.8998 25.7947M35.7889 38.1001L41.8998 25.7947M15.9482 26.1897L15.7436 13.1459L15.7351 12.6016L16.2782 12.6395C20.5387 12.9374 24.7845 11.8895 28.4111 9.64528L28.6652 9.48802L28.9241 9.63747C32.6194 11.7703 36.8959 12.6885 41.1451 12.2611L41.6867 12.2066L41.6953 12.751L41.8998 25.7947M15.9482 26.1897L41.8998 25.7947M41.8998 25.7947L41.3999 25.8027L41.8999 25.7951L41.8998 25.7947Z" fill="#099797" stroke="black"/>
<path d="M28.7317 13.7327L29.1036 37.4496" stroke="black" stroke-width="0.5" stroke-linecap="round"/>
<path d="M39.4197 25.2156L18.4076 25.5353" stroke="#191313" stroke-width="0.5" stroke-linecap="round"/>
<path d="M23.1174 30.7423C23.2011 30.7412 23.2753 30.7714 23.3253 30.8165C23.3741 30.8606 23.3947 30.9132 23.3955 30.9602L23.8954 30.9521L23.3955 30.9594C23.3962 31.0064 23.3773 31.0596 23.3299 31.1052L23.6541 31.4427L23.3299 31.1052C23.2814 31.1518 23.2081 31.1843 23.1243 31.1857C23.0407 31.1867 22.9665 31.1565 22.9166 31.1114C22.8679 31.0673 22.8473 31.0147 22.8465 30.9678L22.3466 30.9756L22.8466 30.9683C22.8458 30.9213 22.8647 30.8681 22.9121 30.8226C22.9601 30.7764 23.0331 30.7439 23.1174 30.7423Z" stroke="#099797"/>
<path d="M25.3946 21.0922L25.3639 19.1391L22.6193 20.603C22.5256 20.6561 22.4261 20.6834 22.3208 20.685C22.2157 20.6866 22.1146 20.6622 22.0175 20.6118L19.3495 19.282C19.293 19.2511 19.2511 19.214 19.2238 19.1709C19.1965 19.1278 19.1825 19.0798 19.1817 19.0269C19.1808 18.9741 19.1934 18.9257 19.2193 18.8818C19.2452 18.8378 19.2859 18.7995 19.3414 18.7669L21.9662 17.3602C22.0127 17.3345 22.0609 17.3152 22.1105 17.3022C22.1599 17.2892 22.2118 17.2823 22.2662 17.2815C22.3207 17.2807 22.3728 17.2862 22.4226 17.2982C22.4723 17.3102 22.5209 17.3289 22.5683 17.3544L25.5804 18.8426C25.6338 18.8672 25.6752 18.9033 25.7049 18.9508C25.7346 18.9983 25.7498 19.0497 25.7507 19.105L25.7818 21.0863C25.7826 21.1382 25.7647 21.182 25.7281 21.2178C25.6915 21.2536 25.6458 21.2719 25.5911 21.2727C25.5363 21.2735 25.49 21.2566 25.452 21.222C25.414 21.1873 25.3949 21.1441 25.3946 21.0922ZM22.0453 22.3833L20.3341 21.538C20.2339 21.4862 20.1538 21.4138 20.0937 21.3208C20.0336 21.2285 20.0028 21.128 20.0011 21.0194L19.9832 19.879L22.0219 20.8877C22.1172 20.9379 22.2175 20.9622 22.3228 20.9606C22.4278 20.959 22.5281 20.9315 22.6236 20.8782L24.6297 19.808L24.6476 20.9494C24.6493 21.0595 24.6216 21.1615 24.5644 21.2553C24.5073 21.3487 24.4296 21.4228 24.3313 21.4776L22.647 22.3741C22.5999 22.4005 22.5515 22.4206 22.5016 22.4343C22.4517 22.448 22.4003 22.4553 22.3474 22.4561C22.2945 22.4569 22.2429 22.4512 22.1926 22.439C22.1423 22.4268 22.0932 22.4082 22.0453 22.3833Z" fill="#099797"/>
<path d="M32.5241 20.6081C32.227 20.6037 31.9296 20.6219 31.6365 20.6646C31.3847 20.7012 31.1365 20.7569 30.895 20.8304C30.8364 20.848 30.7706 20.8627 30.7154 20.8892C30.6801 20.9065 30.6513 20.926 30.619 20.8901C30.5742 20.8419 30.602 20.7525 30.6082 20.6964C30.6207 20.5834 30.6351 20.471 30.6521 20.3585C30.7257 19.858 30.8273 19.3618 30.8939 18.8601C30.9227 18.6383 30.9458 18.4148 30.9733 18.193C30.9871 18.0788 31.0028 17.9646 31.021 17.8509C31.0434 17.7115 31.0471 17.6136 31.1868 17.5274C31.4245 17.3805 31.7114 17.3129 31.9854 17.2473C32.2807 17.1766 32.5754 17.116 32.8822 17.1221C33.0971 17.1265 33.3069 17.1759 33.4979 17.2654C33.5904 17.3088 33.6793 17.3599 33.7636 17.4165C33.8473 17.472 33.9492 17.5313 34.0163 17.603C34.0762 17.6666 34.0959 17.7248 34.1027 17.7915C34.0754 18.647 34.1151 20.7665 34.1246 20.9167C34.1254 20.9292 34.1269 20.9418 34.1277 20.9543C34.1248 20.9704 34.1153 20.9831 34.0868 20.9835C34.0525 20.9847 34.0147 20.9643 33.9847 20.9505C33.9228 20.9216 33.8602 20.8939 33.7977 20.868C33.3932 20.6993 32.9687 20.6145 32.5241 20.6081ZM38.0132 20.777C37.9814 20.8139 37.9527 20.7952 37.9168 20.7791C37.8614 20.7542 37.7952 20.7415 37.7354 20.7257C37.4918 20.6596 37.2419 20.6121 36.9891 20.5825C36.6948 20.5488 36.3963 20.5402 36.0995 20.5531C35.656 20.573 35.2343 20.6707 34.8347 20.8516C34.773 20.88 34.7113 20.9096 34.6503 20.9398C34.6208 20.9545 34.5836 20.9754 34.5487 20.9759C34.5202 20.9763 34.5103 20.964 34.5068 20.9479C34.5073 20.9354 34.509 20.9228 34.5088 20.9103C34.5136 20.7598 34.4875 18.6401 34.4326 17.7859C34.4374 17.719 34.4553 17.6602 34.5125 17.5949C34.5786 17.5211 34.6779 17.4581 34.7598 17.4008C34.8424 17.3422 34.9289 17.2878 35.0207 17.2417C35.2095 17.1463 35.4169 17.0906 35.6316 17.0796C35.938 17.0636 36.2346 17.1158 36.5319 17.1775C36.8078 17.2348 37.0967 17.293 37.3396 17.4331C37.4819 17.5151 37.4886 17.6129 37.5154 17.7515C37.5372 17.8645 37.5565 17.9782 37.5738 18.0919C37.6077 18.3134 37.6377 18.5355 37.6741 18.7563C37.7564 19.2551 37.8741 19.7486 37.9628 20.2467C37.982 20.3586 38.0013 20.4705 38.0173 20.583C38.0259 20.639 38.0564 20.7274 38.0132 20.777Z" fill="white"/>
<path d="M38.0098 21.0691C38.0125 20.9919 38.0457 20.776 38.0439 20.7342C38.0315 20.1979 37.6511 18.4356 37.5879 18.0058L37.5841 17.9794C37.562 17.8106 37.5514 17.6098 37.4844 17.451C37.4169 17.2912 37.2054 17.2383 37.0528 17.1839C36.4209 16.9621 35.7086 16.778 35.0453 16.9919C34.7864 17.0751 34.5541 17.2202 34.3693 17.4461C34.1781 17.226 33.9407 17.088 33.6799 17.0127C33.0102 16.819 32.304 17.0248 31.6794 17.2656C31.5285 17.3241 31.3177 17.3835 31.2558 17.5458C31.1938 17.7065 31.1895 17.9071 31.1728 18.077L31.1698 18.1035C31.12 18.535 30.7957 20.308 30.7995 20.8444C30.7991 20.8869 30.8395 21.1011 30.8447 21.1781C30.8522 21.2893 30.8402 21.4012 30.8477 21.5118C30.8369 21.5506 30.8477 21.5868 30.8727 21.615C30.8891 21.6445 30.9139 21.6623 30.9409 21.6713C31.003 21.7353 31.113 21.6907 31.1851 21.6676C31.8313 21.455 32.5452 21.4519 33.2165 21.5276C33.3354 21.5406 33.4538 21.5576 33.5717 21.5778C33.6942 21.5991 33.8107 21.6392 33.9283 21.6776C34.0252 21.7092 34.1266 21.7352 34.2285 21.7523C34.3018 21.7672 34.3732 21.7727 34.4057 21.7728C34.4172 21.7726 34.4274 21.7713 34.4382 21.7706C34.4491 21.7705 34.46 21.7719 34.4708 21.7718C34.5033 21.7713 34.5745 21.7636 34.6473 21.746C34.7486 21.7257 34.8492 21.6966 34.9451 21.6621C35.0614 21.6201 35.1772 21.5765 35.2989 21.5515C35.4161 21.5277 35.5339 21.5072 35.6524 21.4905C36.3203 21.3944 37.0346 21.3758 37.6871 21.5686C37.7594 21.5901 37.8708 21.6308 37.9308 21.5649C37.958 21.5551 37.9817 21.5366 37.9972 21.5066C38.0213 21.4776 38.031 21.4411 38.019 21.4027C38.0212 21.2914 38.0058 21.1804 38.0098 21.0691ZM32.838 20.4279C32.5759 20.4236 32.3136 20.4402 32.0551 20.4794C31.8331 20.5131 31.6141 20.5644 31.4012 20.632C31.3495 20.6482 31.2915 20.6618 31.2428 20.6862C31.2117 20.7021 31.1863 20.7201 31.1578 20.687C31.1183 20.6424 31.1426 20.56 31.1481 20.5081C31.159 20.4038 31.1717 20.3001 31.1866 20.1963C31.2513 19.7343 31.3405 19.2763 31.3989 18.8133C31.4242 18.6085 31.4444 18.4022 31.4686 18.1975C31.4806 18.0921 31.4944 17.9867 31.5104 17.8818C31.5301 17.7532 31.5333 17.6628 31.6564 17.5833C31.866 17.4479 32.1191 17.3856 32.3607 17.3252C32.621 17.2601 32.881 17.2044 33.1516 17.2102C33.3412 17.2145 33.5262 17.2601 33.6948 17.3429C33.7764 17.383 33.8548 17.4303 33.9292 17.4826C34.0031 17.5338 34.093 17.5886 34.1522 17.6549C34.2051 17.7136 34.2225 17.7673 34.2286 17.8289C34.205 18.6186 34.2414 20.575 34.2499 20.7137C34.2506 20.7253 34.2519 20.7368 34.2527 20.7484C34.2501 20.7633 34.2417 20.775 34.2166 20.7754C34.1864 20.7764 34.153 20.7576 34.1265 20.7448C34.0719 20.7181 34.0167 20.6925 33.9615 20.6685C33.6046 20.5126 33.2301 20.434 32.838 20.4279ZM37.6797 20.5872C37.6517 20.6212 37.6264 20.6039 37.5947 20.589C37.5459 20.5661 37.4875 20.5543 37.4347 20.5397C37.2197 20.4785 36.9993 20.4345 36.7763 20.407C36.5167 20.3757 36.2534 20.3676 35.9917 20.3793C35.6004 20.3974 35.2286 20.4873 34.8762 20.6541C34.8218 20.6802 34.7674 20.7075 34.7137 20.7353C34.6876 20.7489 34.6548 20.7681 34.624 20.7686C34.5989 20.769 34.5902 20.7576 34.5871 20.7427C34.5875 20.7312 34.589 20.7196 34.5888 20.708C34.5929 20.5691 34.5685 18.6125 34.5196 17.8239C34.5238 17.7621 34.5395 17.7079 34.5899 17.6477C34.6482 17.5796 34.7357 17.5215 34.808 17.4686C34.8807 17.4147 34.957 17.3645 35.0379 17.3219C35.2044 17.234 35.3873 17.1828 35.5767 17.1727C35.847 17.1581 36.1086 17.2065 36.3709 17.2636C36.6142 17.3167 36.8691 17.3706 37.0834 17.5001C37.209 17.5759 37.215 17.6661 37.2387 17.7941C37.258 17.8984 37.2751 18.0034 37.2904 18.1084C37.3205 18.3128 37.3471 18.5179 37.3794 18.7217C37.4522 19.1822 37.5564 19.6378 37.635 20.0976C37.652 20.2009 37.669 20.3042 37.6832 20.4081C37.6909 20.4598 37.7178 20.5414 37.6797 20.5872Z" fill="#099797"/>
<path d="M33.7508 17.8175C33.2066 17.5812 32.4783 17.5791 31.9384 17.8384C31.7957 17.9073 31.9244 18.1063 32.0661 18.0419C32.5256 17.8312 33.1606 17.8523 33.6129 18.0531C33.7761 18.125 33.9146 17.8888 33.7508 17.8175ZM33.7438 18.462C33.1648 18.2274 32.4238 18.1467 31.8481 18.4441C31.7229 18.5088 31.8363 18.6789 31.9604 18.623C32.4892 18.3853 33.1293 18.5105 33.6497 18.6876C33.7846 18.7341 33.8764 18.5156 33.7438 18.462ZM33.7236 19.1051C33.6618 19.0565 33.5764 19.0347 33.5024 19.0099C32.9653 18.8297 32.256 18.8328 31.747 19.0939C31.6349 19.1512 31.7326 19.3084 31.8434 19.2759C32.1218 19.1951 32.3842 19.1487 32.6746 19.1415C32.9022 19.1358 33.1091 19.1558 33.3275 19.2153C33.3934 19.233 33.4563 19.2392 33.5195 19.2669C33.5649 19.2866 33.6213 19.3116 33.671 19.3169C33.7796 19.3279 33.7994 19.1739 33.7375 19.1165L33.7236 19.1051ZM33.6768 19.7266C33.055 19.4552 32.3631 19.5175 31.7417 19.7395C31.6134 19.7856 31.678 19.9763 31.8087 19.9346C32.1011 19.8409 32.3449 19.7706 32.6569 19.762C32.957 19.7541 33.2843 19.8439 33.561 19.9437C33.7096 19.9982 33.828 19.7926 33.6768 19.7266ZM35.1433 18.0293C35.5891 17.8148 36.2231 17.7749 36.6891 17.971C36.8321 18.0317 36.9551 17.8282 36.8102 17.7637C36.2631 17.5209 35.5352 17.5452 34.9987 17.7979C34.8366 17.8747 34.9818 18.1066 35.1433 18.0293ZM35.127 18.6652C35.6416 18.4723 36.2774 18.3276 36.8134 18.5492C36.9392 18.6012 37.0472 18.4277 36.9201 18.3669C36.3347 18.0871 35.5967 18.1904 35.0259 18.4425C34.895 18.5001 34.9931 18.7157 35.127 18.6652ZM35.1249 19.2953C35.175 19.2885 35.2294 19.2618 35.2741 19.2407C35.337 19.2111 35.3997 19.203 35.465 19.1833C35.6814 19.1178 35.8876 19.0915 36.1153 19.0897C36.4058 19.0874 36.6701 19.1258 36.9509 19.1987C37.0621 19.2278 37.1549 19.0672 37.0416 19.0139C36.5246 18.7684 35.8149 18.7869 35.2844 18.9833C35.2112 19.0103 35.1265 19.0342 35.0657 19.0853L35.0522 19.0976C34.9914 19.1558 35.0172 19.3096 35.1249 19.2953ZM37.0671 19.6585C36.439 19.4554 35.7454 19.4142 35.1325 19.7045C34.9835 19.775 35.1082 19.9769 35.2557 19.918C35.5285 19.8097 35.8522 19.71 36.153 19.7088C36.4646 19.7079 36.711 19.7708 37.0057 19.8555C37.1381 19.8937 37.1968 19.7006 37.0671 19.6585Z" fill="#099797"/>
<path d="M27.5198 20.2209L27.5807 24.1018L23.6409 24.1618" stroke="#EBD561" stroke-width="0.5" stroke-linecap="round"/>
<path d="M27.5198 20.2209L27.5807 24.1018L23.6409 24.1618" stroke="#EBD561" stroke-width="0.5" stroke-linecap="round"/>
<path d="M29.9347 30.4035L29.85 26.2819L33.9893 26.1989" stroke="#EBD561" stroke-width="0.5" stroke-linecap="round"/>
<path d="M36.8478 28.7053L36.8512 28.9209C36.8516 28.9495 36.8413 28.9771 36.8224 28.9976C36.8036 29.0181 36.7778 29.0299 36.7507 29.0303L36.4443 29.035L36.4468 29.1967C36.4482 29.286 36.3807 29.3594 36.2961 29.3607L31.2912 29.4369C31.2066 29.4382 31.1368 29.3668 31.1354 29.2775L31.1329 29.1158L30.8265 29.1205C30.7994 29.1209 30.7732 29.1099 30.7538 29.09C30.7343 29.0701 30.7231 29.0428 30.7226 29.0142L30.7193 28.7986C30.7189 28.7773 30.7246 28.7563 30.7355 28.7384C30.7465 28.7205 30.7622 28.7065 30.7808 28.698L33.7243 27.4671C33.7491 27.4558 33.7772 27.4554 33.8024 27.4659L36.7831 28.6067C36.8019 28.6145 36.8181 28.6281 36.8296 28.6457C36.8411 28.6632 36.8474 28.684 36.8478 28.7053ZM36.6056 32.8066L31.0899 32.8905C30.9207 32.8931 30.7858 33.0399 30.7886 33.2186L30.792 33.4342C30.7924 33.4628 30.8036 33.49 30.8231 33.5099C30.8425 33.5299 30.8687 33.5408 30.8958 33.5404L36.82 33.4503C36.8471 33.4499 36.8729 33.4381 36.8917 33.4176C36.9106 33.3971 36.9209 33.3695 36.9205 33.3409L36.9171 33.1253C36.9143 32.9467 36.7748 32.804 36.6056 32.8066ZM31.7542 29.6455L31.7948 32.2328L31.3351 32.2398C31.2505 32.2411 31.1831 32.3145 31.1845 32.4038L31.1887 32.6733L36.5001 32.5925L36.4958 32.323C36.4944 32.2337 36.4247 32.1623 36.3401 32.1636L35.8805 32.1706L35.8399 29.5833L35.0227 29.5957L35.0633 32.183L34.2462 32.1955L34.2056 29.6082L33.3885 29.6206L33.4291 32.2079L32.6119 32.2203L32.5713 29.633L31.7542 29.6455Z" fill="#099797"/>
<mask id="path-16-inside-1_538_3462" fill="white">
<path d="M7.96167 43.5212C10.4156 47.0739 13.6503 49.9683 17.3975 51.9646C21.1448 53.9609 25.2966 55.0014 29.5087 55C33.7209 54.9986 37.872 53.9552 41.618 51.9563C45.3639 49.9575 48.5968 47.0608 51.0485 43.5065L45.648 39.4949C43.8107 42.1585 41.3881 44.3292 38.581 45.8271C35.7738 47.3249 32.663 48.1068 29.5065 48.1079C26.35 48.109 23.2388 47.3292 20.4307 45.8333C17.6226 44.3373 15.1986 42.1683 13.3596 39.5059L7.96167 43.5212Z"/>
</mask>
<path d="M7.96167 43.5212C10.4156 47.0739 13.6503 49.9683 17.3975 51.9646C21.1448 53.9609 25.2966 55.0014 29.5087 55C33.7209 54.9986 37.872 53.9552 41.618 51.9563C45.3639 49.9575 48.5968 47.0608 51.0485 43.5065L45.648 39.4949C43.8107 42.1585 41.3881 44.3292 38.581 45.8271C35.7738 47.3249 32.663 48.1068 29.5065 48.1079C26.35 48.109 23.2388 47.3292 20.4307 45.8333C17.6226 44.3373 15.1986 42.1683 13.3596 39.5059L7.96167 43.5212Z" fill="#099797" stroke="black" stroke-width="2" mask="url(#path-16-inside-1_538_3462)"/>
<path d="M78.6094 18.25C78.6094 16.5833 78.2969 15.4219 77.6719 14.7656C77.0573 14.099 75.9688 13.7656 74.4062 13.7656H73.1719V23.0625H74.4688C75.9167 23.0625 76.9688 22.6979 77.625 21.9688C78.2812 21.2396 78.6094 20 78.6094 18.25ZM73.1719 24.7812V31.4375L76.6562 31.8594V33H65.75V31.8594L68.2344 31.4375V13.5938L65.5469 13.1875V12.0469H74.7812C77.75 12.0469 79.9688 12.5469 81.4375 13.5469C82.9062 14.5365 83.6406 16.0938 83.6406 18.2188C83.6406 22.5938 81.0885 24.7812 75.9844 24.7812H73.1719ZM91.1256 21.3594C92.2506 20.1094 93.2558 19.2135 94.1413 18.6719C95.0371 18.1198 95.8548 17.8438 96.5944 17.8438H97.4381V23.2031H96.5631L95.6413 21.2344C94.985 21.2344 94.2402 21.3802 93.4069 21.6719C92.5735 21.9531 91.8392 22.2865 91.2038 22.6719V31.5938L93.5631 31.9688V33H84.7819V31.9688L86.6881 31.5938V19.7188L84.7819 19.3438V18.3125H90.9538L91.1256 21.3594ZM111.689 25.5781C111.689 28.2135 111.121 30.1615 109.986 31.4219C108.861 32.6823 107.137 33.3125 104.814 33.3125C102.564 33.3125 100.887 32.6771 99.7825 31.4062C98.6783 30.125 98.1262 28.1823 98.1262 25.5781C98.1262 22.9844 98.6835 21.0625 99.7981 19.8125C100.923 18.5521 102.637 17.9219 104.939 17.9219C107.262 17.9219 108.965 18.5729 110.048 19.875C111.142 21.1667 111.689 23.0677 111.689 25.5781ZM107.111 25.5781C107.111 23.2865 106.939 21.7031 106.595 20.8281C106.262 19.9427 105.678 19.5 104.845 19.5C104.043 19.5 103.486 19.9219 103.173 20.7656C102.861 21.6094 102.704 23.2135 102.704 25.5781C102.704 27.9844 102.861 29.6146 103.173 30.4688C103.496 31.3229 104.053 31.75 104.845 31.75C105.668 31.75 106.251 31.3021 106.595 30.4062C106.939 29.5 107.111 27.8906 107.111 25.5781ZM119.111 33.3125C117.705 33.3125 116.616 32.9948 115.846 32.3594C115.085 31.724 114.705 30.8073 114.705 29.6094V19.9375H112.783V18.9219L115.049 18.3125L116.877 14.9844H119.221V18.3125H122.314V19.9375H119.221V29.3281C119.221 30.0052 119.361 30.5156 119.643 30.8594C119.924 31.2031 120.294 31.375 120.752 31.375C121.304 31.375 121.981 31.2917 122.783 31.125V32.4531C122.471 32.6719 121.934 32.8698 121.174 33.0469C120.424 33.224 119.736 33.3125 119.111 33.3125ZM137.065 25.5781C137.065 28.2135 136.497 30.1615 135.362 31.4219C134.237 32.6823 132.513 33.3125 130.19 33.3125C127.94 33.3125 126.263 32.6771 125.159 31.4062C124.055 30.125 123.502 28.1823 123.502 25.5781C123.502 22.9844 124.06 21.0625 125.174 19.8125C126.299 18.5521 128.013 17.9219 130.315 17.9219C132.638 17.9219 134.341 18.5729 135.424 19.875C136.518 21.1667 137.065 23.0677 137.065 25.5781ZM132.487 25.5781C132.487 23.2865 132.315 21.7031 131.971 20.8281C131.638 19.9427 131.055 19.5 130.221 19.5C129.419 19.5 128.862 19.9219 128.549 20.7656C128.237 21.6094 128.081 23.2135 128.081 25.5781C128.081 27.9844 128.237 29.6146 128.549 30.4688C128.872 31.3229 129.43 31.75 130.221 31.75C131.044 31.75 131.627 31.3021 131.971 30.4062C132.315 29.5 132.487 27.8906 132.487 25.5781ZM144.425 19.5938L145.488 19.0469C146.946 18.2969 148.258 17.9219 149.425 17.9219C152.133 17.9219 153.488 19.3646 153.488 22.25V31.5938L154.956 31.9688V33H147.659V31.9688L148.972 31.5938V22.8594C148.972 21.9844 148.784 21.3021 148.409 20.8125C148.045 20.3229 147.519 20.0781 146.831 20.0781C146.04 20.0781 145.248 20.2552 144.456 20.6094V31.5938L145.8 31.9688V33H138.503V31.9688L139.941 31.5938V19.7188L138.503 19.3438V18.3125H144.206L144.425 19.5938Z" fill="white"/>
<path d="M71.16 40.2H72.98V46.528C72.98 47.1627 72.896 47.7087 72.728 48.166C72.56 48.6233 72.3267 49.0013 72.028 49.3C71.7293 49.5987 71.3653 49.818 70.936 49.958C70.5067 50.098 70.0353 50.168 69.522 50.168C67.0393 50.168 65.798 49.034 65.798 46.766V40.2H67.716V46.388C67.716 46.7707 67.7487 47.0973 67.814 47.368C67.8887 47.6293 68.0007 47.844 68.15 48.012C68.2993 48.1707 68.486 48.2873 68.71 48.362C68.934 48.4273 69.1953 48.46 69.494 48.46C70.082 48.46 70.5067 48.2967 70.768 47.97C71.0293 47.6433 71.16 47.116 71.16 46.388V40.2ZM80.9593 50V46.024C80.9593 45.4547 80.8753 45.044 80.7073 44.792C80.5487 44.54 80.2733 44.414 79.8813 44.414C79.536 44.414 79.242 44.5167 78.9993 44.722C78.766 44.918 78.598 45.1653 78.4953 45.464V50H76.6753V43H78.1173L78.3273 43.924H78.3833C78.598 43.6253 78.8827 43.364 79.2373 43.14C79.592 42.916 80.0493 42.804 80.6093 42.804C80.9547 42.804 81.2627 42.8507 81.5333 42.944C81.804 43.0373 82.0327 43.1913 82.2193 43.406C82.406 43.6207 82.546 43.9147 82.6393 44.288C82.7327 44.652 82.7793 45.1047 82.7793 45.646V50H80.9593ZM86.5583 43H88.3783V50H86.5583V43ZM86.2923 41.026C86.2923 40.7553 86.3903 40.5267 86.5863 40.34C86.7916 40.144 87.0716 40.046 87.4263 40.046C87.7809 40.046 88.0656 40.144 88.2803 40.34C88.5043 40.5267 88.6163 40.7553 88.6163 41.026C88.6163 41.2967 88.5043 41.5253 88.2803 41.712C88.0656 41.8893 87.7809 41.978 87.4263 41.978C87.0716 41.978 86.7916 41.8893 86.5863 41.712C86.3903 41.5253 86.2923 41.2967 86.2923 41.026ZM94.686 46.668L94.924 47.746H94.994L95.19 46.64L96.38 43H98.34L95.414 50.07H94.308L91.27 43H93.384L94.686 46.668ZM106.54 49.398C106.26 49.622 105.878 49.8133 105.392 49.972C104.916 50.1213 104.408 50.196 103.866 50.196C102.737 50.196 101.911 49.8693 101.388 49.216C100.866 48.5533 100.604 47.648 100.604 46.5C100.604 45.268 100.898 44.344 101.486 43.728C102.074 43.112 102.9 42.804 103.964 42.804C104.319 42.804 104.664 42.8507 105 42.944C105.336 43.0373 105.635 43.1913 105.896 43.406C106.158 43.6207 106.368 43.91 106.526 44.274C106.685 44.638 106.764 45.0907 106.764 45.632C106.764 45.828 106.75 46.038 106.722 46.262C106.704 46.486 106.671 46.7193 106.624 46.962H102.424C102.452 47.55 102.602 47.9933 102.872 48.292C103.152 48.5907 103.6 48.74 104.216 48.74C104.599 48.74 104.94 48.684 105.238 48.572C105.546 48.4507 105.78 48.3293 105.938 48.208L106.54 49.398ZM103.936 44.26C103.46 44.26 103.106 44.4047 102.872 44.694C102.648 44.974 102.513 45.352 102.466 45.828H105.07C105.108 45.324 105.028 44.9367 104.832 44.666C104.646 44.3953 104.347 44.26 103.936 44.26ZM114.014 44.708C113.724 44.6053 113.463 44.554 113.23 44.554C112.903 44.554 112.628 44.6427 112.404 44.82C112.189 44.988 112.044 45.2073 111.97 45.478V50H110.15V43H111.564L111.774 43.924H111.83C111.988 43.5787 112.203 43.3127 112.474 43.126C112.744 42.9393 113.062 42.846 113.426 42.846C113.668 42.846 113.944 42.8973 114.252 43L114.014 44.708ZM120.056 48.068C120.056 47.8813 119.976 47.732 119.818 47.62C119.659 47.508 119.463 47.4053 119.23 47.312C118.996 47.2187 118.74 47.1253 118.46 47.032C118.18 46.9293 117.923 46.794 117.69 46.626C117.456 46.4487 117.26 46.2293 117.102 45.968C116.943 45.6973 116.864 45.352 116.864 44.932C116.864 44.2413 117.069 43.714 117.48 43.35C117.89 42.986 118.483 42.804 119.258 42.804C119.79 42.804 120.27 42.86 120.7 42.972C121.129 43.084 121.465 43.21 121.708 43.35L121.302 44.666C121.087 44.582 120.816 44.4933 120.49 44.4C120.163 44.3067 119.832 44.26 119.496 44.26C118.954 44.26 118.684 44.47 118.684 44.89C118.684 45.058 118.763 45.1933 118.922 45.296C119.08 45.3987 119.276 45.4967 119.51 45.59C119.743 45.674 120 45.7673 120.28 45.87C120.56 45.9727 120.816 46.108 121.05 46.276C121.283 46.4347 121.479 46.6447 121.638 46.906C121.796 47.1673 121.876 47.5033 121.876 47.914C121.876 48.6233 121.647 49.1833 121.19 49.594C120.742 49.9953 120.065 50.196 119.16 50.196C118.665 50.196 118.198 50.1307 117.76 50C117.33 49.8787 116.98 49.734 116.71 49.566L117.214 48.208C117.428 48.3293 117.713 48.4507 118.068 48.572C118.422 48.684 118.786 48.74 119.16 48.74C119.43 48.74 119.645 48.6887 119.804 48.586C119.972 48.4833 120.056 48.3107 120.056 48.068ZM125.318 43H127.138V50H125.318V43ZM125.052 41.026C125.052 40.7553 125.15 40.5267 125.346 40.34C125.551 40.144 125.831 40.046 126.186 40.046C126.541 40.046 126.825 40.144 127.04 40.34C127.264 40.5267 127.376 40.7553 127.376 41.026C127.376 41.2967 127.264 41.5253 127.04 41.712C126.825 41.8893 126.541 41.978 126.186 41.978C125.831 41.978 125.551 41.8893 125.346 41.712C125.15 41.5253 125.052 41.2967 125.052 41.026ZM130.296 43H131.262V41.684L133.082 41.166V43H134.79V44.54H133.082V47.228C133.082 47.7133 133.128 48.0633 133.222 48.278C133.324 48.4833 133.511 48.586 133.782 48.586C133.968 48.586 134.127 48.5673 134.258 48.53C134.398 48.4927 134.552 48.4367 134.72 48.362L135.042 49.762C134.79 49.8833 134.496 49.986 134.16 50.07C133.824 50.154 133.483 50.196 133.138 50.196C132.494 50.196 132.018 50.0327 131.71 49.706C131.411 49.37 131.262 48.824 131.262 48.068V44.54H130.296V43ZM140.225 46.934L140.477 48.026H140.561L140.743 46.92L141.807 43H143.683L141.555 49.314C141.377 49.8367 141.205 50.3127 141.037 50.742C140.878 51.1807 140.701 51.5587 140.505 51.876C140.309 52.1933 140.089 52.436 139.847 52.604C139.613 52.7813 139.333 52.87 139.007 52.87C138.521 52.87 138.134 52.7907 137.845 52.632L138.181 51.176C138.321 51.232 138.461 51.26 138.601 51.26C138.815 51.26 139.021 51.1667 139.217 50.98C139.422 50.8027 139.576 50.476 139.679 50L136.753 43H138.937L140.225 46.934Z" fill="#575757"/>
</svg>
