<svg width="25" height="25" viewBox="0 0 16 16" fill="none" xmlns="http://www.w3.org/2000/svg">
<path d="M13.3334 5.33341L8.00004 8.66675L2.66671 5.33341V4.00008L8.00004 7.33342L13.3334 4.00008M13.3334 2.66675H2.66671C1.92671 2.66675 1.33337 3.26008 1.33337 4.00008V12.0001C1.33337 12.3537 1.47385 12.6928 1.7239 12.9429C1.97395 13.1929 2.31309 13.3334 2.66671 13.3334H13.3334C13.687 13.3334 14.0261 13.1929 14.2762 12.9429C14.5262 12.6928 14.6667 12.3537 14.6667 12.0001V4.00008C14.6667 3.64646 14.5262 3.30732 14.2762 3.05727C14.0261 2.80722 13.687 2.66675 13.3334 2.66675Z" fill="#099797"/>
</svg>
