<svg width="92" height="17" viewBox="0 0 92 17" fill="none" xmlns="http://www.w3.org/2000/svg">
<path d="M0 14.98H14V0.98H0V14.98ZM20.257 8.89L19.487 7.35H19.417L19.641 8.89V14H17.821V4.13H19.221L22.931 9.352L23.673 10.85H23.743L23.519 9.352V4.2H25.339V14.07H23.939L20.257 8.89ZM26.3642 10.5C26.3642 9.31467 26.6535 8.40467 27.2322 7.77C27.8109 7.126 28.6229 6.804 29.6682 6.804C30.2282 6.804 30.7135 6.89267 31.1242 7.07C31.5349 7.24733 31.8755 7.49933 32.1462 7.826C32.4169 8.14333 32.6175 8.53067 32.7482 8.988C32.8882 9.44533 32.9582 9.94933 32.9582 10.5C32.9582 11.6853 32.6689 12.6 32.0902 13.244C31.5209 13.8787 30.7135 14.196 29.6682 14.196C29.1082 14.196 28.6229 14.1073 28.2122 13.93C27.8015 13.7527 27.4562 13.5053 27.1762 13.188C26.9055 12.8613 26.7002 12.4693 26.5602 12.012C26.4295 11.5547 26.3642 11.0507 26.3642 10.5ZM28.2402 10.5C28.2402 10.808 28.2682 11.0927 28.3242 11.354C28.3802 11.6153 28.4642 11.844 28.5762 12.04C28.6882 12.236 28.8329 12.39 29.0102 12.502C29.1969 12.6047 29.4162 12.656 29.6682 12.656C30.1442 12.656 30.4989 12.4833 30.7322 12.138C30.9655 11.7927 31.0822 11.2467 31.0822 10.5C31.0822 9.856 30.9749 9.338 30.7602 8.946C30.5455 8.54467 30.1815 8.344 29.6682 8.344C29.2202 8.344 28.8702 8.512 28.6182 8.848C28.3662 9.184 28.2402 9.73467 28.2402 10.5ZM33.2117 7H34.1777V5.684L35.9977 5.166V7H37.7057V8.54H35.9977V11.228C35.9977 11.7133 36.0444 12.0633 36.1377 12.278C36.2404 12.4833 36.4271 12.586 36.6977 12.586C36.8844 12.586 37.0431 12.5673 37.1737 12.53C37.3137 12.4927 37.4677 12.4367 37.6357 12.362L37.9577 13.762C37.7057 13.8833 37.4117 13.986 37.0757 14.07C36.7397 14.154 36.3991 14.196 36.0537 14.196C35.4097 14.196 34.9337 14.0327 34.6257 13.706C34.3271 13.37 34.1777 12.824 34.1777 12.068V8.54H33.2117V7ZM46.113 11.83H43.103L42.361 14H40.443L43.971 4.13H45.385L48.913 14H46.897L46.113 11.83ZM43.593 10.29H45.693L44.965 8.106L44.671 6.566H44.601L44.307 8.12L43.593 10.29ZM52.3356 12.068C52.3356 11.8813 52.2563 11.732 52.0976 11.62C51.9389 11.508 51.7429 11.4053 51.5096 11.312C51.2763 11.2187 51.0196 11.1253 50.7396 11.032C50.4596 10.9293 50.2029 10.794 49.9696 10.626C49.7363 10.4487 49.5403 10.2293 49.3816 9.968C49.2229 9.69733 49.1436 9.352 49.1436 8.932C49.1436 8.24133 49.3489 7.714 49.7596 7.35C50.1703 6.986 50.7629 6.804 51.5376 6.804C52.0696 6.804 52.5503 6.86 52.9796 6.972C53.4089 7.084 53.7449 7.21 53.9876 7.35L53.5816 8.666C53.3669 8.582 53.0963 8.49333 52.7696 8.4C52.4429 8.30667 52.1116 8.26 51.7756 8.26C51.2343 8.26 50.9636 8.47 50.9636 8.89C50.9636 9.058 51.0429 9.19333 51.2016 9.296C51.3603 9.39867 51.5563 9.49667 51.7896 9.59C52.0229 9.674 52.2796 9.76733 52.5596 9.87C52.8396 9.97267 53.0963 10.108 53.3296 10.276C53.5629 10.4347 53.7589 10.6447 53.9176 10.906C54.0763 11.1673 54.1556 11.5033 54.1556 11.914C54.1556 12.6233 53.9269 13.1833 53.4696 13.594C53.0216 13.9953 52.3449 14.196 51.4396 14.196C50.9449 14.196 50.4783 14.1307 50.0396 14C49.6103 13.8787 49.2603 13.734 48.9896 13.566L49.4936 12.208C49.7083 12.3293 49.9929 12.4507 50.3476 12.572C50.7023 12.684 51.0663 12.74 51.4396 12.74C51.7103 12.74 51.9249 12.6887 52.0836 12.586C52.2516 12.4833 52.3356 12.3107 52.3356 12.068ZM57.9619 12.068C57.9619 11.8813 57.8825 11.732 57.7239 11.62C57.5652 11.508 57.3692 11.4053 57.1359 11.312C56.9025 11.2187 56.6459 11.1253 56.3659 11.032C56.0859 10.9293 55.8292 10.794 55.5959 10.626C55.3625 10.4487 55.1665 10.2293 55.0079 9.968C54.8492 9.69733 54.7699 9.352 54.7699 8.932C54.7699 8.24133 54.9752 7.714 55.3859 7.35C55.7965 6.986 56.3892 6.804 57.1639 6.804C57.6959 6.804 58.1765 6.86 58.6059 6.972C59.0352 7.084 59.3712 7.21 59.6139 7.35L59.2079 8.666C58.9932 8.582 58.7225 8.49333 58.3959 8.4C58.0692 8.30667 57.7379 8.26 57.4019 8.26C56.8605 8.26 56.5899 8.47 56.5899 8.89C56.5899 9.058 56.6692 9.19333 56.8279 9.296C56.9865 9.39867 57.1825 9.49667 57.4159 9.59C57.6492 9.674 57.9059 9.76733 58.1859 9.87C58.4659 9.97267 58.7225 10.108 58.9559 10.276C59.1892 10.4347 59.3852 10.6447 59.5439 10.906C59.7025 11.1673 59.7819 11.5033 59.7819 11.914C59.7819 12.6233 59.5532 13.1833 59.0959 13.594C58.6479 13.9953 57.9712 14.196 57.0659 14.196C56.5712 14.196 56.1045 14.1307 55.6659 14C55.2365 13.8787 54.8865 13.734 54.6159 13.566L55.1199 12.208C55.3345 12.3293 55.6192 12.4507 55.9739 12.572C56.3285 12.684 56.6925 12.74 57.0659 12.74C57.3365 12.74 57.5512 12.6887 57.7099 12.586C57.8779 12.4833 57.9619 12.3107 57.9619 12.068ZM60.8441 7H62.6641V14H60.8441V7ZM60.5781 5.026C60.5781 4.75533 60.6761 4.52667 60.8721 4.34C61.0774 4.144 61.3574 4.046 61.7121 4.046C62.0668 4.046 62.3514 4.144 62.5661 4.34C62.7901 4.52667 62.9021 4.75533 62.9021 5.026C62.9021 5.29667 62.7901 5.52533 62.5661 5.712C62.3514 5.88933 62.0668 5.978 61.7121 5.978C61.3574 5.978 61.0774 5.88933 60.8721 5.712C60.6761 5.52533 60.5781 5.29667 60.5781 5.026ZM70.0919 14C70.0919 15.0173 69.8165 15.764 69.2659 16.24C68.7152 16.7253 67.9452 16.968 66.9559 16.968C66.2839 16.968 65.7519 16.9213 65.3599 16.828C64.9772 16.7347 64.6879 16.6367 64.4919 16.534L64.8699 15.092C65.0845 15.176 65.3319 15.26 65.6119 15.344C65.9012 15.428 66.2559 15.47 66.6759 15.47C67.3105 15.47 67.7399 15.33 67.9639 15.05C68.1972 14.7793 68.3139 14.3967 68.3139 13.902V13.454H68.2579C67.9312 13.8927 67.3525 14.112 66.5219 14.112C65.6165 14.112 64.9399 13.832 64.4919 13.272C64.0532 12.712 63.8339 11.8347 63.8339 10.64C63.8339 9.38933 64.1325 8.442 64.7299 7.798C65.3272 7.154 66.1952 6.832 67.3339 6.832C67.9312 6.832 68.4632 6.874 68.9299 6.958C69.4059 7.042 69.7932 7.14 70.0919 7.252V14ZM67.0119 12.656C67.3665 12.656 67.6372 12.5767 67.8239 12.418C68.0199 12.2593 68.1692 12.0213 68.2719 11.704V8.554C67.9825 8.43267 67.6232 8.372 67.1939 8.372C66.7272 8.372 66.3632 8.54933 66.1019 8.904C65.8405 9.24933 65.7099 9.80467 65.7099 10.57C65.7099 11.2513 65.8219 11.7693 66.0459 12.124C66.2699 12.4787 66.5919 12.656 67.0119 12.656ZM75.6797 14V10.024C75.6797 9.45467 75.5957 9.044 75.4277 8.792C75.2691 8.54 74.9937 8.414 74.6017 8.414C74.2564 8.414 73.9624 8.51667 73.7197 8.722C73.4864 8.918 73.3184 9.16533 73.2157 9.464V14H71.3957V7H72.8377L73.0477 7.924H73.1037C73.3184 7.62533 73.6031 7.364 73.9577 7.14C74.3124 6.916 74.7697 6.804 75.3297 6.804C75.6751 6.804 75.9831 6.85067 76.2537 6.944C76.5244 7.03733 76.7531 7.19133 76.9397 7.406C77.1264 7.62067 77.2664 7.91467 77.3597 8.288C77.4531 8.652 77.4997 9.10467 77.4997 9.646V14H75.6797ZM84.3446 13.398C84.0646 13.622 83.682 13.8133 83.1966 13.972C82.7206 14.1213 82.212 14.196 81.6706 14.196C80.5413 14.196 79.7153 13.8693 79.1926 13.216C78.67 12.5533 78.4086 11.648 78.4086 10.5C78.4086 9.268 78.7026 8.344 79.2906 7.728C79.8786 7.112 80.7046 6.804 81.7686 6.804C82.1233 6.804 82.4686 6.85067 82.8046 6.944C83.1406 7.03733 83.4393 7.19133 83.7006 7.406C83.962 7.62067 84.172 7.91 84.3306 8.274C84.4893 8.638 84.5686 9.09067 84.5686 9.632C84.5686 9.828 84.5546 10.038 84.5266 10.262C84.508 10.486 84.4753 10.7193 84.4286 10.962H80.2286C80.2566 11.55 80.406 11.9933 80.6766 12.292C80.9566 12.5907 81.4046 12.74 82.0206 12.74C82.4033 12.74 82.744 12.684 83.0426 12.572C83.3506 12.4507 83.584 12.3293 83.7426 12.208L84.3446 13.398ZM81.7406 8.26C81.2646 8.26 80.91 8.40467 80.6766 8.694C80.4526 8.974 80.3173 9.352 80.2706 9.828H82.8746C82.912 9.324 82.8326 8.93667 82.6366 8.666C82.45 8.39533 82.1513 8.26 81.7406 8.26ZM91.524 11.536C91.524 11.928 91.5287 12.32 91.538 12.712C91.5473 13.104 91.5893 13.538 91.664 14.014H90.362L90.11 13.104H90.054C89.8673 13.4307 89.5967 13.6967 89.242 13.902C88.8967 14.098 88.486 14.196 88.01 14.196C87.1327 14.196 86.4513 13.9067 85.966 13.328C85.4807 12.7493 85.238 11.844 85.238 10.612C85.238 9.41733 85.5087 8.48867 86.05 7.826C86.5913 7.16333 87.3847 6.832 88.43 6.832C88.7193 6.832 88.9573 6.85067 89.144 6.888C89.3307 6.916 89.5173 6.96733 89.704 7.042V4.2H91.524V11.536ZM88.43 12.656C88.7847 12.656 89.0647 12.572 89.27 12.404C89.4753 12.2267 89.62 11.9747 89.704 11.648V8.68C89.5733 8.57733 89.4287 8.50267 89.27 8.456C89.1113 8.4 88.906 8.372 88.654 8.372C88.1407 8.372 87.7533 8.54467 87.492 8.89C87.24 9.23533 87.114 9.828 87.114 10.668C87.114 11.2653 87.2167 11.746 87.422 12.11C87.6367 12.474 87.9727 12.656 88.43 12.656Z" fill="white"/>
</svg>
