<svg width="319" height="313" viewBox="0 0 319 313" fill="none" xmlns="http://www.w3.org/2000/svg">
<ellipse cx="159.5" cy="156.5" rx="159.5" ry="156.5" fill="#DCDCDC"/>
<path d="M264.062 212.973L283.439 226.427L243.779 253.804L225.094 227.537L255.366 187.049L263.872 212.719L263.924 212.877L264.062 212.973Z" fill="#099797" stroke="black"/>
<path d="M73.3743 194.633L81.7508 214.173L81.7734 214.225L81.8075 214.272L91.7906 227.809L66.8277 254.658L39.2827 220.771L59.3307 213.056L59.4647 213.005L59.5506 212.891L73.3743 194.633Z" fill="#099797" stroke="black"/>
<path d="M231.061 45.2349L231.064 45.2343C232.626 44.8734 234.25 44.8657 235.815 45.2118C237.381 45.5578 238.849 46.2488 240.111 47.2338C241.371 48.2202 242.393 49.475 243.102 50.9059C243.812 52.3369 244.19 53.9079 244.209 55.5033L244.209 55.505L245.516 138.801L245.516 138.801C245.776 154.751 242.205 170.531 235.101 184.827C227.997 199.123 217.565 211.521 204.674 220.988L164.147 250.681C162.351 251.997 160.186 252.723 157.955 252.757C155.724 252.791 153.538 252.131 151.701 250.871L110.262 222.425C97.0804 213.354 86.2647 201.28 78.7158 187.207C71.1669 173.134 67.1032 157.47 66.863 141.52L66.863 141.52L65.5567 58.2238L65.5566 58.2221C65.5262 56.6268 65.855 55.0451 66.5191 53.5932C67.1832 52.1414 68.1655 50.8561 69.3941 49.8318C70.6247 48.8089 72.0701 48.0736 73.6241 47.6801C75.1781 47.2865 76.8011 47.2448 78.3737 47.558L78.3767 47.5585C90.4808 49.8926 102.936 49.7352 114.975 47.0958C127.014 44.4565 138.382 39.3911 148.38 32.2115C150.156 30.9441 152.279 30.247 154.465 30.2137C156.651 30.1805 158.795 30.8126 160.61 32.0254C170.828 38.8974 182.35 43.6144 194.466 45.8861C206.582 48.1579 219.036 47.9362 231.061 45.2349ZM191.956 203.768L191.956 203.768C202.09 196.319 210.29 186.567 215.874 175.324C221.458 164.08 224.264 151.67 224.059 139.127L222.954 68.6892L222.946 68.1449L222.404 68.1994C199 70.5533 175.445 65.4962 155.091 53.748L154.832 53.5985L154.578 53.7558C134.601 66.1177 111.216 71.8892 87.7496 70.2486L87.2065 70.2106L87.215 70.755L88.3197 141.193C88.5077 153.736 91.7017 166.055 97.6356 177.123C103.57 188.192 112.072 197.689 122.435 204.826L122.435 204.826L157.29 228.787L157.582 228.989L157.869 228.779L191.956 203.768Z" fill="#099797" stroke="black"/>
<path d="M155.15 73.9565L157.159 202.028" stroke="black" stroke-width="0.5" stroke-linecap="round"/>
<path d="M212.867 135.964L99.4019 137.691" stroke="#191313" stroke-width="0.5" stroke-linecap="round"/>
<path d="M124.969 153.317C128.102 150.506 131.13 148.901 133.428 148.745L133.713 148.741C134.401 148.73 135 148.859 135.515 149.128L135.516 149.129C136.62 149.702 137.379 150.937 137.7 152.781C138.02 154.62 137.887 156.986 137.279 159.667L137.173 160.136L137.637 160.261C140.475 161.021 142.791 162.029 144.392 163.166C146.006 164.312 146.803 165.521 146.821 166.67C146.839 167.821 146.085 169.052 144.517 170.244C142.963 171.426 140.692 172.502 137.893 173.348L137.432 173.488L137.554 173.953C138.25 176.605 138.462 178.959 138.204 180.8C137.946 182.645 137.231 183.898 136.147 184.505C135.595 184.798 134.967 184.952 134.328 184.952L134.328 184.952L134.32 184.952C131.988 184.987 128.785 183.481 125.434 180.673L125.102 180.394L124.779 180.684C121.515 183.613 118.365 185.233 116.035 185.268C115.334 185.279 114.731 185.151 114.213 184.88L114.212 184.88C113.108 184.307 112.349 183.072 112.028 181.228C111.708 179.389 111.841 177.023 112.449 174.342L112.555 173.873L112.091 173.748C109.254 172.988 106.937 171.98 105.337 170.843C103.722 169.697 102.925 168.488 102.907 167.339C102.889 166.193 103.643 164.966 105.213 163.774C106.769 162.591 109.043 161.513 111.846 160.662L112.306 160.523L112.184 160.057C111.488 157.405 111.277 155.052 111.535 153.209C111.794 151.365 112.509 150.11 113.593 149.503C114.003 149.286 114.454 149.145 114.921 149.087L114.935 150.001C114.654 150.045 114.388 150.128 114.148 150.268C113.34 150.724 112.87 151.719 112.646 152.89C112.417 154.089 112.418 155.597 112.664 157.259L112.664 157.259L112.664 157.262C112.79 158.072 112.967 158.91 113.196 159.777L113.321 160.255L113.801 160.135C115.208 159.782 116.733 159.494 118.335 159.273L117.66 160.291C116.458 160.48 115.264 160.712 114.08 160.987L113.546 161.111L113.719 161.632C114.091 162.749 114.536 163.906 115.06 165.059L115.481 165.985L115.957 165.087C116.658 163.764 117.424 162.471 118.25 161.212L118.463 161.179L118.457 160.743L118.457 160.741L118.433 159.26C118.799 159.21 119.168 159.164 119.541 159.122L119.756 159.097L119.885 158.924C121 157.425 122.225 156 123.552 154.658L123.934 154.272L123.517 153.923C121.982 152.641 120.486 151.647 119.121 150.975C117.972 150.409 116.89 150.059 115.943 149.975L115.929 149.064C118.206 149.231 121.197 150.717 124.314 153.328L124.647 153.607L124.969 153.317ZM134.216 149.672L134.215 149.63L133.713 149.639C132.654 149.659 131.404 150.07 130.071 150.784C128.73 151.503 127.27 152.548 125.779 153.882L125.374 154.243L125.768 154.617C127.144 155.924 128.424 157.314 129.602 158.778L129.736 158.946L129.95 158.963C131.99 159.134 133.928 159.417 135.71 159.794L136.197 159.897L136.302 159.41C136.49 158.534 136.65 157.667 136.74 156.843C136.929 155.174 136.879 153.67 136.606 152.481C136.34 151.317 135.832 150.339 135.004 149.91L134.995 149.905L134.985 149.9C134.741 149.787 134.482 149.71 134.216 149.672ZM124.994 155.259L124.64 154.927L124.298 155.272C123.461 156.115 122.618 157.054 121.794 158.085L121.091 158.964L122.214 158.897C123.884 158.797 125.558 158.772 127.23 158.82L128.365 158.853L127.622 157.994C126.799 157.04 125.922 156.126 124.994 155.259ZM124.75 159.71L124.75 159.71C123.341 159.731 121.946 159.809 120.566 159.944L120.341 159.967L120.209 160.151C119.435 161.23 118.709 162.338 118.032 163.472L118.031 163.472C117.357 164.605 116.736 165.764 116.17 166.946L116.062 167.173L116.179 167.395C116.781 168.539 117.435 169.676 118.16 170.796L118.16 170.797C118.904 171.943 119.666 173.024 120.448 174.039L120.587 174.22L120.814 174.234C122.188 174.318 123.576 174.35 124.978 174.332L124.979 174.332C126.388 174.31 127.782 174.233 129.162 174.099L129.388 174.077L129.52 173.892C130.293 172.813 131.02 171.705 131.697 170.571L131.697 170.571L131.7 170.566C132.366 169.42 132.991 168.255 133.556 167.101L133.667 166.874L133.55 166.65C132.944 165.488 132.283 164.351 131.569 163.244L131.568 163.243C130.85 162.134 130.086 161.053 129.277 160L129.138 159.82L128.911 159.806C127.526 159.722 126.138 159.69 124.75 159.71ZM131.052 160.552L131.054 160.709L131.146 160.837C132.07 162.114 132.92 163.436 133.692 164.798L134.202 165.699L134.59 164.739C135.057 163.584 135.468 162.426 135.795 161.306L135.946 160.789L135.419 160.677C134.162 160.408 132.89 160.198 131.61 160.046L131.043 159.978L131.052 160.55L131.052 160.552ZM137.439 161.154L136.968 161.025L136.829 161.493C136.307 163.244 135.662 164.961 134.898 166.633L134.8 166.849L134.905 167.063C135.773 168.818 136.477 170.517 137.018 172.159L137.173 172.631L137.646 172.479C138.532 172.194 139.4 171.9 140.204 171.562C141.841 170.883 143.209 170.093 144.178 169.285C145.119 168.502 145.797 167.607 145.803 166.705L145.804 166.705L145.803 166.693C145.789 165.781 145.084 164.907 144.123 164.157C143.131 163.381 141.736 162.636 140.074 162.003L140.071 162.002C139.209 161.68 138.33 161.397 137.439 161.154ZM112.704 161.871L112.548 161.402L112.077 161.553C111.19 161.837 110.319 162.131 109.514 162.467C107.871 163.142 106.5 163.931 105.532 164.74C104.594 165.523 103.919 166.425 103.933 167.336C103.948 168.249 104.652 169.124 105.613 169.875C106.606 170.65 108.001 171.394 109.663 172.027L109.663 172.027C110.484 172.339 111.363 172.618 112.274 172.877L112.749 173.012L112.89 172.539C113.411 170.79 114.055 169.075 114.818 167.405L114.917 167.188L114.811 166.974C113.988 165.319 113.284 163.614 112.704 161.871ZM134.654 168.947L134.23 168.012L133.755 168.922C133.395 169.613 133.015 170.296 132.617 170.97C132.21 171.651 131.785 172.322 131.343 172.985L130.716 173.925L131.834 173.757C133.114 173.564 134.384 173.315 135.64 173.012L136.168 172.884L135.996 172.368C135.611 171.207 135.161 170.065 134.654 168.947ZM116.02 169.231L115.507 168.35L115.124 169.294C114.668 170.42 114.267 171.565 113.925 172.726L113.772 173.247L114.304 173.358C115.524 173.61 116.792 173.815 118.109 173.973L119.233 174.108L118.576 173.186C118.117 172.543 117.67 171.893 117.234 171.236C116.803 170.576 116.411 169.903 116.02 169.231ZM136.553 174.241L136.433 173.757L135.949 173.875C134.063 174.335 132.145 174.674 130.209 174.888L129.993 174.912L129.864 175.087C128.748 176.585 127.523 178.011 126.196 179.352L125.814 179.739L126.232 180.088C127.767 181.369 129.262 182.363 130.627 183.035C131.983 183.703 133.246 184.071 134.306 184.055C134.767 184.048 135.213 183.971 135.593 183.75C136.401 183.294 136.869 182.3 137.092 181.13C137.321 179.932 137.318 178.425 137.073 176.763L137.073 176.763L137.072 176.758C136.944 175.953 136.769 175.114 136.553 174.241ZM114.025 174.227L113.539 174.127L113.435 174.612C113.247 175.485 113.085 176.355 112.996 177.18C112.807 178.848 112.857 180.352 113.129 181.54C113.395 182.701 113.901 183.676 114.729 184.105C115.096 184.302 115.539 184.379 116.004 184.383L116.004 184.383L116.015 184.383C117.075 184.367 118.326 183.957 119.661 183.242C121.003 182.523 122.467 181.476 123.962 180.14L124.367 179.778L123.972 179.404C122.594 178.1 121.314 176.71 120.139 175.244L120.005 175.076L119.79 175.059C117.851 174.899 115.925 174.622 114.025 174.227ZM122.49 175.202L121.358 175.169L122.097 176.028C122.962 177.034 123.847 177.945 124.722 178.762L125.077 179.093L125.418 178.749C126.253 177.908 127.111 176.968 127.928 175.935L128.621 175.059L127.506 175.126C125.836 175.225 124.162 175.251 122.49 175.202ZM124.799 163.609C125.786 163.594 126.732 163.946 127.431 164.576C128.128 165.206 128.521 166.06 128.536 166.949C128.549 167.838 128.183 168.704 127.506 169.355C126.828 170.006 125.893 170.387 124.906 170.402C123.918 170.416 122.973 170.064 122.275 169.433C121.579 168.803 121.186 167.949 121.172 167.061C121.159 166.172 121.524 165.307 122.2 164.656C122.877 164.005 123.811 163.625 124.799 163.609Z" stroke="#099797"/>
<path d="M137.132 113.698L136.967 103.151L122.145 111.056C121.64 111.343 121.102 111.49 120.534 111.499C119.966 111.508 119.42 111.376 118.896 111.104L104.489 103.923C104.183 103.756 103.957 103.556 103.81 103.323C103.663 103.09 103.587 102.831 103.582 102.546C103.578 102.26 103.646 101.999 103.785 101.762C103.925 101.524 104.145 101.318 104.445 101.141L118.619 93.5453C118.87 93.4067 119.13 93.3023 119.398 93.2322C119.665 93.1621 119.945 93.1248 120.239 93.1203C120.533 93.1158 120.815 93.1459 121.083 93.2105C121.352 93.2751 121.614 93.3762 121.87 93.5136L138.136 101.55C138.424 101.683 138.648 101.878 138.808 102.134C138.968 102.391 139.05 102.668 139.055 102.967L139.223 113.666C139.227 113.946 139.131 114.183 138.933 114.376C138.735 114.569 138.489 114.668 138.193 114.673C137.898 114.677 137.647 114.586 137.442 114.399C137.237 114.212 137.134 113.978 137.132 113.698ZM119.046 120.67L109.806 116.106C109.264 115.826 108.832 115.435 108.507 114.932C108.183 114.434 108.016 113.891 108.007 113.305L107.91 107.147L118.919 112.594C119.434 112.865 119.976 112.996 120.544 112.987C121.112 112.979 121.653 112.83 122.169 112.542L133.001 106.763L133.098 112.927C133.107 113.521 132.958 114.072 132.649 114.579C132.341 115.083 131.921 115.483 131.39 115.779L122.295 120.62C122.041 120.763 121.779 120.871 121.51 120.945C121.241 121.02 120.963 121.059 120.677 121.063C120.391 121.068 120.113 121.037 119.841 120.971C119.57 120.905 119.305 120.805 119.046 120.67Z" fill="#099797"/>
<path d="M175.633 111.084C174.028 111.06 172.423 111.159 170.84 111.389C169.48 111.587 168.14 111.888 166.836 112.285C166.519 112.38 166.164 112.459 165.866 112.602C165.675 112.695 165.519 112.801 165.345 112.607C165.103 112.346 165.253 111.864 165.287 111.561C165.354 110.951 165.432 110.344 165.524 109.737C165.922 107.033 166.47 104.354 166.83 101.645C166.985 100.447 167.11 99.2401 167.259 98.0424C167.333 97.4258 167.418 96.8091 167.516 96.1953C167.637 95.4427 167.657 94.914 168.411 94.4481C169.695 93.6553 171.244 93.2901 172.724 92.9357C174.318 92.5538 175.91 92.2267 177.567 92.2595C178.727 92.2837 179.86 92.55 180.891 93.0338C181.391 93.2678 181.871 93.5441 182.326 93.8497C182.778 94.1489 183.328 94.4692 183.691 94.8568C184.014 95.1999 184.12 95.5141 184.157 95.8744C184.01 100.494 184.224 111.939 184.275 112.751C184.28 112.818 184.288 112.886 184.292 112.953C184.276 113.041 184.225 113.109 184.071 113.111C183.886 113.118 183.682 113.008 183.52 112.933C183.186 112.777 182.848 112.627 182.51 112.488C180.326 111.577 178.034 111.119 175.633 111.084ZM205.274 111.996C205.102 112.195 204.947 112.095 204.753 112.007C204.454 111.873 204.097 111.805 203.774 111.719C202.458 111.362 201.109 111.106 199.744 110.946C198.154 110.764 196.543 110.718 194.94 110.787C192.545 110.895 190.268 111.422 188.11 112.399C187.777 112.552 187.444 112.712 187.115 112.875C186.955 112.955 186.754 113.067 186.565 113.07C186.412 113.073 186.358 113.006 186.34 112.919C186.342 112.851 186.351 112.784 186.35 112.716C186.376 111.904 186.235 100.457 185.939 95.8441C185.965 95.4828 186.061 95.1655 186.37 94.8128C186.727 94.4143 187.263 94.0742 187.706 93.7646C188.152 93.4485 188.619 93.1546 189.114 92.9054C190.134 92.3904 191.254 92.0898 192.413 92.0303C194.068 91.9439 195.669 92.2256 197.275 92.5589C198.765 92.8681 200.325 93.1827 201.636 93.9393C202.405 94.3819 202.441 94.9098 202.586 95.6584C202.704 96.2688 202.808 96.8827 202.901 97.4967C203.084 98.6926 203.246 99.892 203.443 101.085C203.887 103.778 204.523 106.443 205.002 109.132C205.106 109.737 205.209 110.341 205.296 110.949C205.343 111.251 205.507 111.728 205.274 111.996Z" fill="white"/>
<path d="M205.25 113.573C205.265 113.157 205.444 111.991 205.434 111.765C205.367 108.869 203.313 99.3525 202.972 97.0317L202.951 96.8892C202.832 95.9779 202.775 94.8931 202.413 94.0361C202.048 93.1731 200.906 92.8871 200.082 92.5933C196.67 91.3959 192.823 90.4015 189.242 91.5566C187.843 92.0062 186.589 92.7897 185.591 94.0095C184.558 92.8206 183.277 92.0757 181.868 91.6688C178.252 90.6233 174.439 91.7343 171.066 93.0348C170.251 93.3506 169.113 93.6713 168.778 94.5479C168.443 95.4156 168.42 96.4986 168.33 97.4161L168.314 97.5591C168.045 99.8892 166.294 109.464 166.314 112.36C166.312 112.589 166.53 113.746 166.558 114.162C166.599 114.762 166.534 115.367 166.574 115.964C166.516 116.174 166.575 116.369 166.709 116.522C166.798 116.681 166.932 116.777 167.078 116.825C167.413 117.171 168.007 116.93 168.397 116.805C171.886 115.658 175.741 115.64 179.366 116.049C180.008 116.12 180.648 116.211 181.284 116.321C181.945 116.435 182.574 116.652 183.21 116.859C183.733 117.03 184.281 117.17 184.831 117.263C185.227 117.343 185.612 117.373 185.788 117.373C185.85 117.372 185.905 117.366 185.963 117.362C186.022 117.361 186.081 117.369 186.139 117.368C186.315 117.365 186.699 117.324 187.092 117.229C187.639 117.119 188.182 116.962 188.7 116.776C189.329 116.549 189.954 116.314 190.611 116.179C191.244 116.05 191.88 115.939 192.52 115.849C196.127 115.33 199.984 115.23 203.508 116.271C203.898 116.387 204.499 116.607 204.823 116.251C204.97 116.198 205.098 116.098 205.182 115.936C205.312 115.779 205.364 115.582 205.3 115.375C205.312 114.774 205.228 114.175 205.25 113.573ZM177.322 110.111C175.907 110.088 174.491 110.178 173.095 110.389C171.896 110.571 170.713 110.848 169.563 111.213C169.284 111.301 168.971 111.374 168.708 111.506C168.54 111.592 168.403 111.689 168.249 111.51C168.036 111.269 168.167 110.824 168.197 110.544C168.256 109.981 168.324 109.421 168.405 108.86C168.754 106.366 169.236 103.892 169.551 101.392C169.688 100.287 169.797 99.1725 169.927 98.067C169.992 97.4979 170.067 96.9287 170.153 96.3622C170.26 95.6676 170.277 95.1795 170.942 94.75C172.074 94.0189 173.44 93.6828 174.745 93.3566C176.151 93.005 177.554 92.7041 179.016 92.7354C180.039 92.7585 181.039 93.005 181.949 93.4522C182.39 93.6686 182.813 93.9239 183.215 94.2063C183.614 94.4828 184.099 94.7788 184.419 95.1368C184.705 95.4537 184.798 95.7437 184.831 96.0764C184.704 100.341 184.901 110.906 184.946 111.655C184.95 111.717 184.957 111.779 184.962 111.842C184.947 111.922 184.902 111.985 184.767 111.987C184.603 111.993 184.423 111.892 184.28 111.822C183.985 111.678 183.687 111.54 183.389 111.411C181.462 110.568 179.44 110.144 177.322 110.111ZM203.468 110.971C203.316 111.155 203.179 111.062 203.009 110.981C202.745 110.857 202.429 110.794 202.144 110.715C200.984 110.384 199.793 110.147 198.589 109.998C197.187 109.829 195.766 109.786 194.352 109.849C192.239 109.946 190.231 110.432 188.328 111.332C188.035 111.474 187.741 111.621 187.451 111.771C187.31 111.845 187.133 111.948 186.967 111.951C186.831 111.953 186.784 111.891 186.767 111.811C186.769 111.749 186.777 111.686 186.777 111.624C186.799 110.874 186.667 100.308 186.403 96.0495C186.425 95.716 186.51 95.4232 186.782 95.0978C187.097 94.7302 187.57 94.4166 187.96 94.1311C188.353 93.8396 188.765 93.5686 189.202 93.3388C190.101 92.8641 191.089 92.5874 192.111 92.5331C193.571 92.4544 194.983 92.7155 196.4 93.0241C197.714 93.3104 199.09 93.6018 200.247 94.301C200.926 94.7101 200.958 95.1974 201.086 95.8885C201.19 96.452 201.282 97.0187 201.365 97.5856C201.527 98.6896 201.671 99.7969 201.846 100.898C202.239 103.384 202.802 105.844 203.226 108.328C203.318 108.885 203.41 109.443 203.486 110.004C203.528 110.283 203.673 110.724 203.468 110.971Z" fill="#099797"/>
<path d="M182.253 96.0151C179.314 94.7392 175.382 94.7277 172.466 96.1284C171.696 96.5 172.391 97.5751 173.156 97.2274C175.637 96.0891 179.066 96.2034 181.509 97.2876C182.39 97.6757 183.137 96.4003 182.253 96.0151ZM182.215 99.4958C179.089 98.2287 175.088 97.7928 171.978 99.3987C171.303 99.7481 171.915 100.667 172.585 100.365C175.441 99.0813 178.897 99.7574 181.707 100.714C182.435 100.965 182.932 99.7853 182.215 99.4958ZM182.106 102.969C181.772 102.706 181.311 102.588 180.912 102.454C178.012 101.481 174.181 101.498 171.432 102.908C170.827 103.218 171.355 104.066 171.953 103.89C173.457 103.454 174.874 103.204 176.442 103.165C177.671 103.134 178.788 103.242 179.968 103.563C180.323 103.659 180.663 103.692 181.004 103.842C181.249 103.948 181.554 104.083 181.822 104.112C182.409 104.172 182.516 103.34 182.181 103.03L182.106 102.969ZM181.854 106.325C178.496 104.859 174.76 105.195 171.404 106.394C170.711 106.643 171.06 107.673 171.766 107.448C173.345 106.942 174.661 106.562 176.346 106.515C177.967 106.473 179.734 106.958 181.228 107.497C182.031 107.791 182.67 106.681 181.854 106.325ZM189.773 97.1589C192.18 96.0009 195.604 95.7852 198.12 96.8445C198.892 97.1718 199.556 96.0731 198.774 95.7251C195.82 94.4137 191.889 94.5449 188.992 95.9096C188.117 96.3245 188.901 97.5767 189.773 97.1589ZM189.685 100.593C192.464 99.551 195.897 98.77 198.791 99.9663C199.471 100.247 200.054 99.3105 199.368 98.9819C196.206 97.4714 192.221 98.0288 189.139 99.3904C188.432 99.7016 188.962 100.865 189.685 100.593ZM189.673 103.996C189.944 103.959 190.238 103.814 190.479 103.701C190.819 103.541 191.157 103.497 191.51 103.391C192.679 103.037 193.792 102.895 195.022 102.885C196.59 102.873 198.017 103.08 199.534 103.474C200.134 103.631 200.635 102.764 200.023 102.476C197.232 101.15 193.4 101.25 190.534 102.311C190.139 102.457 189.682 102.586 189.353 102.861L189.281 102.928C188.953 103.242 189.092 104.073 189.673 103.996ZM200.161 105.957C196.769 104.86 193.024 104.638 189.714 106.205C188.91 106.586 189.583 107.676 190.379 107.358C191.853 106.773 193.601 106.235 195.225 106.228C196.908 106.223 198.238 106.563 199.83 107.021C200.545 107.227 200.861 106.184 200.161 105.957Z" fill="#099797"/>
<path d="M148.607 108.992L148.935 129.95L127.661 130.273" stroke="#EBD561" stroke-width="0.5" stroke-linecap="round"/>
<path d="M148.607 108.992L148.935 129.95L127.661 130.273" stroke="#EBD561" stroke-width="3" stroke-linecap="round"/>
<path d="M161.65 163.979L161.192 141.723L183.545 141.275" stroke="#EBD561" stroke-width="3" stroke-linecap="round"/>
<path d="M198.979 154.808L198.997 155.973C199 156.127 198.944 156.276 198.842 156.387C198.74 156.497 198.601 156.561 198.455 156.563L196.8 156.588L196.814 157.461C196.821 157.944 196.457 158.34 196 158.347L168.973 158.759C168.516 158.766 168.14 158.38 168.132 157.898L168.119 157.025L166.464 157.05C166.318 157.052 166.176 156.993 166.071 156.885C165.966 156.778 165.906 156.631 165.903 156.476L165.885 155.312C165.883 155.197 165.914 155.084 165.973 154.987C166.032 154.89 166.117 154.814 166.217 154.769L182.112 148.122C182.246 148.061 182.398 148.058 182.534 148.115L198.63 154.276C198.731 154.318 198.819 154.391 198.881 154.486C198.943 154.581 198.977 154.693 198.979 154.808ZM197.671 176.955L167.887 177.408C166.973 177.422 166.244 178.215 166.259 179.18L166.278 180.344C166.28 180.498 166.34 180.646 166.446 180.753C166.551 180.861 166.692 180.92 166.838 180.918L198.829 180.431C198.975 180.429 199.115 180.365 199.216 180.254C199.318 180.144 199.374 179.995 199.371 179.84L199.353 178.676C199.338 177.712 198.585 176.941 197.671 176.955ZM171.474 159.885L171.693 173.857L169.211 173.894C168.754 173.901 168.389 174.298 168.397 174.78L168.42 176.235L197.101 175.799L197.078 174.344C197.071 173.861 196.694 173.476 196.237 173.483L193.755 173.521L193.536 159.549L189.124 159.616L189.343 173.588L184.93 173.655L184.711 159.684L180.299 159.751L180.518 173.722L176.105 173.789L175.886 159.818L171.474 159.885Z" fill="#099797"/>
<mask id="path-16-inside-1_2794_33996" fill="white">
<path d="M43.8679 235.806C57.1563 255.055 74.6724 270.738 94.964 281.554C115.256 292.37 137.738 298.008 160.547 298C183.356 297.992 205.835 292.339 226.12 281.509C246.405 270.679 263.911 254.984 277.187 235.726L247.943 213.991C237.994 228.422 224.875 240.184 209.674 248.299C194.473 256.415 177.628 260.652 160.535 260.657C143.443 260.663 126.595 256.438 111.389 248.333C96.1826 240.228 83.0564 228.475 73.0984 214.05L43.8679 235.806Z"/>
</mask>
<path d="M43.8679 235.806C57.1563 255.055 74.6724 270.738 94.964 281.554C115.256 292.37 137.738 298.008 160.547 298C183.356 297.992 205.835 292.339 226.12 281.509C246.405 270.679 263.911 254.984 277.187 235.726L247.943 213.991C237.994 228.422 224.875 240.184 209.674 248.299C194.473 256.415 177.628 260.652 160.535 260.657C143.443 260.663 126.595 256.438 111.389 248.333C96.1826 240.228 83.0564 228.475 73.0984 214.05L43.8679 235.806Z" fill="#099797" stroke="black" stroke-width="2" mask="url(#path-16-inside-1_2794_33996)"/>
</svg>
