<svg width="161" height="58" viewBox="0 0 161 58" fill="none" xmlns="http://www.w3.org/2000/svg">
<ellipse cx="29.5" cy="29" rx="29.5" ry="29" fill="#DCDCDC"/>
<path d="M48.6657 39.807L51.7749 41.9659L45.2436 46.4743L42.1895 42.181L47.1485 35.5485L48.4757 39.5536L48.528 39.7114L48.6657 39.807Z" fill="#099797" stroke="black"/>
<path d="M13.4886 36.8879L14.7607 39.8554L14.7833 39.908L14.8174 39.9542L16.4689 42.1938L12.3956 46.5748L7.94345 41.0975L11.1369 39.8686L11.2709 39.8171L11.3568 39.7036L13.4886 36.8879Z" fill="#099797" stroke="black"/>
<path d="M37.9577 41.0354C40.3568 39.2734 42.2983 36.9661 43.6204 34.3055C44.9425 31.6448 45.6071 28.708 45.5587 25.7394L45.3167 10.3143C45.3129 10.005 45.2396 9.70039 45.1021 9.42294C44.9646 9.14549 44.7664 8.90223 44.5221 8.71103M37.9577 41.0354L37.662 40.6321M37.9577 41.0354L37.6616 40.6324M37.9577 41.0354L30.4526 46.5342M37.662 40.6321C39.9969 38.9172 41.8861 36.6717 43.1726 34.0828C44.4592 31.4937 45.1058 28.6359 45.0587 25.7474L45.0587 25.7471L44.8168 10.3219L44.8168 10.3202C44.8139 10.0859 44.7584 9.85513 44.6541 9.64482C44.55 9.43471 44.3998 9.25027 44.2146 9.10514M37.662 40.6321C37.6619 40.6322 37.6617 40.6323 37.6616 40.6324M37.662 40.6321L37.6616 40.6324M44.2146 9.10514L44.5221 8.71103M44.2146 9.10514C44.2144 9.105 44.2142 9.10486 44.214 9.10472L44.5221 8.71103M44.2146 9.10514C44.0288 8.96017 43.8126 8.85837 43.5819 8.80737C43.3512 8.75637 43.1119 8.7575 42.8817 8.81068L42.8788 8.81137C40.5979 9.32374 38.2356 9.36577 35.9375 8.93487C33.6396 8.50402 31.4542 7.60943 29.5161 6.30606M44.5221 8.71103C44.2775 8.52013 43.993 8.38622 43.6896 8.31916C43.3862 8.2521 43.0716 8.25359 42.769 8.32352C40.5543 8.821 38.2608 8.86182 36.0294 8.44344C33.7981 8.02507 31.6762 7.15637 29.7944 5.89082M29.5161 6.30606C29.5163 6.3062 29.5165 6.30634 29.5167 6.30648L29.7944 5.89082M29.5161 6.30606C29.2489 6.1277 28.9332 6.03461 28.6112 6.03951C28.2892 6.04441 27.9766 6.14707 27.7152 6.33349M29.5161 6.30606C29.5159 6.30593 29.5157 6.3058 29.5155 6.30567L29.7944 5.89082M29.7944 5.89082C29.4425 5.65568 29.027 5.53313 28.6034 5.53957C28.1798 5.54602 27.7683 5.68116 27.424 5.92689M27.424 5.92689C25.5828 7.2491 23.4891 8.18196 21.272 8.66803C19.0548 9.1541 16.761 9.1831 14.5319 8.75324C14.2272 8.69256 13.9127 8.70064 13.6115 8.7769M27.424 5.92689L27.7146 6.33391C27.7148 6.33377 27.715 6.33363 27.7152 6.33349M27.424 5.92689L27.7158 6.33306C27.7156 6.3332 27.7154 6.33335 27.7152 6.33349M27.7152 6.33349C25.8188 7.6952 23.6626 8.65586 21.3793 9.15643C19.0957 9.65705 16.7333 9.68692 14.4374 9.24419L14.4344 9.24361C14.2027 9.19745 13.9635 9.2036 13.7345 9.2616L13.6115 8.7769M13.6115 8.7769L13.7345 9.2616C13.5056 9.31956 13.2928 9.4278 13.1118 9.57823C13.1119 9.57817 13.1119 9.5781 13.112 9.57804L12.7918 9.19392C13.0303 8.99566 13.3104 8.85316 13.6115 8.7769ZM30.4526 46.5342L30.1571 46.1308L37.6616 40.6324M30.4526 46.5342C30.1044 46.7892 29.6849 46.9298 29.2526 46.9364C28.8203 46.943 28.3967 46.8152 28.0406 46.5709L30.4526 46.5342ZM35.789 38.1002L35.7886 38.1004L29.4763 42.7319L29.19 42.942L28.8972 42.7407L22.4426 38.3035L22.4423 38.3033C20.4699 36.9449 18.8514 35.137 17.7218 33.03C16.5923 30.9231 15.9842 28.5781 15.9483 26.1901C15.9483 26.19 15.9483 26.1898 15.9483 26.1897M35.789 38.1002L16.4483 26.1825L15.9483 26.1897M35.789 38.1002C37.7179 36.6824 39.2788 34.8261 40.3418 32.6858C41.4048 30.5454 41.9391 28.1828 41.9 25.7948M35.789 38.1002L41.9 25.7948M15.9483 26.1897L15.7438 13.146L15.7352 12.6016L16.2783 12.6396C20.5389 12.9375 24.7846 11.8896 28.4112 9.64534L28.6653 9.48808L28.9242 9.63753C32.6195 11.7704 36.8961 12.6885 41.1452 12.2612L41.6869 12.2067L41.6954 12.751L41.9 25.7948M15.9483 26.1897L41.9 25.7948M41.9 25.7948L41.4 25.8027L41.9 25.7951L41.9 25.7948Z" fill="#099797" stroke="black"/>
<path d="M28.7318 13.7327L29.1037 37.4496" stroke="black" stroke-width="0.5" stroke-linecap="round"/>
<path d="M39.4198 25.2156L18.4077 25.5353" stroke="#191313" stroke-width="0.5" stroke-linecap="round"/>
<path d="M23.1175 30.7423C23.2012 30.7412 23.2755 30.7714 23.3254 30.8165C23.3742 30.8606 23.3948 30.9132 23.3956 30.9602L23.8955 30.9521L23.3956 30.9594C23.3963 31.0064 23.3774 31.0596 23.33 31.1052L23.6543 31.4427L23.33 31.1052C23.2815 31.1518 23.2082 31.1843 23.1244 31.1857C23.0408 31.1867 22.9666 31.1565 22.9167 31.1114C22.868 31.0673 22.8474 31.0147 22.8467 30.9678L22.3467 30.9756L22.8467 30.9683C22.846 30.9213 22.8649 30.8681 22.9122 30.8226C22.9602 30.7764 23.0332 30.7439 23.1175 30.7423Z" stroke="#099797"/>
<path d="M25.3947 21.0922L25.3641 19.1391L22.6194 20.603C22.5257 20.6561 22.4262 20.6834 22.3209 20.685C22.2158 20.6866 22.1148 20.6622 22.0177 20.6118L19.3496 19.282C19.2931 19.2511 19.2512 19.214 19.2239 19.1709C19.1967 19.1278 19.1826 19.0798 19.1818 19.0269C19.181 18.9741 19.1935 18.9257 19.2194 18.8818C19.2453 18.8378 19.286 18.7995 19.3415 18.7669L21.9663 17.3602C22.0129 17.3345 22.061 17.3152 22.1106 17.3022C22.16 17.2892 22.2119 17.2823 22.2664 17.2815C22.3208 17.2807 22.3729 17.2862 22.4227 17.2982C22.4725 17.3102 22.521 17.3289 22.5684 17.3544L25.5806 18.8426C25.6339 18.8672 25.6754 18.9033 25.705 18.9508C25.7347 18.9983 25.75 19.0497 25.7508 19.105L25.7819 21.0863C25.7827 21.1382 25.7648 21.182 25.7282 21.2178C25.6916 21.2536 25.6459 21.2719 25.5912 21.2727C25.5365 21.2735 25.4901 21.2566 25.4521 21.222C25.4141 21.1873 25.395 21.1441 25.3947 21.0922ZM22.0454 22.3833L20.3343 21.538C20.234 21.4862 20.1539 21.4138 20.0938 21.3208C20.0338 21.2285 20.0029 21.128 20.0012 21.0194L19.9833 19.879L22.022 20.8877C22.1173 20.9379 22.2176 20.9622 22.3229 20.9606C22.428 20.959 22.5282 20.9315 22.6237 20.8782L24.6298 19.808L24.6477 20.9494C24.6494 21.0595 24.6217 21.1615 24.5646 21.2553C24.5074 21.3487 24.4297 21.4228 24.3314 21.4776L22.6472 22.3741C22.6001 22.4005 22.5516 22.4206 22.5017 22.4343C22.4518 22.448 22.4004 22.4553 22.3475 22.4561C22.2946 22.4569 22.243 22.4512 22.1927 22.439C22.1424 22.4268 22.0933 22.4082 22.0454 22.3833Z" fill="#099797"/>
<path d="M32.5242 20.6082C32.2271 20.6038 31.9297 20.622 31.6366 20.6647C31.3849 20.7013 31.1366 20.757 30.8951 20.8305C30.8365 20.8481 30.7707 20.8628 30.7155 20.8893C30.6802 20.9066 30.6514 20.9261 30.6191 20.8902C30.5744 20.8419 30.6021 20.7526 30.6083 20.6964C30.6208 20.5834 30.6352 20.471 30.6522 20.3586C30.7259 19.858 30.8274 19.3618 30.894 18.8602C30.9229 18.6383 30.9459 18.4148 30.9735 18.193C30.9872 18.0788 31.0029 17.9646 31.0212 17.851C31.0436 17.7116 31.0472 17.6137 31.1869 17.5274C31.4247 17.3806 31.7116 17.313 31.9855 17.2473C32.2808 17.1766 32.5755 17.116 32.8823 17.1221C33.0972 17.1266 33.307 17.1759 33.498 17.2655C33.5906 17.3088 33.6794 17.36 33.7637 17.4166C33.8474 17.472 33.9493 17.5313 34.0164 17.6031C34.0763 17.6666 34.096 17.7248 34.1029 17.7915C34.0755 18.6471 34.1152 20.7666 34.1247 20.9168C34.1255 20.9293 34.127 20.9418 34.1279 20.9543C34.1249 20.9705 34.1154 20.9832 34.0869 20.9836C34.0526 20.9847 34.0148 20.9644 33.9848 20.9505C33.9229 20.9217 33.8603 20.894 33.7978 20.8681C33.3933 20.6994 32.9688 20.6145 32.5242 20.6082ZM38.0133 20.7771C37.9815 20.8139 37.9528 20.7953 37.9169 20.7791C37.8615 20.7543 37.7953 20.7416 37.7356 20.7258C37.4919 20.6597 37.242 20.6122 36.9892 20.5826C36.6949 20.5489 36.3965 20.5403 36.0997 20.5532C35.6561 20.573 35.2344 20.6708 34.8348 20.8517C34.7731 20.8801 34.7115 20.9096 34.6505 20.9398C34.6209 20.9546 34.5837 20.9754 34.5488 20.976C34.5203 20.9764 34.5104 20.964 34.5069 20.948C34.5074 20.9354 34.5091 20.9229 34.5089 20.9103C34.5137 20.7599 34.4876 18.6402 34.4328 17.7859C34.4375 17.719 34.4554 17.6603 34.5126 17.595C34.5787 17.5212 34.678 17.4582 34.76 17.4008C34.8425 17.3423 34.929 17.2879 35.0208 17.2417C35.2096 17.1464 35.4171 17.0907 35.6317 17.0797C35.9382 17.0637 36.2347 17.1159 36.532 17.1776C36.8079 17.2348 37.0968 17.2931 37.3397 17.4332C37.482 17.5152 37.4887 17.6129 37.5155 17.7515C37.5373 17.8646 37.5566 17.9783 37.5739 18.092C37.6078 18.3134 37.6378 18.5356 37.6743 18.7564C37.7565 19.2552 37.8742 19.7487 37.9629 20.2467C37.9822 20.3586 38.0014 20.4705 38.0174 20.5831C38.026 20.639 38.0565 20.7275 38.0133 20.7771Z" fill="white"/>
<path d="M38.0098 21.0691C38.0125 20.992 38.0457 20.7761 38.0439 20.7343C38.0315 20.198 37.6511 18.4356 37.5879 18.0059L37.5841 17.9795C37.562 17.8107 37.5514 17.6098 37.4844 17.4511C37.4169 17.2913 37.2054 17.2383 37.0528 17.1839C36.4209 16.9622 35.7086 16.778 35.0453 16.9919C34.7864 17.0752 34.5541 17.2203 34.3693 17.4462C34.1781 17.226 33.9407 17.0881 33.6799 17.0127C33.0102 16.8191 32.304 17.0248 31.6794 17.2657C31.5285 17.3242 31.3177 17.3836 31.2558 17.5459C31.1938 17.7066 31.1895 17.9071 31.1728 18.077L31.1698 18.1035C31.12 18.535 30.7957 20.3081 30.7995 20.8445C30.7991 20.8869 30.8395 21.1011 30.8447 21.1782C30.8522 21.2893 30.8402 21.4013 30.8477 21.5119C30.8369 21.5506 30.8477 21.5868 30.8727 21.6151C30.8891 21.6446 30.9139 21.6624 30.9409 21.6713C31.003 21.7354 31.113 21.6907 31.1851 21.6676C31.8313 21.4551 32.5452 21.4519 33.2165 21.5276C33.3354 21.5407 33.4538 21.5576 33.5717 21.5779C33.6942 21.5991 33.8107 21.6392 33.9283 21.6776C34.0252 21.7092 34.1266 21.7352 34.2285 21.7524C34.3018 21.7672 34.3732 21.7728 34.4057 21.7728C34.4172 21.7727 34.4274 21.7714 34.4382 21.7707C34.4491 21.7705 34.46 21.772 34.4708 21.7718C34.5033 21.7713 34.5745 21.7636 34.6473 21.746C34.7486 21.7257 34.8492 21.6967 34.9451 21.6622C35.0614 21.6202 35.1772 21.5766 35.2989 21.5516C35.4161 21.5278 35.5339 21.5072 35.6524 21.4906C36.3203 21.3945 37.0346 21.3759 37.6871 21.5687C37.7594 21.5901 37.8708 21.6309 37.9308 21.565C37.958 21.5552 37.9817 21.5366 37.9972 21.5067C38.0213 21.4776 38.031 21.4411 38.019 21.4028C38.0212 21.2915 38.0058 21.1804 38.0098 21.0691ZM32.838 20.4279C32.5759 20.4236 32.3136 20.4403 32.0551 20.4795C31.8331 20.5132 31.6141 20.5644 31.4012 20.6321C31.3495 20.6483 31.2915 20.6619 31.2428 20.6863C31.2117 20.7022 31.1863 20.7202 31.1578 20.687C31.1183 20.6425 31.1426 20.56 31.1481 20.5082C31.159 20.4039 31.1717 20.3001 31.1866 20.1964C31.2513 19.7343 31.3405 19.2764 31.3989 18.8133C31.4242 18.6086 31.4444 18.4023 31.4686 18.1976C31.4806 18.0922 31.4944 17.9868 31.5104 17.8819C31.5301 17.7532 31.5333 17.6629 31.6564 17.5833C31.866 17.4479 32.1191 17.3857 32.3607 17.3253C32.621 17.2602 32.881 17.2044 33.1516 17.2102C33.3412 17.2145 33.5262 17.2602 33.6948 17.343C33.7764 17.383 33.8548 17.4303 33.9292 17.4826C34.0031 17.5338 34.093 17.5886 34.1522 17.6549C34.2051 17.7136 34.2225 17.7673 34.2286 17.8289C34.205 18.6186 34.2414 20.5751 34.2499 20.7138C34.2506 20.7253 34.2519 20.7369 34.2527 20.7484C34.2501 20.7634 34.2417 20.775 34.2166 20.7754C34.1864 20.7764 34.153 20.7577 34.1265 20.7449C34.0719 20.7181 34.0167 20.6925 33.9615 20.6686C33.6046 20.5126 33.2301 20.4341 32.838 20.4279ZM37.6797 20.5872C37.6517 20.6212 37.6264 20.604 37.5947 20.5891C37.5459 20.5661 37.4875 20.5543 37.4347 20.5397C37.2197 20.4786 36.9993 20.4345 36.7763 20.4071C36.5167 20.3758 36.2534 20.3677 35.9917 20.3794C35.6004 20.3974 35.2286 20.4874 34.8762 20.6541C34.8218 20.6803 34.7674 20.7076 34.7137 20.7354C34.6876 20.749 34.6548 20.7682 34.624 20.7687C34.5989 20.7691 34.5902 20.7576 34.5871 20.7428C34.5875 20.7312 34.589 20.7196 34.5888 20.7081C34.5929 20.5692 34.5685 18.6125 34.5196 17.824C34.5238 17.7622 34.5395 17.708 34.5899 17.6477C34.6482 17.5796 34.7357 17.5216 34.808 17.4687C34.8807 17.4147 34.957 17.3645 35.0379 17.322C35.2044 17.2341 35.3873 17.1828 35.5767 17.1728C35.847 17.1582 36.1086 17.2066 36.3709 17.2637C36.6142 17.3167 36.8691 17.3707 37.0834 17.5002C37.209 17.5759 37.215 17.6662 37.2387 17.7941C37.258 17.8985 37.2751 18.0035 37.2904 18.1084C37.3205 18.3129 37.3471 18.5179 37.3794 18.7218C37.4522 19.1823 37.5564 19.6378 37.635 20.0977C37.652 20.201 37.669 20.3043 37.6832 20.4082C37.6909 20.4598 37.7178 20.5415 37.6797 20.5872Z" fill="#099797"/>
<path d="M33.7508 17.8176C33.2066 17.5813 32.4783 17.5792 31.9385 17.8386C31.7958 17.9074 31.9244 18.1065 32.0661 18.0421C32.5257 17.8313 33.1607 17.8525 33.613 18.0532C33.7762 18.1251 33.9146 17.8889 33.7508 17.8176ZM33.7438 18.4621C33.1648 18.2275 32.4239 18.1468 31.8481 18.4442C31.723 18.5089 31.8364 18.679 31.9605 18.6231C32.4893 18.3854 33.1293 18.5106 33.6498 18.6878C33.7846 18.7342 33.8765 18.5158 33.7438 18.4621ZM33.7237 19.1053C33.6618 19.0566 33.5764 19.0348 33.5024 19.01C32.9654 18.8298 32.256 18.8329 31.747 19.094C31.6349 19.1514 31.7327 19.3085 31.8435 19.276C32.1219 19.1952 32.3843 19.1488 32.6746 19.1416C32.9023 19.1359 33.1092 19.1559 33.3276 19.2154C33.3935 19.2331 33.4564 19.2393 33.5196 19.267C33.565 19.2867 33.6213 19.3117 33.6711 19.317C33.7797 19.328 33.7995 19.1741 33.7375 19.1166L33.7237 19.1053ZM33.6769 19.7267C33.0551 19.4553 32.3632 19.5176 31.7417 19.7397C31.6135 19.7857 31.6781 19.9764 31.8087 19.9347C32.1012 19.841 32.3449 19.7707 32.657 19.7621C32.9571 19.7542 33.2844 19.844 33.561 19.9439C33.7097 19.9983 33.828 19.7927 33.6769 19.7267ZM35.1433 18.0294C35.5891 17.8149 36.2232 17.775 36.6891 17.9712C36.8322 18.0318 36.9551 17.8283 36.8103 17.7639C36.2631 17.521 35.5353 17.5453 34.9987 17.798C34.8367 17.8749 34.9819 18.1068 35.1433 18.0294ZM35.1271 18.6653C35.6417 18.4724 36.2775 18.3277 36.8135 18.5493C36.9393 18.6013 37.0473 18.4278 36.9202 18.367C36.3348 18.0873 35.5967 18.1905 35.026 18.4426C34.895 18.5003 34.9932 18.7158 35.1271 18.6653ZM35.125 19.2954C35.1751 19.2886 35.2294 19.2619 35.2742 19.2408C35.3371 19.2112 35.3997 19.2031 35.4651 19.1834C35.6815 19.1179 35.8877 19.0916 36.1154 19.0898C36.4059 19.0876 36.6701 19.126 36.9509 19.1988C37.0621 19.228 37.1549 19.0674 37.0416 19.014C36.5247 18.7685 35.815 18.787 35.2844 18.9835C35.2112 19.0105 35.1266 19.0343 35.0657 19.0854L35.0522 19.0977C34.9915 19.1559 35.0173 19.3097 35.125 19.2954ZM37.0672 19.6586C36.439 19.4556 35.7455 19.4143 35.1325 19.7046C34.9835 19.7752 35.1082 19.9771 35.2557 19.9181C35.5285 19.8098 35.8523 19.7102 36.1531 19.7089C36.4647 19.708 36.7111 19.7709 37.0058 19.8556C37.1382 19.8938 37.1968 19.7007 37.0672 19.6586Z" fill="#099797"/>
<path d="M27.52 20.2208L27.5808 24.1018L23.6411 24.1617" stroke="#EBD561" stroke-width="0.5" stroke-linecap="round"/>
<path d="M27.52 20.2208L27.5808 24.1018L23.6411 24.1617" stroke="#EBD561" stroke-width="0.5" stroke-linecap="round"/>
<path d="M29.9347 30.4035L29.85 26.2819L33.9893 26.199" stroke="#EBD561" stroke-width="0.5" stroke-linecap="round"/>
<path d="M36.8476 28.7053L36.851 28.9209C36.8515 28.9495 36.8411 28.9771 36.8223 28.9976C36.8035 29.0181 36.7777 29.0298 36.7506 29.0302L36.4442 29.0349L36.4467 29.1966C36.4481 29.2859 36.3806 29.3594 36.296 29.3606L31.2911 29.4368C31.2065 29.4381 31.1367 29.3667 31.1353 29.2774L31.1328 29.1157L30.8264 29.1204C30.7993 29.1208 30.7731 29.1098 30.7536 29.0899C30.7342 29.07 30.723 29.0427 30.7225 29.0141L30.7191 28.7985C30.7188 28.7772 30.7245 28.7563 30.7354 28.7384C30.7464 28.7205 30.7621 28.7064 30.7807 28.698L33.7242 27.467C33.749 27.4557 33.7771 27.4553 33.8023 27.4658L36.783 28.6066C36.8018 28.6145 36.818 28.6281 36.8295 28.6456C36.841 28.6632 36.8473 28.6839 36.8476 28.7053ZM36.6055 32.8065L31.0898 32.8904C30.9206 32.893 30.7857 33.0399 30.7885 33.2185L30.7918 33.4341C30.7923 33.4627 30.8035 33.49 30.823 33.5099C30.8424 33.5298 30.8686 33.5408 30.8957 33.5404L36.8199 33.4502C36.847 33.4498 36.8728 33.438 36.8916 33.4175C36.9105 33.397 36.9208 33.3694 36.9203 33.3408L36.917 33.1252C36.9142 32.9466 36.7747 32.8039 36.6055 32.8065ZM31.7541 29.6454L31.7947 32.2327L31.335 32.2397C31.2504 32.241 31.1829 32.3145 31.1843 32.4038L31.1886 32.6733L36.4999 32.5924L36.4957 32.3229C36.4943 32.2336 36.4246 32.1623 36.34 32.1636L35.8803 32.1705L35.8398 29.5832L35.0226 29.5957L35.0632 32.183L34.2461 32.1954L34.2055 29.6081L33.3884 29.6206L33.4289 32.2079L32.6118 32.2203L32.5712 29.633L31.7541 29.6454Z" fill="#099797"/>
<mask id="path-16-inside-1_299_266" fill="white">
<path d="M7.96167 43.5212C10.4156 47.0739 13.6503 49.9683 17.3975 51.9646C21.1448 53.9609 25.2966 55.0014 29.5087 55C33.7209 54.9986 37.872 53.9552 41.618 51.9563C45.3639 49.9575 48.5968 47.0608 51.0485 43.5065L45.648 39.4949C43.8107 42.1585 41.3881 44.3292 38.581 45.8271C35.7738 47.3249 32.663 48.1068 29.5065 48.1079C26.35 48.109 23.2388 47.3292 20.4307 45.8333C17.6226 44.3373 15.1986 42.1683 13.3596 39.5059L7.96167 43.5212Z"/>
</mask>
<path d="M7.96167 43.5212C10.4156 47.0739 13.6503 49.9683 17.3975 51.9646C21.1448 53.9609 25.2966 55.0014 29.5087 55C33.7209 54.9986 37.872 53.9552 41.618 51.9563C45.3639 49.9575 48.5968 47.0608 51.0485 43.5065L45.648 39.4949C43.8107 42.1585 41.3881 44.3292 38.581 45.8271C35.7738 47.3249 32.663 48.1068 29.5065 48.1079C26.35 48.109 23.2388 47.3292 20.4307 45.8333C17.6226 44.3373 15.1986 42.1683 13.3596 39.5059L7.96167 43.5212Z" fill="#099797" stroke="black" stroke-width="2" mask="url(#path-16-inside-1_299_266)"/>
<path d="M78.6094 18.25C78.6094 16.5833 78.2969 15.4219 77.6719 14.7656C77.0573 14.099 75.9688 13.7656 74.4062 13.7656H73.1719V23.0625H74.4688C75.9167 23.0625 76.9688 22.6979 77.625 21.9688C78.2812 21.2396 78.6094 20 78.6094 18.25ZM73.1719 24.7812V31.4375L76.6562 31.8594V33H65.75V31.8594L68.2344 31.4375V13.5938L65.5469 13.1875V12.0469H74.7812C77.75 12.0469 79.9688 12.5469 81.4375 13.5469C82.9062 14.5365 83.6406 16.0938 83.6406 18.2188C83.6406 22.5938 81.0885 24.7812 75.9844 24.7812H73.1719ZM91.1256 21.3594C92.2506 20.1094 93.2558 19.2135 94.1413 18.6719C95.0371 18.1198 95.8548 17.8438 96.5944 17.8438H97.4381V23.2031H96.5631L95.6413 21.2344C94.985 21.2344 94.2402 21.3802 93.4069 21.6719C92.5735 21.9531 91.8392 22.2865 91.2038 22.6719V31.5938L93.5631 31.9688V33H84.7819V31.9688L86.6881 31.5938V19.7188L84.7819 19.3438V18.3125H90.9538L91.1256 21.3594ZM111.689 25.5781C111.689 28.2135 111.121 30.1615 109.986 31.4219C108.861 32.6823 107.137 33.3125 104.814 33.3125C102.564 33.3125 100.887 32.6771 99.7825 31.4062C98.6783 30.125 98.1262 28.1823 98.1262 25.5781C98.1262 22.9844 98.6835 21.0625 99.7981 19.8125C100.923 18.5521 102.637 17.9219 104.939 17.9219C107.262 17.9219 108.965 18.5729 110.048 19.875C111.142 21.1667 111.689 23.0677 111.689 25.5781ZM107.111 25.5781C107.111 23.2865 106.939 21.7031 106.595 20.8281C106.262 19.9427 105.678 19.5 104.845 19.5C104.043 19.5 103.486 19.9219 103.173 20.7656C102.861 21.6094 102.704 23.2135 102.704 25.5781C102.704 27.9844 102.861 29.6146 103.173 30.4688C103.496 31.3229 104.053 31.75 104.845 31.75C105.668 31.75 106.251 31.3021 106.595 30.4062C106.939 29.5 107.111 27.8906 107.111 25.5781ZM119.111 33.3125C117.705 33.3125 116.616 32.9948 115.846 32.3594C115.085 31.724 114.705 30.8073 114.705 29.6094V19.9375H112.783V18.9219L115.049 18.3125L116.877 14.9844H119.221V18.3125H122.314V19.9375H119.221V29.3281C119.221 30.0052 119.361 30.5156 119.643 30.8594C119.924 31.2031 120.294 31.375 120.752 31.375C121.304 31.375 121.981 31.2917 122.783 31.125V32.4531C122.471 32.6719 121.934 32.8698 121.174 33.0469C120.424 33.224 119.736 33.3125 119.111 33.3125ZM137.065 25.5781C137.065 28.2135 136.497 30.1615 135.362 31.4219C134.237 32.6823 132.513 33.3125 130.19 33.3125C127.94 33.3125 126.263 32.6771 125.159 31.4062C124.055 30.125 123.502 28.1823 123.502 25.5781C123.502 22.9844 124.06 21.0625 125.174 19.8125C126.299 18.5521 128.013 17.9219 130.315 17.9219C132.638 17.9219 134.341 18.5729 135.424 19.875C136.518 21.1667 137.065 23.0677 137.065 25.5781ZM132.487 25.5781C132.487 23.2865 132.315 21.7031 131.971 20.8281C131.638 19.9427 131.055 19.5 130.221 19.5C129.419 19.5 128.862 19.9219 128.549 20.7656C128.237 21.6094 128.081 23.2135 128.081 25.5781C128.081 27.9844 128.237 29.6146 128.549 30.4688C128.872 31.3229 129.43 31.75 130.221 31.75C131.044 31.75 131.627 31.3021 131.971 30.4062C132.315 29.5 132.487 27.8906 132.487 25.5781ZM144.425 19.5938L145.488 19.0469C146.946 18.2969 148.258 17.9219 149.425 17.9219C152.133 17.9219 153.488 19.3646 153.488 22.25V31.5938L154.956 31.9688V33H147.659V31.9688L148.972 31.5938V22.8594C148.972 21.9844 148.784 21.3021 148.409 20.8125C148.045 20.3229 147.519 20.0781 146.831 20.0781C146.04 20.0781 145.248 20.2552 144.456 20.6094V31.5938L145.8 31.9688V33H138.503V31.9688L139.941 31.5938V19.7188L138.503 19.3438V18.3125H144.206L144.425 19.5938Z" fill="#3E3B3B"/>
<path d="M71.16 40.2H72.98V46.528C72.98 47.1627 72.896 47.7087 72.728 48.166C72.56 48.6233 72.3267 49.0013 72.028 49.3C71.7293 49.5987 71.3653 49.818 70.936 49.958C70.5067 50.098 70.0353 50.168 69.522 50.168C67.0393 50.168 65.798 49.034 65.798 46.766V40.2H67.716V46.388C67.716 46.7707 67.7487 47.0973 67.814 47.368C67.8887 47.6293 68.0007 47.844 68.15 48.012C68.2993 48.1707 68.486 48.2873 68.71 48.362C68.934 48.4273 69.1953 48.46 69.494 48.46C70.082 48.46 70.5067 48.2967 70.768 47.97C71.0293 47.6433 71.16 47.116 71.16 46.388V40.2ZM80.9593 50V46.024C80.9593 45.4547 80.8753 45.044 80.7073 44.792C80.5487 44.54 80.2733 44.414 79.8813 44.414C79.536 44.414 79.242 44.5167 78.9993 44.722C78.766 44.918 78.598 45.1653 78.4953 45.464V50H76.6753V43H78.1173L78.3273 43.924H78.3833C78.598 43.6253 78.8827 43.364 79.2373 43.14C79.592 42.916 80.0493 42.804 80.6093 42.804C80.9547 42.804 81.2627 42.8507 81.5333 42.944C81.804 43.0373 82.0327 43.1913 82.2193 43.406C82.406 43.6207 82.546 43.9147 82.6393 44.288C82.7327 44.652 82.7793 45.1047 82.7793 45.646V50H80.9593ZM86.5583 43H88.3783V50H86.5583V43ZM86.2923 41.026C86.2923 40.7553 86.3903 40.5267 86.5863 40.34C86.7916 40.144 87.0716 40.046 87.4263 40.046C87.7809 40.046 88.0656 40.144 88.2803 40.34C88.5043 40.5267 88.6163 40.7553 88.6163 41.026C88.6163 41.2967 88.5043 41.5253 88.2803 41.712C88.0656 41.8893 87.7809 41.978 87.4263 41.978C87.0716 41.978 86.7916 41.8893 86.5863 41.712C86.3903 41.5253 86.2923 41.2967 86.2923 41.026ZM94.686 46.668L94.924 47.746H94.994L95.19 46.64L96.38 43H98.34L95.414 50.07H94.308L91.27 43H93.384L94.686 46.668ZM106.54 49.398C106.26 49.622 105.878 49.8133 105.392 49.972C104.916 50.1213 104.408 50.196 103.866 50.196C102.737 50.196 101.911 49.8693 101.388 49.216C100.866 48.5533 100.604 47.648 100.604 46.5C100.604 45.268 100.898 44.344 101.486 43.728C102.074 43.112 102.9 42.804 103.964 42.804C104.319 42.804 104.664 42.8507 105 42.944C105.336 43.0373 105.635 43.1913 105.896 43.406C106.158 43.6207 106.368 43.91 106.526 44.274C106.685 44.638 106.764 45.0907 106.764 45.632C106.764 45.828 106.75 46.038 106.722 46.262C106.704 46.486 106.671 46.7193 106.624 46.962H102.424C102.452 47.55 102.602 47.9933 102.872 48.292C103.152 48.5907 103.6 48.74 104.216 48.74C104.599 48.74 104.94 48.684 105.238 48.572C105.546 48.4507 105.78 48.3293 105.938 48.208L106.54 49.398ZM103.936 44.26C103.46 44.26 103.106 44.4047 102.872 44.694C102.648 44.974 102.513 45.352 102.466 45.828H105.07C105.108 45.324 105.028 44.9367 104.832 44.666C104.646 44.3953 104.347 44.26 103.936 44.26ZM114.014 44.708C113.724 44.6053 113.463 44.554 113.23 44.554C112.903 44.554 112.628 44.6427 112.404 44.82C112.189 44.988 112.044 45.2073 111.97 45.478V50H110.15V43H111.564L111.774 43.924H111.83C111.988 43.5787 112.203 43.3127 112.474 43.126C112.744 42.9393 113.062 42.846 113.426 42.846C113.668 42.846 113.944 42.8973 114.252 43L114.014 44.708ZM120.056 48.068C120.056 47.8813 119.976 47.732 119.818 47.62C119.659 47.508 119.463 47.4053 119.23 47.312C118.996 47.2187 118.74 47.1253 118.46 47.032C118.18 46.9293 117.923 46.794 117.69 46.626C117.456 46.4487 117.26 46.2293 117.102 45.968C116.943 45.6973 116.864 45.352 116.864 44.932C116.864 44.2413 117.069 43.714 117.48 43.35C117.89 42.986 118.483 42.804 119.258 42.804C119.79 42.804 120.27 42.86 120.7 42.972C121.129 43.084 121.465 43.21 121.708 43.35L121.302 44.666C121.087 44.582 120.816 44.4933 120.49 44.4C120.163 44.3067 119.832 44.26 119.496 44.26C118.954 44.26 118.684 44.47 118.684 44.89C118.684 45.058 118.763 45.1933 118.922 45.296C119.08 45.3987 119.276 45.4967 119.51 45.59C119.743 45.674 120 45.7673 120.28 45.87C120.56 45.9727 120.816 46.108 121.05 46.276C121.283 46.4347 121.479 46.6447 121.638 46.906C121.796 47.1673 121.876 47.5033 121.876 47.914C121.876 48.6233 121.647 49.1833 121.19 49.594C120.742 49.9953 120.065 50.196 119.16 50.196C118.665 50.196 118.198 50.1307 117.76 50C117.33 49.8787 116.98 49.734 116.71 49.566L117.214 48.208C117.428 48.3293 117.713 48.4507 118.068 48.572C118.422 48.684 118.786 48.74 119.16 48.74C119.43 48.74 119.645 48.6887 119.804 48.586C119.972 48.4833 120.056 48.3107 120.056 48.068ZM125.318 43H127.138V50H125.318V43ZM125.052 41.026C125.052 40.7553 125.15 40.5267 125.346 40.34C125.551 40.144 125.831 40.046 126.186 40.046C126.541 40.046 126.825 40.144 127.04 40.34C127.264 40.5267 127.376 40.7553 127.376 41.026C127.376 41.2967 127.264 41.5253 127.04 41.712C126.825 41.8893 126.541 41.978 126.186 41.978C125.831 41.978 125.551 41.8893 125.346 41.712C125.15 41.5253 125.052 41.2967 125.052 41.026ZM130.296 43H131.262V41.684L133.082 41.166V43H134.79V44.54H133.082V47.228C133.082 47.7133 133.128 48.0633 133.222 48.278C133.324 48.4833 133.511 48.586 133.782 48.586C133.968 48.586 134.127 48.5673 134.258 48.53C134.398 48.4927 134.552 48.4367 134.72 48.362L135.042 49.762C134.79 49.8833 134.496 49.986 134.16 50.07C133.824 50.154 133.483 50.196 133.138 50.196C132.494 50.196 132.018 50.0327 131.71 49.706C131.411 49.37 131.262 48.824 131.262 48.068V44.54H130.296V43ZM140.225 46.934L140.477 48.026H140.561L140.743 46.92L141.807 43H143.683L141.555 49.314C141.377 49.8367 141.205 50.3127 141.037 50.742C140.878 51.1807 140.701 51.5587 140.505 51.876C140.309 52.1933 140.089 52.436 139.847 52.604C139.613 52.7813 139.333 52.87 139.007 52.87C138.521 52.87 138.134 52.7907 137.845 52.632L138.181 51.176C138.321 51.232 138.461 51.26 138.601 51.26C138.815 51.26 139.021 51.1667 139.217 50.98C139.422 50.8027 139.576 50.476 139.679 50L136.753 43H138.937L140.225 46.934Z" fill="#575757"/>
</svg>
