<svg width="18" height="30" viewBox="0 0 18 30" fill="none" xmlns="http://www.w3.org/2000/svg">
<path d="M9 30C6.67363 30.0564 4.4198 29.1881 2.73269 27.5853C1.04557 25.9826 0.0628528 23.7762 0 21.45V6.19499C0.043251 4.51335 0.750967 2.91733 1.96824 1.75628C3.18552 0.595233 4.81319 -0.0362732 6.495 -1.00145e-05C8.17937 -0.0403018 9.81091 0.58941 11.0314 1.75089C12.252 2.91236 12.9618 4.51069 13.005 6.19499V21.465C12.9426 22.4829 12.4943 23.4386 11.7515 24.1373C11.0087 24.836 10.0273 25.225 9.0075 25.225C7.98772 25.225 7.00634 24.836 6.26352 24.1373C5.5207 23.4386 5.07238 22.4829 5.01 21.465V7.37999C5.01 6.98217 5.16804 6.60063 5.44934 6.31933C5.73064 6.03802 6.11218 5.87999 6.51 5.87999C6.90782 5.87999 7.28936 6.03802 7.57066 6.31933C7.85196 6.60063 8.01 6.98217 8.01 7.37999V21.465C8.03992 21.7085 8.15786 21.9326 8.34159 22.0952C8.52533 22.2577 8.76218 22.3474 9.0075 22.3474C9.25282 22.3474 9.48967 22.2577 9.67341 22.0952C9.85715 21.9326 9.97509 21.7085 10.005 21.465V6.19499C9.95837 5.3076 9.56365 4.47441 8.90651 3.87625C8.24938 3.27809 7.38285 2.96322 6.495 2.99999C5.60969 2.96726 4.74701 3.28394 4.09314 3.88169C3.43927 4.47943 3.04664 5.3103 3 6.19499V21.45C3.06244 22.9806 3.72895 24.4242 4.85354 25.4644C5.97812 26.5047 7.46913 27.0568 9 27C10.5309 27.0568 12.0219 26.5047 13.1465 25.4644C14.2711 24.4242 14.9376 22.9806 15 21.45V6.19499C15 5.79717 15.158 5.41563 15.4393 5.13433C15.7206 4.85302 16.1022 4.69499 16.5 4.69499C16.8978 4.69499 17.2794 4.85302 17.5607 5.13433C17.842 5.41563 18 5.79717 18 6.19499V21.45C17.9371 23.7762 16.9544 25.9826 15.2673 27.5853C13.5802 29.1881 11.3264 30.0564 9 30Z" fill="#777777"/>
</svg>
