<svg width="26" height="27" viewBox="0 0 26 27" fill="none" xmlns="http://www.w3.org/2000/svg">
<path d="M2.95455 27C2.14205 27 1.44674 26.7065 0.868636 26.1195C0.29053 25.5325 0.000984848 24.826 0 24V3C0 2.175 0.289546 1.469 0.868636 0.881999C1.44773 0.295 2.14303 0.000999999 2.95455 0H11.8182C12.2367 0 12.5878 0.144 12.8715 0.432C13.1551 0.72 13.2964 1.076 13.2955 1.5C13.2945 1.924 13.1527 2.2805 12.87 2.5695C12.5873 2.8585 12.2367 3.002 11.8182 3H2.95455V24H11.8182C12.2367 24 12.5878 24.144 12.8715 24.432C13.1551 24.72 13.2964 25.076 13.2955 25.5C13.2945 25.924 13.1527 26.2805 12.87 26.5695C12.5873 26.8585 12.2367 27.002 11.8182 27H2.95455ZM20.9403 15H10.3409C9.92235 15 9.57174 14.856 9.28909 14.568C9.00644 14.28 8.86462 13.924 8.86364 13.5C8.86265 13.076 9.00447 12.72 9.28909 12.432C9.57371 12.144 9.92432 12 10.3409 12H20.9403L18.1705 9.18749C17.8996 8.91249 17.7642 8.57499 17.7642 8.17499C17.7642 7.77499 17.8996 7.42499 18.1705 7.12499C18.4413 6.82499 18.786 6.66849 19.2045 6.65549C19.6231 6.64249 19.9801 6.78649 20.2756 7.08749L25.5568 12.45C25.8523 12.75 26 13.1 26 13.5C26 13.9 25.8523 14.25 25.5568 14.55L20.2756 19.9125C19.9801 20.2125 19.6295 20.3565 19.2237 20.3445C18.818 20.3325 18.4669 20.176 18.1705 19.875C17.8996 19.575 17.7706 19.219 17.7834 18.807C17.7962 18.395 17.9375 18.051 18.2074 17.775L20.9403 15Z" fill="#CC1818"/>
</svg>
