<svg width="28" height="28" viewBox="0 0 28 28" fill="none" xmlns="http://www.w3.org/2000/svg">
<path d="M2 9.75C2 8.75544 2.39509 7.80161 3.09835 7.09835C3.80161 6.39509 4.75544 6 5.75 6H14.25C15.2446 6 16.1984 6.39509 16.9017 7.09835C17.6049 7.80161 18 8.75544 18 9.75V18.25C18 19.2446 17.6049 20.1984 16.9017 20.9017C16.1984 21.6049 15.2446 22 14.25 22H5.75C4.75544 22 3.80161 21.6049 3.09835 20.9017C2.39509 20.1984 2 19.2446 2 18.25V9.75ZM23.252 20.683L19 17.747V10.25L23.252 7.314C24.412 6.512 25.996 7.344 25.996 8.754V19.244C25.996 20.654 24.413 21.484 23.252 20.683Z" fill="#099797"/>
</svg>
