<svg width="257" height="255" viewBox="0 0 257 255" fill="none" xmlns="http://www.w3.org/2000/svg">
<circle cx="93.7418" cy="93.7418" r="93.7418" transform="matrix(-1 0 0 1 222.521 33.8672)" fill="#EAF9FF"/>
<circle cx="73.6543" cy="73.6543" r="73.6543" transform="matrix(-1 0 0 1 202.434 53.9547)" fill="#C7DDF1"/>
<path d="M176.946 79.9489C177.382 79.5131 178.089 79.5131 178.524 79.9489L184.251 85.6758C184.271 85.6956 184.302 85.748 184.336 85.8151C184.504 86.1396 184.578 86.5104 184.578 86.8759V220.94H71.8648V87.4339V86.8759C71.8648 86.3179 72.1229 85.7465 72.1935 85.6758L77.9204 79.9489C78.3562 79.5131 79.0628 79.5131 79.4986 79.9489L84.8986 85.3489L90.2986 79.9489C90.7344 79.5131 91.441 79.5131 91.8768 79.9489L97.2768 85.3489L102.677 79.9489C103.113 79.5131 103.819 79.5131 104.255 79.9489L109.655 85.3489L115.055 79.9489C115.491 79.5131 116.197 79.5131 116.633 79.9489L122.033 85.3489L127.433 79.9489C127.869 79.5131 128.576 79.5131 129.012 79.9489L134.412 85.3489L139.812 79.9489C140.247 79.5131 140.954 79.5131 141.39 79.9489L146.79 85.3489L152.19 79.9489C152.626 79.5131 153.332 79.5131 153.768 79.9489L159.168 85.3489L164.568 79.9489C165.004 79.5131 165.71 79.5131 166.146 79.9489L171.546 85.3489L176.946 79.9489Z" fill="#E3E7F7" stroke="#0C2B42" stroke-width="1.67686"/>
<path fill-rule="evenodd" clip-rule="evenodd" d="M113.156 144.349C110.69 144.349 108.692 142.35 108.692 139.885C108.692 137.419 110.69 135.421 113.156 135.421C115.621 135.421 117.62 137.419 117.62 139.885C117.62 142.35 115.621 144.349 113.156 144.349ZM143.287 144.349C140.822 144.349 138.823 142.35 138.823 139.885C138.823 137.419 140.822 135.421 143.287 135.421C145.752 135.421 147.751 137.419 147.751 139.885C147.751 142.35 145.752 144.349 143.287 144.349Z" fill="#0C2B42"/>
<path d="M109.808 168.558C113.83 162.699 120.577 158.856 128.221 158.856C135.865 158.856 142.612 162.699 146.635 168.558" stroke="#0C2B42" stroke-width="2.79476" stroke-linecap="round"/>
<circle cx="3.34792" cy="3.34792" r="3.34792" transform="matrix(-1 0 0 1 167.838 59.5345)" stroke="#0C2B42" stroke-width="1.67686"/>
<circle cx="2.23195" cy="2.23195" r="2.23195" transform="matrix(-1 0 0 1 41.7334 165.552)" stroke="#0C2B42" stroke-width="1.67686"/>
<path d="M164.49 99.7096H114.271M164.49 111.427H134.359" stroke="#ABC0DC" stroke-width="1.67686" stroke-linecap="round"/>
<path d="M173.418 206.843H83.0241M173.418 195.683H119.182" stroke="#ABC0DC" stroke-width="1.67686" stroke-linecap="round"/>
<circle cx="5.02188" cy="5.02188" r="5.02188" transform="matrix(-1 0 0 1 219.173 145.465)" stroke="#0C2B42" stroke-width="1.67686"/>
<path d="M256 221.351H1.00001" stroke="#6E7191" stroke-width="1.67686" stroke-linecap="round"/>
<path d="M60.6663 85.202H49.545M68.5166 75.5743V66.2305" stroke="#6E7191" stroke-width="1.67686" stroke-linecap="round"/>
<path d="M61.3203 77.553L53.9229 70.1556" stroke="#6E7191" stroke-width="1.67686" stroke-linecap="round"/>
</svg>
