<svg width="24" height="24" viewBox="0 0 24 24" fill="none" xmlns="http://www.w3.org/2000/svg">
<g clip-path="url(#clip0_1376_14952)">
<path d="M3.69231 0C1.65692 0 0 1.65692 0 3.69231V20.3077C0 22.3431 1.65692 24 3.69231 24H15.6923C16.6735 24 18.036 22.5831 19.6154 20.9714C19.8369 20.7462 20.0492 20.5348 20.2791 20.3077C20.5062 20.0788 20.7462 19.8369 20.9714 19.6154C22.584 18.0351 24 16.6735 24 15.6923V3.69231C24 1.65692 22.3431 0 20.3077 0H3.69231ZM3.69231 1.84615H20.3077C20.7973 1.84615 21.2669 2.04066 21.6131 2.38688C21.9593 2.7331 22.1538 3.20268 22.1538 3.69231V15.6923C22.1538 16.6108 21.2289 16.6154 20.3077 16.6154H17.5385C17.0298 16.6154 16.6154 17.0298 16.6154 17.5385V20.3658C16.6154 21.1846 16.6172 21.984 15.9517 22.1538H3.69231C3.20268 22.1538 2.7331 21.9593 2.38688 21.6131C2.04066 21.2669 1.84615 20.7973 1.84615 20.3077V3.69231C1.84615 3.20268 2.04066 2.7331 2.38688 2.38688C2.7331 2.04066 3.20268 1.84615 3.69231 1.84615ZM6.28892 7.38462C6.04411 7.40751 5.81841 7.52671 5.66149 7.71601C5.50456 7.9053 5.42926 8.14919 5.45215 8.394C5.47504 8.63881 5.59425 8.86451 5.78355 9.02143C5.97284 9.17836 6.21672 9.25366 6.46154 9.23077H17.5385C17.7833 9.23077 18.0181 9.13352 18.1912 8.96041C18.3643 8.7873 18.4615 8.55251 18.4615 8.30769C18.4615 8.06288 18.3643 7.82809 18.1912 7.65498C18.0181 7.48187 17.7833 7.38462 17.5385 7.38462H6.46154C6.43263 7.38326 6.40368 7.38326 6.37477 7.38462C6.34617 7.38328 6.31752 7.38328 6.28892 7.38462ZM6.28892 12C6.04411 12.0229 5.81841 12.1421 5.66149 12.3314C5.50456 12.5207 5.42926 12.7646 5.45215 13.0094C5.47504 13.2542 5.59425 13.4799 5.78355 13.6368C5.97284 13.7937 6.21672 13.869 6.46154 13.8462H15.6923C15.9371 13.8462 16.1719 13.7489 16.345 13.5758C16.5181 13.4027 16.6154 13.1679 16.6154 12.9231C16.6154 12.6783 16.5181 12.4435 16.345 12.2704C16.1719 12.0973 15.9371 12 15.6923 12H6.46154C6.43263 11.9986 6.40368 11.9986 6.37477 12C6.34617 11.9987 6.31752 11.9987 6.28892 12Z" fill="#818181"/>
</g>
<defs>
<clipPath id="clip0_1376_14952">
<rect width="24" height="24" fill="white"/>
</clipPath>
</defs>
</svg>
