<svg width="28" height="28" viewBox="0 0 28 28" fill="none" xmlns="http://www.w3.org/2000/svg">
<g clip-path="url(#clip0_2907_14015)">
<path d="M25.2854 21.6456C24.5354 20.9769 23.8788 20.2104 23.3332 19.3667C22.737 18.2022 22.38 16.9302 22.2832 15.6256V11.7833C22.2883 9.73436 21.5451 7.75404 20.1931 6.21442C18.8411 4.67481 16.9734 3.68189 14.941 3.42222V2.41889C14.941 2.1435 14.8316 1.8794 14.6368 1.68468C14.4421 1.48995 14.178 1.38055 13.9026 1.38055C13.6272 1.38055 13.3631 1.48995 13.1684 1.68468C12.9737 1.8794 12.8643 2.1435 12.8643 2.41889V3.43778C10.85 3.71616 9.00494 4.71509 7.6707 6.24953C6.33647 7.78397 5.60353 9.74994 5.60763 11.7833V15.6256C5.51084 16.9302 5.15382 18.2022 4.55763 19.3667C4.02165 20.2085 3.37556 20.9749 2.63651 21.6456C2.55355 21.7184 2.48706 21.8082 2.44146 21.9087C2.39587 22.0093 2.37221 22.1185 2.37207 22.2289V23.2867C2.37207 23.4929 2.45401 23.6908 2.59988 23.8366C2.74574 23.9825 2.94357 24.0644 3.14985 24.0644H24.7721C24.9784 24.0644 25.1762 23.9825 25.322 23.8366C25.4679 23.6908 25.5498 23.4929 25.5498 23.2867V22.2289C25.5497 22.1185 25.5261 22.0093 25.4805 21.9087C25.4349 21.8082 25.3684 21.7184 25.2854 21.6456ZM3.98985 22.5089C4.71333 21.8097 5.35046 21.0263 5.88763 20.1756C6.6388 18.7693 7.0766 17.2171 7.17096 15.6256V11.7833C7.14011 10.8718 7.29301 9.96339 7.62055 9.11219C7.94809 8.26098 8.44357 7.48439 9.07749 6.82866C9.7114 6.17292 10.4708 5.65146 11.3104 5.29532C12.1501 4.93918 13.0528 4.75565 13.9648 4.75565C14.8769 4.75565 15.7796 4.93918 16.6193 5.29532C17.4589 5.65146 18.2183 6.17292 18.8522 6.82866C19.4861 7.48439 19.9816 8.26098 20.3091 9.11219C20.6367 9.96339 20.7896 10.8718 20.7587 11.7833V15.6256C20.8531 17.2171 21.2909 18.7693 22.0421 20.1756C22.5792 21.0263 23.2164 21.8097 23.9398 22.5089H3.98985Z" fill="#E8E8E8"/>
<path d="M14 26.6622C14.4899 26.6509 14.9601 26.4667 15.3273 26.1422C15.6946 25.8177 15.9352 25.3737 16.0066 24.8889H11.9155C11.989 25.3869 12.2409 25.8413 12.6243 26.1675C13.0077 26.4937 13.4966 26.6695 14 26.6622Z" fill="#E8E8E8"/>
</g>
<defs>
<clipPath id="clip0_2907_14015">
<rect width="28" height="28" fill="white"/>
</clipPath>
</defs>
</svg>
