<svg width="25" height="25" viewBox="0 0 16 16" fill="none" xmlns="http://www.w3.org/2000/svg">
<path d="M3.33329 6.57326C4.6134 9.36031 6.88755 11.5693 9.71062 12.7679L10.164 12.9699C10.666 13.1935 11.2308 13.2327 11.7589 13.0806C12.2869 12.9285 12.7444 12.5949 13.0506 12.1386L13.6433 11.2559C13.736 11.1175 13.7736 10.9494 13.7485 10.7846C13.7235 10.6199 13.6377 10.4705 13.508 10.3659L11.5 8.74592C11.43 8.68954 11.3494 8.64788 11.263 8.62343C11.1765 8.59898 11.0861 8.59225 10.997 8.60364C10.9079 8.61504 10.822 8.64432 10.7445 8.68974C10.667 8.73515 10.5994 8.79576 10.546 8.86792L9.92462 9.70592C8.32969 8.91822 7.0387 7.627 6.25129 6.03192L7.08862 5.41059C7.16078 5.3571 7.22139 5.28957 7.26681 5.21207C7.31222 5.13457 7.34151 5.04869 7.3529 4.95959C7.3643 4.87048 7.35757 4.78 7.33312 4.69356C7.30867 4.60713 7.267 4.52652 7.21062 4.45659L5.59062 2.44859C5.48602 2.31889 5.33664 2.23307 5.17191 2.20802C5.00718 2.18297 4.83905 2.22051 4.70062 2.31326L3.81195 2.90926C3.35289 3.21711 3.01801 3.67793 2.86699 4.20963C2.71596 4.74134 2.75859 5.30939 2.98729 5.81259L3.33329 6.57326Z" fill="#099797"/>
</svg>
