<svg width="24" height="24" viewBox="0 0 24 24" fill="none" xmlns="http://www.w3.org/2000/svg">
<path d="M21.75 4.69V8.57C21.7521 8.88952 21.6904 9.20625 21.5685 9.50161C21.4465 9.79697 21.2669 10.065 21.04 10.29C20.5811 10.7418 19.964 10.9966 19.32 11H4.67999C4.36051 11.0013 4.04393 10.9394 3.74851 10.8177C3.45309 10.6961 3.18468 10.5171 2.95877 10.2912C2.73286 10.0653 2.55392 9.7969 2.43227 9.50148C2.31062 9.20607 2.24867 8.88948 2.24999 8.57V4.69C2.24998 4.0446 2.50568 3.42549 2.96111 2.96819C3.41654 2.51088 4.0346 2.25265 4.67999 2.25H19.32C19.966 2.25283 20.5846 2.51176 21.04 2.97C21.2669 3.195 21.4465 3.46303 21.5685 3.75839C21.6904 4.05375 21.7521 4.37048 21.75 4.69ZM11 15.43V19.32C11.0013 19.6395 10.9394 19.9561 10.8177 20.2515C10.6961 20.5469 10.5171 20.8153 10.2912 21.0412C10.0653 21.2671 9.79689 21.4461 9.50147 21.5677C9.20606 21.6894 8.88947 21.7513 8.56999 21.75H4.67999C4.36051 21.7513 4.04393 21.6894 3.74851 21.5677C3.45309 21.4461 3.18468 21.2671 2.95877 21.0412C2.73286 20.8153 2.55392 20.5469 2.43227 20.2515C2.31062 19.9561 2.24867 19.6395 2.24999 19.32V15.44C2.24998 14.7946 2.50568 14.1755 2.96111 13.7182C3.41654 13.2609 4.0346 13.0026 4.67999 13H8.56999C8.88837 13.0016 9.2033 13.0661 9.49673 13.1896C9.79017 13.3132 10.0563 13.4934 10.28 13.72C10.734 14.1742 10.9924 14.7879 11 15.43ZM21.75 15.44V19.32C21.7521 19.6395 21.6904 19.9563 21.5685 20.2516C21.4465 20.547 21.2669 20.815 21.04 21.04C20.5811 21.4918 19.964 21.7466 19.32 21.75H15.43C14.7856 21.7487 14.1676 21.4937 13.71 21.04C13.4831 20.815 13.3034 20.547 13.1815 20.2516C13.0596 19.9563 12.9979 19.6395 13 19.32V15.44C13.0052 14.7962 13.2625 14.1801 13.7169 13.7239C14.1712 13.2677 14.7862 13.0078 15.43 13H19.32C19.966 13.0028 20.5846 13.2618 21.04 13.72C21.2669 13.945 21.4465 14.213 21.5685 14.5084C21.6904 14.8037 21.7521 15.1205 21.75 15.44Z" fill="#818181"/>
</svg>
