<svg width="35" height="27" viewBox="0 0 35 27" fill="none" xmlns="http://www.w3.org/2000/svg">
<path d="M18.2245 3H33.25C33.7141 3 34.1592 3.15804 34.4874 3.43934C34.8156 3.72064 35 4.10218 35 4.5V25.5C35 25.8978 34.8156 26.2794 34.4874 26.5607C34.1592 26.842 33.7141 27 33.25 27H1.75C1.28587 27 0.840752 26.842 0.512563 26.5607C0.184374 26.2794 0 25.8978 0 25.5V1.5C0 1.10218 0.184374 0.720644 0.512563 0.43934C0.840752 0.158035 1.28587 0 1.75 0H14.7245L18.2245 3ZM17.5 15C18.6603 15 19.7731 14.6049 20.5936 13.9017C21.4141 13.1984 21.875 12.2446 21.875 11.25C21.875 10.2554 21.4141 9.30161 20.5936 8.59835C19.7731 7.89509 18.6603 7.5 17.5 7.5C16.3397 7.5 15.2269 7.89509 14.4064 8.59835C13.5859 9.30161 13.125 10.2554 13.125 11.25C13.125 12.2446 13.5859 13.1984 14.4064 13.9017C15.2269 14.6049 16.3397 15 17.5 15ZM10.5 22.5H24.5C24.5 20.9087 23.7625 19.3826 22.4497 18.2574C21.137 17.1321 19.3565 16.5 17.5 16.5C15.6435 16.5 13.863 17.1321 12.5503 18.2574C11.2375 19.3826 10.5 20.9087 10.5 22.5Z" fill="#878787"/>
</svg>

