<svg width="32" height="32" viewBox="0 0 32 32" fill="none" xmlns="http://www.w3.org/2000/svg">
<path d="M28.4737 6.5778L16.4737 2.5778C16.1664 2.47407 15.8336 2.47407 15.5262 2.5778L3.52625 6.5778C3.23991 6.67264 2.98882 6.85159 2.80575 7.0913C2.62267 7.33102 2.51612 7.62036 2.5 7.92155C2.49862 7.94778 2.49862 7.97407 2.5 8.0003V18.0003C2.5 18.3981 2.65803 18.7797 2.93934 19.061C3.22064 19.3423 3.60217 19.5003 4 19.5003C4.39782 19.5003 4.77935 19.3423 5.06066 19.061C5.34196 18.7797 5.5 18.3981 5.5 18.0003V10.0816L8.46375 11.0691C7.54394 12.8297 7.27061 14.8571 7.69131 16.7984C8.11201 18.7398 9.20011 20.4722 10.7662 21.6941C8.71678 22.7047 6.98228 24.2559 5.75 26.1803C5.63903 26.3452 5.56195 26.5306 5.52324 26.7256C5.48453 26.9205 5.48496 27.1213 5.52451 27.3161C5.56406 27.5109 5.64194 27.6959 5.75362 27.8604C5.86531 28.0248 6.00856 28.1654 6.17506 28.274C6.34157 28.3826 6.528 28.4571 6.72351 28.493C6.91903 28.5289 7.11974 28.5256 7.31396 28.4832C7.50819 28.4409 7.69207 28.3604 7.85491 28.2464C8.01774 28.1323 8.15629 27.9871 8.2625 27.8191C10.0462 25.0741 12.875 23.5003 16 23.5003C19.125 23.5003 21.9537 25.0741 23.7437 27.8191C23.85 27.9871 23.9885 28.1323 24.1513 28.2464C24.3142 28.3604 24.498 28.4409 24.6923 28.4832C24.8865 28.5256 25.0872 28.5289 25.2827 28.493C25.4782 28.4571 25.6647 28.3826 25.8312 28.274C25.9977 28.1654 26.1409 28.0248 26.2526 27.8604C26.3643 27.6959 26.4422 27.5109 26.4817 27.3161C26.5213 27.1213 26.5217 26.9205 26.483 26.7256C26.4443 26.5306 26.3672 26.3452 26.2562 26.1803C25.0228 24.2537 23.286 22.701 21.2337 21.6903C22.7999 20.4684 23.888 18.736 24.3087 16.7947C24.7294 14.8533 24.456 12.8259 23.5362 11.0653L28.4737 9.41905C28.772 9.31926 29.0314 9.12822 29.2152 8.87295C29.399 8.61768 29.4978 8.31109 29.4978 7.99655C29.4978 7.68201 29.399 7.37543 29.2152 7.12016C29.0314 6.86489 28.772 6.67385 28.4737 6.57405V6.5778ZM16 5.5778L23.2562 8.0003L16 10.4191L8.75 8.0003L16 5.5778ZM21.5 15.0003C21.5002 15.8546 21.3013 16.6972 20.9192 17.4613C20.5371 18.2253 19.9823 18.8899 19.2987 19.4023C18.6151 19.9147 17.8216 20.2608 16.981 20.4131C16.1404 20.5655 15.2759 20.52 14.4559 20.2802C13.636 20.0403 12.8832 19.6128 12.2572 19.0314C11.6313 18.4501 11.1493 17.7309 10.8496 16.9309C10.5499 16.1309 10.4406 15.2721 10.5305 14.4226C10.6204 13.573 10.907 12.7561 11.3675 12.0366L15.5262 13.4228C15.8336 13.5261 16.1664 13.5261 16.4737 13.4228L20.6325 12.0366C21.1997 12.9209 21.5009 13.9497 21.5 15.0003Z" fill="#818181"/>
</svg>


