<svg width="68" height="17" viewBox="0 0 68 17" fill="none" xmlns="http://www.w3.org/2000/svg">
<path d="M0 14.98H14V0.98H0V14.98ZM22.0905 11.83H19.0805L18.3385 14H16.4205L19.9485 4.13H21.3625L24.8905 14H22.8745L22.0905 11.83ZM19.5705 10.29H21.6705L20.9425 8.106L20.6485 6.566H20.5785L20.2845 8.12L19.5705 10.29ZM28.313 12.068C28.313 11.8813 28.2337 11.732 28.075 11.62C27.9164 11.508 27.7204 11.4053 27.487 11.312C27.2537 11.2187 26.997 11.1253 26.717 11.032C26.437 10.9293 26.1804 10.794 25.947 10.626C25.7137 10.4487 25.5177 10.2293 25.359 9.968C25.2004 9.69733 25.121 9.352 25.121 8.932C25.121 8.24133 25.3264 7.714 25.737 7.35C26.1477 6.986 26.7404 6.804 27.515 6.804C28.047 6.804 28.5277 6.86 28.957 6.972C29.3864 7.084 29.7224 7.21 29.965 7.35L29.559 8.666C29.3444 8.582 29.0737 8.49333 28.747 8.4C28.4204 8.30667 28.089 8.26 27.753 8.26C27.2117 8.26 26.941 8.47 26.941 8.89C26.941 9.058 27.0204 9.19333 27.179 9.296C27.3377 9.39867 27.5337 9.49667 27.767 9.59C28.0004 9.674 28.257 9.76733 28.537 9.87C28.817 9.97267 29.0737 10.108 29.307 10.276C29.5404 10.4347 29.7364 10.6447 29.895 10.906C30.0537 11.1673 30.133 11.5033 30.133 11.914C30.133 12.6233 29.9044 13.1833 29.447 13.594C28.999 13.9953 28.3224 14.196 27.417 14.196C26.9224 14.196 26.4557 14.1307 26.017 14C25.5877 13.8787 25.2377 13.734 24.967 13.566L25.471 12.208C25.6857 12.3293 25.9704 12.4507 26.325 12.572C26.6797 12.684 27.0437 12.74 27.417 12.74C27.6877 12.74 27.9024 12.6887 28.061 12.586C28.229 12.4833 28.313 12.3107 28.313 12.068ZM33.9393 12.068C33.9393 11.8813 33.8599 11.732 33.7013 11.62C33.5426 11.508 33.3466 11.4053 33.1133 11.312C32.8799 11.2187 32.6233 11.1253 32.3433 11.032C32.0633 10.9293 31.8066 10.794 31.5733 10.626C31.3399 10.4487 31.1439 10.2293 30.9853 9.968C30.8266 9.69733 30.7473 9.352 30.7473 8.932C30.7473 8.24133 30.9526 7.714 31.3633 7.35C31.7739 6.986 32.3666 6.804 33.1413 6.804C33.6733 6.804 34.1539 6.86 34.5833 6.972C35.0126 7.084 35.3486 7.21 35.5913 7.35L35.1853 8.666C34.9706 8.582 34.6999 8.49333 34.3733 8.4C34.0466 8.30667 33.7153 8.26 33.3793 8.26C32.8379 8.26 32.5673 8.47 32.5673 8.89C32.5673 9.058 32.6466 9.19333 32.8053 9.296C32.9639 9.39867 33.1599 9.49667 33.3933 9.59C33.6266 9.674 33.8833 9.76733 34.1633 9.87C34.4433 9.97267 34.6999 10.108 34.9333 10.276C35.1666 10.4347 35.3626 10.6447 35.5213 10.906C35.6799 11.1673 35.7593 11.5033 35.7593 11.914C35.7593 12.6233 35.5306 13.1833 35.0733 13.594C34.6253 13.9953 33.9486 14.196 33.0433 14.196C32.5486 14.196 32.0819 14.1307 31.6433 14C31.2139 13.8787 30.8639 13.734 30.5933 13.566L31.0973 12.208C31.3119 12.3293 31.5966 12.4507 31.9513 12.572C32.3059 12.684 32.6699 12.74 33.0433 12.74C33.3139 12.74 33.5286 12.6887 33.6873 12.586C33.8553 12.4833 33.9393 12.3107 33.9393 12.068ZM36.8215 7H38.6415V14H36.8215V7ZM36.5555 5.026C36.5555 4.75533 36.6535 4.52667 36.8495 4.34C37.0549 4.144 37.3349 4.046 37.6895 4.046C38.0442 4.046 38.3289 4.144 38.5435 4.34C38.7675 4.52667 38.8795 4.75533 38.8795 5.026C38.8795 5.29667 38.7675 5.52533 38.5435 5.712C38.3289 5.88933 38.0442 5.978 37.6895 5.978C37.3349 5.978 37.0549 5.88933 36.8495 5.712C36.6535 5.52533 36.5555 5.29667 36.5555 5.026ZM46.0693 14C46.0693 15.0173 45.794 15.764 45.2433 16.24C44.6926 16.7253 43.9226 16.968 42.9333 16.968C42.2613 16.968 41.7293 16.9213 41.3373 16.828C40.9546 16.7347 40.6653 16.6367 40.4693 16.534L40.8473 15.092C41.062 15.176 41.3093 15.26 41.5893 15.344C41.8786 15.428 42.2333 15.47 42.6533 15.47C43.288 15.47 43.7173 15.33 43.9413 15.05C44.1746 14.7793 44.2913 14.3967 44.2913 13.902V13.454H44.2353C43.9086 13.8927 43.33 14.112 42.4993 14.112C41.594 14.112 40.9173 13.832 40.4693 13.272C40.0306 12.712 39.8113 11.8347 39.8113 10.64C39.8113 9.38933 40.11 8.442 40.7073 7.798C41.3046 7.154 42.1726 6.832 43.3113 6.832C43.9086 6.832 44.4406 6.874 44.9073 6.958C45.3833 7.042 45.7706 7.14 46.0693 7.252V14ZM42.9893 12.656C43.344 12.656 43.6146 12.5767 43.8013 12.418C43.9973 12.2593 44.1466 12.0213 44.2493 11.704V8.554C43.96 8.43267 43.6006 8.372 43.1713 8.372C42.7046 8.372 42.3406 8.54933 42.0793 8.904C41.818 9.24933 41.6873 9.80467 41.6873 10.57C41.6873 11.2513 41.7993 11.7693 42.0233 12.124C42.2473 12.4787 42.5693 12.656 42.9893 12.656ZM51.6572 14V10.024C51.6572 9.45467 51.5732 9.044 51.4052 8.792C51.2465 8.54 50.9712 8.414 50.5792 8.414C50.2338 8.414 49.9398 8.51667 49.6972 8.722C49.4638 8.918 49.2958 9.16533 49.1932 9.464V14H47.3732V7H48.8152L49.0252 7.924H49.0812C49.2958 7.62533 49.5805 7.364 49.9352 7.14C50.2898 6.916 50.7472 6.804 51.3072 6.804C51.6525 6.804 51.9605 6.85067 52.2312 6.944C52.5018 7.03733 52.7305 7.19133 52.9172 7.406C53.1038 7.62067 53.2438 7.91467 53.3372 8.288C53.4305 8.652 53.4772 9.10467 53.4772 9.646V14H51.6572ZM60.3221 13.398C60.0421 13.622 59.6594 13.8133 59.1741 13.972C58.6981 14.1213 58.1894 14.196 57.6481 14.196C56.5187 14.196 55.6927 13.8693 55.1701 13.216C54.6474 12.5533 54.3861 11.648 54.3861 10.5C54.3861 9.268 54.6801 8.344 55.2681 7.728C55.8561 7.112 56.6821 6.804 57.7461 6.804C58.1007 6.804 58.4461 6.85067 58.7821 6.944C59.1181 7.03733 59.4167 7.19133 59.6781 7.406C59.9394 7.62067 60.1494 7.91 60.3081 8.274C60.4667 8.638 60.5461 9.09067 60.5461 9.632C60.5461 9.828 60.5321 10.038 60.5041 10.262C60.4854 10.486 60.4527 10.7193 60.4061 10.962H56.2061C56.2341 11.55 56.3834 11.9933 56.6541 12.292C56.9341 12.5907 57.3821 12.74 57.9981 12.74C58.3807 12.74 58.7214 12.684 59.0201 12.572C59.3281 12.4507 59.5614 12.3293 59.7201 12.208L60.3221 13.398ZM57.7181 8.26C57.2421 8.26 56.8874 8.40467 56.6541 8.694C56.4301 8.974 56.2947 9.352 56.2481 9.828H58.8521C58.8894 9.324 58.8101 8.93667 58.6141 8.666C58.4274 8.39533 58.1287 8.26 57.7181 8.26ZM67.5014 11.536C67.5014 11.928 67.5061 12.32 67.5154 12.712C67.5248 13.104 67.5668 13.538 67.6414 14.014H66.3394L66.0874 13.104H66.0314C65.8448 13.4307 65.5741 13.6967 65.2194 13.902C64.8741 14.098 64.4634 14.196 63.9874 14.196C63.1101 14.196 62.4288 13.9067 61.9434 13.328C61.4581 12.7493 61.2154 11.844 61.2154 10.612C61.2154 9.41733 61.4861 8.48867 62.0274 7.826C62.5688 7.16333 63.3621 6.832 64.4074 6.832C64.6968 6.832 64.9348 6.85067 65.1214 6.888C65.3081 6.916 65.4948 6.96733 65.6814 7.042V4.2H67.5014V11.536ZM64.4074 12.656C64.7621 12.656 65.0421 12.572 65.2474 12.404C65.4528 12.2267 65.5974 11.9747 65.6814 11.648V8.68C65.5508 8.57733 65.4061 8.50267 65.2474 8.456C65.0888 8.4 64.8834 8.372 64.6314 8.372C64.1181 8.372 63.7308 8.54467 63.4694 8.89C63.2174 9.23533 63.0914 9.828 63.0914 10.668C63.0914 11.2653 63.1941 11.746 63.3994 12.11C63.6141 12.474 63.9501 12.656 64.4074 12.656Z" fill="white"/>
</svg>
