<svg width="26" height="29" viewBox="0 0 26 29" fill="none" xmlns="http://www.w3.org/2000/svg">
<path d="M1 1H19.6667C22.1813 1 23.4373 1 24.2187 1.78133C25 2.56267 25 3.81867 25 6.33333V14.3333C25 16.848 25 18.104 24.2187 18.8853C23.4373 19.6667 22.1813 19.6667 19.6667 19.6667H10.3333M11.6667 7H19.6667M1 21V15.6667C1 14.4093 1 13.7813 1.39067 13.3907C1.78133 13 2.40933 13 3.66667 13H6.33333M1 21H6.33333M1 21V27.6667M6.33333 13V21M6.33333 13H14.3333M6.33333 21V27.6667" stroke="#099797" stroke-width="2" stroke-linecap="round" stroke-linejoin="round"/>
<path d="M6.33333 6.99967C6.33333 7.70692 6.05238 8.3852 5.55229 8.88529C5.05219 9.38539 4.37391 9.66634 3.66667 9.66634C2.95942 9.66634 2.28115 9.38539 1.78105 8.88529C1.28095 8.3852 1 7.70692 1 6.99967C1 6.29243 1.28095 5.61415 1.78105 5.11406C2.28115 4.61396 2.95942 4.33301 3.66667 4.33301C4.37391 4.33301 5.05219 4.61396 5.55229 5.11406C6.05238 5.61415 6.33333 6.29243 6.33333 6.99967Z" fill="#099797"/>
</svg>
