<svg width="139" height="51" viewBox="0 0 139 51" fill="none" xmlns="http://www.w3.org/2000/svg">
<ellipse cx="25.4689" cy="25.0373" rx="25.4689" ry="25.0373" fill="#DCDCDC"/>
<path d="M41.9763 34.4231L44.5803 36.2311L39.0779 40.0294L36.5092 36.4184L40.6821 30.8374L41.7863 34.1697L41.8386 34.3275L41.9763 34.4231Z" fill="#099797" stroke="black"/>
<path d="M11.6289 31.9829L12.6804 34.4357L12.7029 34.4883L12.737 34.5345L14.1298 36.4232L10.7053 40.1065L6.97025 35.5115L9.6403 34.484L9.77424 34.4325L9.86019 34.319L11.6289 31.9829Z" fill="#099797" stroke="black"/>
<path d="M37.0375 7.67324L37.0346 7.67392C35.0563 8.11831 33.0075 8.15477 31.0142 7.78104C29.0212 7.40736 27.1259 6.6315 25.4449 5.50111C25.2258 5.35483 24.9669 5.27846 24.7027 5.28248C24.4386 5.2865 24.1822 5.37069 23.9678 5.52353C22.323 6.70456 20.4529 7.53775 18.4725 7.9719C16.492 8.40611 14.443 8.43201 12.4517 8.04802L12.4487 8.04744C12.2586 8.00958 12.0624 8.01462 11.8745 8.0622C11.6868 8.10974 11.5123 8.19852 11.3638 8.32187C11.2156 8.44547 11.0973 8.60042 11.0173 8.77525C10.9373 8.95016 10.8977 9.14061 10.9014 9.33263L10.9014 9.33433L11.1103 22.6517L11.1103 22.652C11.1477 25.1349 11.7802 27.5733 12.9554 29.7642C14.1305 31.9548 15.8142 33.8347 17.8665 35.247L37.0375 7.67324ZM37.0375 7.67324C37.2264 7.62961 37.4226 7.62868 37.6119 7.67052C37.8009 7.7123 37.978 7.79566 38.1303 7.91432C38.2824 8.03338 38.4056 8.18473 38.4911 8.35714C38.5765 8.52954 38.6221 8.71869 38.6244 8.91072L38.6244 8.91243L38.8333 22.2298L38.8333 22.2301C38.8738 24.713 38.318 27.1695 37.2121 29.395C36.1061 31.6206 34.482 33.5509 32.4748 35.025L25.9958 39.772C25.9958 39.772 25.9958 39.772 25.9957 39.772C25.7788 39.9309 25.5173 40.0186 25.2475 40.0227C24.9778 40.0268 24.7136 39.9471 24.4918 39.7949C24.4918 39.7949 24.4917 39.7949 24.4917 39.7949L17.867 35.2473L37.0375 7.67324ZM13.7007 22.6119C13.7007 22.612 13.7007 22.6122 13.7007 22.6123C13.7319 24.6849 14.2596 26.7201 15.24 28.5488C16.2204 30.3775 17.6251 31.9465 19.3369 33.1255L19.3372 33.1257L24.9099 36.9566L25.2026 37.1579L25.4889 36.9478L30.9387 32.9492L30.939 32.9489L14.2007 22.6047L13.7007 22.6119ZM13.7007 22.6119L13.5241 11.3506L13.5156 10.8063L14.0587 10.8442C17.7228 11.1004 21.3741 10.1992 24.4929 8.26916L24.7471 8.11191L25.006 8.26136C28.1839 10.0956 31.8617 10.8852 35.516 10.5177L36.0577 10.4632L36.0662 11.0076L36.2428 22.2689L36.2428 22.2692L35.7429 22.2768L13.7007 22.6119ZM39.3332 22.2222L39.1244 8.90482L37.6598 29.6177C38.8013 27.3206 39.375 24.7851 39.3332 22.2222Z" fill="#099797" stroke="black"/>
<path d="M24.8057 11.8561L25.1268 32.3322" stroke="black" stroke-width="0.5" stroke-linecap="round"/>
<path d="M34.0332 21.77L15.8923 22.046" stroke="#191313" stroke-width="0.5" stroke-linecap="round"/>
<path d="M19.2931 26.7429L19.7931 26.7351C19.7934 26.7559 19.8024 26.7836 19.831 26.8095C19.8608 26.8364 19.9079 26.8566 19.9635 26.856C20.0192 26.855 20.0657 26.8333 20.0947 26.8055L20.4412 27.1661L19.7167 26.1536C19.6291 26.1859 19.5489 26.2353 19.482 26.2996C19.4712 26.31 19.4608 26.3207 19.4509 26.3317C19.4231 26.3759 19.3958 26.4204 19.3691 26.4652C19.3553 26.4884 19.3416 26.5117 19.3281 26.535C19.3041 26.6014 19.292 26.6716 19.2931 26.7429ZM19.2931 26.7429C19.2944 26.8203 19.3111 26.896 19.3415 26.9665L20.1304 26.7307C20.13 26.7098 20.121 26.6822 20.0923 26.6563L20.4273 26.2852L20.0923 26.6563C20.0625 26.6294 20.0153 26.6091 19.9597 26.6098C19.9035 26.6109 19.8572 26.6326 19.8287 26.66C19.8009 26.6868 19.7928 26.7147 19.7931 26.7356L19.2931 26.7429ZM23.5538 26.6867C23.5532 27.0511 23.1529 27.405 22.5042 27.6704L22.3894 27.398L22.4573 27.3757C22.4555 27.3702 22.4537 27.3646 22.4519 27.3591C22.9272 27.1504 23.2297 26.8878 23.2312 26.6842C23.2312 26.6838 23.2312 26.6834 23.2312 26.683C23.2267 26.4779 22.9137 26.2271 22.4278 26.0317C22.4292 26.0269 22.4306 26.0221 22.432 26.0174L22.3701 25.9989L22.37 25.9989L22.1694 25.939C22.1575 25.9352 22.1457 25.9314 22.1338 25.9276L22.1784 25.7199L22.2051 25.6286C22.2988 25.6572 22.3885 25.6876 22.4741 25.7196C22.4748 25.7199 22.4755 25.7201 22.4761 25.7204C23.1363 25.9679 23.548 26.3122 23.5537 26.6781C23.5537 26.6785 23.5537 26.6789 23.5537 26.6793C23.5538 26.6818 23.5538 26.6842 23.5538 26.6867ZM22.1615 27.473L22.3894 27.398L22.5026 27.671C22.4205 27.7046 22.3344 27.7367 22.2446 27.7673L22.2049 27.6479L22.1615 27.473Z" stroke="#099797"/>
<path d="M21.9246 18.21L21.8982 16.5238L19.5285 17.7877C19.4477 17.8335 19.3618 17.8571 19.2708 17.8585C19.1801 17.8599 19.0929 17.8388 19.009 17.7953L16.7056 16.6472C16.6568 16.6205 16.6206 16.5885 16.597 16.5513C16.5735 16.514 16.5614 16.4726 16.5607 16.427C16.5599 16.3814 16.5708 16.3396 16.5931 16.3016C16.6155 16.2637 16.6506 16.2306 16.6986 16.2025L18.9647 14.988C19.0049 14.9658 19.0464 14.9492 19.0893 14.9379C19.1319 14.9267 19.1767 14.9208 19.2237 14.9201C19.2708 14.9193 19.3158 14.9242 19.3587 14.9345C19.4017 14.9448 19.4436 14.961 19.4845 14.9829L22.0851 16.2678C22.1311 16.2891 22.1669 16.3202 22.1925 16.3612C22.2181 16.4022 22.2313 16.4466 22.2321 16.4943L22.2589 18.2049C22.2596 18.2497 22.2441 18.2876 22.2125 18.3185C22.1809 18.3494 22.1415 18.3652 22.0942 18.3659C22.047 18.3666 22.007 18.352 21.9742 18.3221C21.9414 18.2922 21.9249 18.2548 21.9246 18.21ZM19.033 19.3247L17.5557 18.595C17.4691 18.5502 17.3999 18.4877 17.3481 18.4074C17.2962 18.3277 17.2696 18.241 17.2681 18.1472L17.2527 17.1626L19.0128 18.0335C19.095 18.0768 19.1816 18.0978 19.2726 18.0964C19.3633 18.095 19.4498 18.0713 19.5323 18.0253L21.2642 17.1013L21.2797 18.0868C21.2812 18.1818 21.2572 18.2698 21.2079 18.3509C21.1586 18.4314 21.0915 18.4954 21.0066 18.5428L19.5525 19.3168C19.5118 19.3396 19.47 19.3569 19.4269 19.3688C19.3839 19.3806 19.3395 19.3869 19.2938 19.3876C19.2481 19.3883 19.2036 19.3833 19.1602 19.3728C19.1167 19.3623 19.0744 19.3462 19.033 19.3247Z" fill="#099797"/>
<path d="M28.0799 17.7921C27.8234 17.7883 27.5667 17.8041 27.3136 17.8409C27.0963 17.8725 26.8819 17.9206 26.6734 17.984C26.6228 17.9992 26.566 18.012 26.5184 18.0348C26.4879 18.0497 26.463 18.0666 26.4351 18.0356C26.3965 17.9939 26.4204 17.9168 26.4258 17.8683C26.4366 17.7708 26.449 17.6737 26.4637 17.5766C26.5273 17.1445 26.615 16.7161 26.6724 16.283C26.6974 16.0915 26.7173 15.8985 26.7411 15.707C26.7529 15.6084 26.7665 15.5098 26.7822 15.4117C26.8016 15.2914 26.8047 15.2068 26.9253 15.1323C27.1306 15.0056 27.3783 14.9472 27.6148 14.8905C27.8697 14.8295 28.1242 14.7772 28.3891 14.7824C28.5746 14.7863 28.7557 14.8289 28.9206 14.9062C29.0006 14.9436 29.0772 14.9878 29.1501 15.0367C29.2223 15.0845 29.3103 15.1357 29.3682 15.1977C29.4199 15.2525 29.4369 15.3028 29.4428 15.3604C29.4192 16.099 29.4535 17.9289 29.4617 18.0586C29.4624 18.0694 29.4637 18.0802 29.4644 18.091C29.4619 18.1049 29.4537 18.1159 29.4291 18.1162C29.3995 18.1172 29.3668 18.0997 29.3409 18.0877C29.2875 18.0628 29.2335 18.0389 29.1795 18.0165C28.8303 17.8709 28.4638 17.7976 28.0799 17.7921ZM32.8189 17.9379C32.7915 17.9698 32.7667 17.9537 32.7357 17.9397C32.6879 17.9183 32.6308 17.9073 32.5792 17.8937C32.3688 17.8366 32.153 17.7956 31.9348 17.77C31.6807 17.7409 31.423 17.7335 31.1668 17.7446C30.7838 17.7618 30.4198 17.8462 30.0748 18.0023C30.0215 18.0269 29.9683 18.0524 29.9156 18.0784C29.8901 18.0912 29.858 18.1092 29.8278 18.1097C29.8033 18.11 29.7947 18.0993 29.7917 18.0855C29.7921 18.0747 29.7936 18.0638 29.7934 18.053C29.7975 17.9231 29.775 16.093 29.7277 15.3555C29.7318 15.2978 29.7472 15.247 29.7966 15.1906C29.8537 15.1269 29.9394 15.0726 30.0102 15.0231C30.0814 14.9725 30.1561 14.9255 30.2354 14.8857C30.3983 14.8034 30.5775 14.7553 30.7628 14.7458C31.0274 14.732 31.2834 14.777 31.5401 14.8303C31.7783 14.8797 32.0277 14.93 32.2374 15.051C32.3603 15.1218 32.3661 15.2062 32.3892 15.3258C32.408 15.4234 32.4246 15.5216 32.4396 15.6197C32.4688 15.8109 32.4947 16.0027 32.5262 16.1934C32.5972 16.624 32.6989 17.05 32.7755 17.4801C32.7921 17.5767 32.8087 17.6733 32.8225 17.7704C32.8299 17.8187 32.8563 17.8951 32.8189 17.9379Z" fill="white"/>
<path d="M32.8159 18.19C32.8183 18.1234 32.8469 17.9371 32.8453 17.9009C32.8346 17.4379 32.5063 15.9164 32.4517 15.5454L32.4483 15.5226C32.4293 15.3769 32.4202 15.2034 32.3623 15.0664C32.304 14.9284 32.1215 14.8827 31.9897 14.8357C31.4441 14.6443 30.8292 14.4853 30.2565 14.67C30.033 14.7419 29.8324 14.8671 29.6729 15.0622C29.5078 14.8721 29.3029 14.753 29.0777 14.6879C28.4995 14.5208 27.8898 14.6984 27.3505 14.9063C27.2203 14.9568 27.0383 15.0081 26.9848 15.1483C26.9313 15.287 26.9276 15.4601 26.9131 15.6068L26.9105 15.6297C26.8676 16.0022 26.5876 17.533 26.5909 17.9961C26.5905 18.0327 26.6254 18.2177 26.6299 18.2842C26.6363 18.3801 26.626 18.4768 26.6325 18.5723C26.6231 18.6058 26.6325 18.637 26.6541 18.6614C26.6682 18.6869 26.6897 18.7022 26.713 18.71C26.7665 18.7653 26.8615 18.7267 26.9238 18.7068C27.4817 18.5233 28.0981 18.5205 28.6776 18.5859C28.7802 18.5972 28.8825 18.6118 28.9843 18.6293C29.09 18.6476 29.1906 18.6822 29.2921 18.7154C29.3758 18.7427 29.4634 18.7651 29.5513 18.7799C29.6146 18.7928 29.6762 18.7975 29.7043 18.7976C29.7142 18.7974 29.723 18.7964 29.7324 18.7957C29.7418 18.7956 29.7511 18.7969 29.7605 18.7967C29.7886 18.7963 29.8501 18.7897 29.9129 18.7744C30.0003 18.7569 30.0872 18.7318 30.17 18.7021C30.2704 18.6658 30.3703 18.6281 30.4754 18.6066C30.5766 18.586 30.6784 18.5683 30.7806 18.5539C31.3573 18.4709 31.974 18.4549 32.5373 18.6213C32.5997 18.6399 32.6959 18.675 32.7477 18.6181C32.7712 18.6097 32.7917 18.5937 32.8051 18.5678C32.8258 18.5427 32.8342 18.5112 32.8238 18.4781C32.8258 18.382 32.8125 18.2862 32.8159 18.19ZM28.3508 17.6365C28.1245 17.6328 27.8981 17.6471 27.6749 17.681C27.4832 17.71 27.2942 17.7543 27.1103 17.8127C27.0657 17.8267 27.0156 17.8384 26.9736 17.8595C26.9467 17.8732 26.9248 17.8888 26.9002 17.8602C26.8661 17.8217 26.8871 17.7505 26.8918 17.7057C26.9013 17.6157 26.9122 17.5261 26.9251 17.4365C26.9809 17.0377 27.058 16.6423 27.1084 16.2425C27.1302 16.0657 27.1476 15.8876 27.1685 15.7109C27.1789 15.6199 27.1908 15.5289 27.2047 15.4383C27.2216 15.3273 27.2244 15.2492 27.3307 15.1806C27.5117 15.0637 27.7301 15.0099 27.9387 14.9578C28.1635 14.9016 28.3879 14.8535 28.6216 14.8585C28.7852 14.8622 28.945 14.9016 29.0905 14.9731C29.161 15.0077 29.2287 15.0485 29.2929 15.0936C29.3567 15.1378 29.4343 15.1852 29.4855 15.2424C29.5311 15.2931 29.5461 15.3394 29.5514 15.3926C29.531 16.0744 29.5625 17.7635 29.5698 17.8833C29.5704 17.8932 29.5716 17.9032 29.5722 17.9132C29.5699 17.9261 29.5627 17.9361 29.541 17.9365C29.5149 17.9374 29.4861 17.9211 29.4633 17.9101C29.4161 17.887 29.3684 17.8649 29.3208 17.8442C29.0127 17.7096 28.6894 17.6418 28.3508 17.6365ZM32.531 17.774C32.5068 17.8034 32.4849 17.7885 32.4576 17.7756C32.4154 17.7558 32.3649 17.7456 32.3194 17.733C32.1338 17.6802 31.9435 17.6422 31.751 17.6185C31.5268 17.5914 31.2996 17.5844 31.0735 17.5945C30.7358 17.6101 30.4147 17.6878 30.1105 17.8318C30.0635 17.8543 30.0166 17.8779 29.9702 17.9019C29.9477 17.9136 29.9194 17.9302 29.8928 17.9307C29.8711 17.931 29.8635 17.9211 29.8609 17.9083C29.8612 17.8983 29.8625 17.8883 29.8624 17.8783C29.8659 17.7584 29.8448 16.0691 29.8026 15.3883C29.8062 15.335 29.8198 15.2882 29.8633 15.2362C29.9136 15.1774 29.9892 15.1273 30.0516 15.0816C30.1144 15.035 30.1803 14.9917 30.2502 14.9549C30.3938 14.879 30.5518 14.8348 30.7153 14.8261C30.9486 14.8135 31.1745 14.8553 31.4009 14.9046C31.6111 14.9504 31.8311 14.997 32.0161 15.1088C32.1246 15.1742 32.1297 15.2521 32.1502 15.3626C32.1669 15.4527 32.1816 15.5433 32.1948 15.6339C32.2208 15.8104 32.2437 15.9875 32.2716 16.1635C32.3345 16.561 32.4245 16.9543 32.4923 17.3513C32.507 17.4405 32.5217 17.5297 32.5339 17.6194C32.5406 17.664 32.5638 17.7345 32.531 17.774Z" fill="#099797"/>
<path d="M29.1389 15.3828C28.6691 15.1788 28.0403 15.1769 27.5743 15.4009C27.451 15.4603 27.5621 15.6322 27.6844 15.5766C28.0812 15.3946 28.6294 15.4129 29.0199 15.5862C29.1608 15.6483 29.2803 15.4443 29.1389 15.3828ZM29.1329 15.9393C28.633 15.7367 27.9933 15.667 27.4962 15.9237C27.3882 15.9796 27.4861 16.1265 27.5933 16.0782C28.0498 15.873 28.6024 15.9811 29.0517 16.134C29.1681 16.1741 29.2474 15.9855 29.1329 15.9393ZM29.1155 16.4945C29.0621 16.4525 28.9884 16.4336 28.9245 16.4123C28.4608 16.2567 27.8484 16.2594 27.4089 16.4848C27.3121 16.5343 27.3966 16.67 27.4922 16.6419C27.7326 16.5721 27.9591 16.5321 28.2098 16.5259C28.4063 16.521 28.585 16.5382 28.7735 16.5896C28.8304 16.6049 28.8847 16.6102 28.9393 16.6341C28.9785 16.6511 29.0271 16.6727 29.0701 16.6773C29.1638 16.6868 29.181 16.5539 29.1275 16.5043L29.1155 16.4945ZM29.0751 17.031C28.5383 16.7967 27.9409 16.8505 27.4044 17.0422C27.2936 17.0819 27.3494 17.2466 27.4622 17.2106C27.7147 17.1297 27.9251 17.069 28.1946 17.0616C28.4536 17.0548 28.7362 17.1323 28.9751 17.2185C29.1034 17.2655 29.2056 17.088 29.0751 17.031ZM30.3412 15.5656C30.726 15.3805 31.2734 15.346 31.6757 15.5154C31.7992 15.5677 31.9054 15.392 31.7803 15.3364C31.3079 15.1267 30.6795 15.1477 30.2163 15.3659C30.0764 15.4322 30.2018 15.6324 30.3412 15.5656ZM30.3271 16.1146C30.7714 15.9481 31.3203 15.8232 31.7831 16.0145C31.8917 16.0594 31.9849 15.9096 31.8752 15.8571C31.3698 15.6156 30.7326 15.7047 30.2398 15.9224C30.1268 15.9722 30.2115 16.1582 30.3271 16.1146ZM30.3253 16.6587C30.3686 16.6528 30.4155 16.6297 30.4541 16.6115C30.5084 16.586 30.5625 16.579 30.6189 16.562C30.8058 16.5054 30.9838 16.4827 31.1804 16.4811C31.4312 16.4792 31.6593 16.5124 31.9018 16.5752C31.9977 16.6004 32.0779 16.4618 31.9801 16.4157C31.5338 16.2037 30.921 16.2197 30.463 16.3893C30.3998 16.4126 30.3267 16.4333 30.2742 16.4773L30.2625 16.488C30.2101 16.5382 30.2324 16.671 30.3253 16.6587ZM32.0021 16.9722C31.4598 16.7969 30.861 16.7613 30.3318 17.0119C30.2032 17.0728 30.3109 17.2472 30.4382 17.1962C30.6737 17.1028 30.9532 17.0167 31.2129 17.0156C31.4819 17.0149 31.6947 17.0692 31.9491 17.1423C32.0634 17.1753 32.114 17.0086 32.0021 16.9722Z" fill="#099797"/>
<path d="M23.7595 17.4578L23.812 20.8084L20.4106 20.8602" stroke="#EBD561" stroke-width="0.5" stroke-linecap="round"/>
<path d="M23.7595 17.4578L23.812 20.8084L20.4106 20.8602" stroke="#EBD561" stroke-width="0.5" stroke-linecap="round"/>
<path d="M25.8442 26.2489L25.7711 22.6906L29.3448 22.6189" stroke="#EBD561" stroke-width="0.5" stroke-linecap="round"/>
<path d="M31.8126 24.7829L31.8155 24.969C31.8159 24.9937 31.807 25.0175 31.7907 25.0352C31.7745 25.0529 31.7522 25.0631 31.7288 25.0634L31.4642 25.0675L31.4664 25.2071C31.4676 25.2842 31.4094 25.3476 31.3363 25.3487L27.0153 25.4145C26.9422 25.4156 26.882 25.354 26.8808 25.2769L26.8786 25.1373L26.6141 25.1413C26.5907 25.1416 26.5681 25.1322 26.5513 25.115C26.5345 25.0978 26.5248 25.0742 26.5244 25.0495L26.5215 24.8634C26.5212 24.845 26.5261 24.8269 26.5356 24.8115C26.545 24.796 26.5586 24.7839 26.5746 24.7766L29.1159 23.7138C29.1374 23.7041 29.1616 23.7037 29.1834 23.7128L31.7568 24.6977C31.773 24.7045 31.787 24.7162 31.7969 24.7314C31.8068 24.7465 31.8123 24.7645 31.8126 24.7829ZM31.6035 28.3237L26.8415 28.3962C26.6954 28.3984 26.5789 28.5252 26.5814 28.6794L26.5843 28.8655C26.5847 28.8902 26.5943 28.9138 26.6111 28.931C26.628 28.9482 26.6505 28.9576 26.6739 28.9573L31.7886 28.8794C31.812 28.8791 31.8343 28.8689 31.8506 28.8512C31.8668 28.8335 31.8757 28.8097 31.8754 28.785L31.8724 28.5989C31.87 28.4447 31.7496 28.3215 31.6035 28.3237ZM27.415 25.5946L27.4501 27.8283L27.0532 27.8344C26.9802 27.8355 26.9219 27.8989 26.9232 27.976L26.9268 28.2087L31.5124 28.1389L31.5088 27.9062C31.5075 27.8291 31.4473 27.7675 31.3743 27.7686L30.9775 27.7746L30.9424 25.5409L30.2369 25.5516L30.272 27.7854L29.5665 27.7961L29.5315 25.5624L28.826 25.5731L28.861 27.8068L28.1556 27.8176L28.1205 25.5838L27.415 25.5946Z" fill="#099797"/>
<mask id="path-16-inside-1_266_284" fill="white">
<path d="M6.87374 37.5742C8.99237 40.6414 11.7851 43.1404 15.0202 44.8639C18.2554 46.5873 21.8399 47.4857 25.4765 47.4845C29.1131 47.4832 32.697 46.5824 35.9311 44.8567C39.1651 43.131 41.9562 40.6302 44.0729 37.5615L39.4104 34.0981C37.8242 36.3977 35.7326 38.2718 33.309 39.565C30.8855 40.8582 28.1998 41.5332 25.4746 41.5342C22.7494 41.5351 20.0633 40.8619 17.6389 39.5703C15.2145 38.2788 13.1217 36.4061 11.5341 34.1076L6.87374 37.5742Z"/>
</mask>
<path d="M6.87374 37.5742C8.99237 40.6414 11.7851 43.1404 15.0202 44.8639C18.2554 46.5873 21.8399 47.4857 25.4765 47.4845C29.1131 47.4832 32.697 46.5824 35.9311 44.8567C39.1651 43.131 41.9562 40.6302 44.0729 37.5615L39.4104 34.0981C37.8242 36.3977 35.7326 38.2718 33.309 39.565C30.8855 40.8582 28.1998 41.5332 25.4746 41.5342C22.7494 41.5351 20.0633 40.8619 17.6389 39.5703C15.2145 38.2788 13.1217 36.4061 11.5341 34.1076L6.87374 37.5742Z" fill="#099797" stroke="black" stroke-width="2" mask="url(#path-16-inside-1_266_284)"/>
<path d="M66.325 16.3909C66.325 15.1409 66.0907 14.2698 65.6219 13.7776C65.161 13.2776 64.3446 13.0276 63.1727 13.0276H62.2469V20.0003H63.2196C64.3055 20.0003 65.0946 19.7269 65.5868 19.18C66.0789 18.6331 66.325 17.7034 66.325 16.3909ZM62.2469 21.2894V26.2816L64.8602 26.598V27.4534H56.6805V26.598L58.5438 26.2816V12.8987L56.5282 12.5941V11.7386H63.4539C65.6805 11.7386 67.3446 12.1136 68.4461 12.8636C69.5477 13.6058 70.0985 14.7737 70.0985 16.3675C70.0985 19.6487 68.1844 21.2894 64.3563 21.2894H62.2469ZM75.7122 18.723C76.556 17.7855 77.3099 17.1136 77.9739 16.7073C78.6458 16.2933 79.2591 16.0862 79.8138 16.0862H80.4466V20.1058H79.7904L79.0989 18.6292C78.6068 18.6292 78.0482 18.7386 77.4232 18.9573C76.7982 19.1683 76.2474 19.4183 75.7708 19.7073V26.3987L77.5404 26.68V27.4534H70.9544V26.68L72.3841 26.3987V17.4925L70.9544 17.2112V16.4378H75.5833L75.7122 18.723ZM91.1346 21.887C91.1346 23.8636 90.7088 25.3245 89.8572 26.2698C89.0135 27.2151 87.7205 27.6878 85.9783 27.6878C84.2908 27.6878 83.033 27.2112 82.2049 26.2581C81.3768 25.2972 80.9627 23.8401 80.9627 21.887C80.9627 19.9417 81.3807 18.5003 82.2166 17.5628C83.0604 16.6175 84.3455 16.1448 86.0721 16.1448C87.8143 16.1448 89.0916 16.6331 89.9041 17.6097C90.7244 18.5784 91.1346 20.0042 91.1346 21.887ZM87.701 21.887C87.701 20.1683 87.5721 18.9808 87.3143 18.3245C87.0643 17.6605 86.6268 17.3284 86.0018 17.3284C85.4002 17.3284 84.9822 17.6448 84.7479 18.2776C84.5135 18.9105 84.3963 20.1136 84.3963 21.887C84.3963 23.6917 84.5135 24.9144 84.7479 25.555C84.99 26.1956 85.408 26.5159 86.0018 26.5159C86.6189 26.5159 87.0564 26.18 87.3143 25.5081C87.5721 24.8284 87.701 23.6214 87.701 21.887ZM96.7015 27.6878C95.6468 27.6878 94.8304 27.4495 94.2522 26.973C93.6819 26.4964 93.3968 25.8089 93.3968 24.9105V17.6566H91.9554V16.8948L93.6546 16.4378L95.0257 13.9417H96.7835V16.4378H99.1038V17.6566H96.7835V24.6995C96.7835 25.2073 96.889 25.5901 97.0999 25.848C97.3108 26.1058 97.5882 26.2347 97.9319 26.2347C98.346 26.2347 98.8538 26.1722 99.4554 26.0472V27.0433C99.221 27.2073 98.8186 27.3558 98.2483 27.4886C97.6858 27.6214 97.1702 27.6878 96.7015 27.6878ZM110.167 21.887C110.167 23.8636 109.741 25.3245 108.889 26.2698C108.046 27.2151 106.753 27.6878 105.011 27.6878C103.323 27.6878 102.065 27.2112 101.237 26.2581C100.409 25.2972 99.9949 23.8401 99.9949 21.887C99.9949 19.9417 100.413 18.5003 101.249 17.5628C102.093 16.6175 103.378 16.1448 105.104 16.1448C106.846 16.1448 108.124 16.6331 108.936 17.6097C109.757 18.5784 110.167 20.0042 110.167 21.887ZM106.733 21.887C106.733 20.1683 106.604 18.9808 106.346 18.3245C106.096 17.6605 105.659 17.3284 105.034 17.3284C104.432 17.3284 104.014 17.6448 103.78 18.2776C103.546 18.9105 103.428 20.1136 103.428 21.887C103.428 23.6917 103.546 24.9144 103.78 25.555C104.022 26.1956 104.44 26.5159 105.034 26.5159C105.651 26.5159 106.089 26.18 106.346 25.5081C106.604 24.8284 106.733 23.6214 106.733 21.887ZM115.687 17.3987L116.484 16.9886C117.577 16.4261 118.562 16.1448 119.437 16.1448C121.468 16.1448 122.484 17.2269 122.484 19.3909V26.3987L123.585 26.68V27.4534H118.113V26.68L119.097 26.3987V19.848C119.097 19.1917 118.956 18.68 118.675 18.3128C118.402 17.9456 118.007 17.762 117.491 17.762C116.898 17.762 116.304 17.8948 115.71 18.1605V26.3987L116.718 26.68V27.4534H111.245V26.68L112.323 26.3987V17.4925L111.245 17.2112V16.4378H115.523L115.687 17.3987Z" fill="white"/>
<path d="M61.398 33.0534H62.958V38.4774C62.958 39.0214 62.886 39.4894 62.742 39.8814C62.598 40.2734 62.398 40.5974 62.142 40.8534C61.886 41.1094 61.574 41.2974 61.206 41.4174C60.838 41.5374 60.434 41.5974 59.994 41.5974C57.866 41.5974 56.802 40.6254 56.802 38.6814V33.0534H58.446V38.3574C58.446 38.6854 58.474 38.9654 58.53 39.1974C58.594 39.4214 58.69 39.6054 58.818 39.7494C58.946 39.8854 59.106 39.9854 59.298 40.0494C59.49 40.1054 59.714 40.1334 59.97 40.1334C60.474 40.1334 60.838 39.9934 61.062 39.7134C61.286 39.4334 61.398 38.9814 61.398 38.3574V33.0534ZM69.7974 41.4534V38.0454C69.7974 37.5574 69.7254 37.2054 69.5814 36.9894C69.4454 36.7734 69.2094 36.6654 68.8734 36.6654C68.5774 36.6654 68.3254 36.7534 68.1174 36.9294C67.9174 37.0974 67.7734 37.3094 67.6854 37.5654V41.4534H66.1254V35.4534H67.3614L67.5414 36.2454H67.5894C67.7734 35.9894 68.0174 35.7654 68.3214 35.5734C68.6254 35.3814 69.0174 35.2854 69.4974 35.2854C69.7934 35.2854 70.0574 35.3254 70.2894 35.4054C70.5214 35.4854 70.7174 35.6174 70.8774 35.8014C71.0374 35.9854 71.1574 36.2374 71.2374 36.5574C71.3174 36.8694 71.3574 37.2574 71.3574 37.7214V41.4534H69.7974ZM74.5965 35.4534H76.1565V41.4534H74.5965V35.4534ZM74.3685 33.7614C74.3685 33.5294 74.4525 33.3334 74.6205 33.1734C74.7965 33.0054 75.0365 32.9214 75.3405 32.9214C75.6445 32.9214 75.8885 33.0054 76.0725 33.1734C76.2645 33.3334 76.3605 33.5294 76.3605 33.7614C76.3605 33.9934 76.2645 34.1894 76.0725 34.3494C75.8885 34.5014 75.6445 34.5774 75.3405 34.5774C75.0365 34.5774 74.7965 34.5014 74.6205 34.3494C74.4525 34.1894 74.3685 33.9934 74.3685 33.7614ZM81.5632 38.5974L81.7672 39.5214H81.8272L81.9952 38.5734L83.0152 35.4534H84.6952L82.1872 41.5134H81.2392L78.6352 35.4534H80.4472L81.5632 38.5974ZM91.7239 40.9374C91.4839 41.1294 91.1559 41.2934 90.7399 41.4294C90.3319 41.5574 89.8959 41.6214 89.4319 41.6214C88.4639 41.6214 87.7559 41.3414 87.3079 40.7814C86.8599 40.2134 86.6359 39.4374 86.6359 38.4534C86.6359 37.3974 86.8879 36.6054 87.3919 36.0774C87.8959 35.5494 88.6039 35.2854 89.5159 35.2854C89.8199 35.2854 90.1159 35.3254 90.4039 35.4054C90.6919 35.4854 90.9479 35.6174 91.1719 35.8014C91.3959 35.9854 91.5759 36.2334 91.7119 36.5454C91.8479 36.8574 91.9159 37.2454 91.9159 37.7094C91.9159 37.8774 91.9039 38.0574 91.8799 38.2494C91.8639 38.4414 91.8359 38.6414 91.7959 38.8494H88.1959C88.2199 39.3534 88.3479 39.7334 88.5799 39.9894C88.8199 40.2454 89.2039 40.3734 89.7319 40.3734C90.0599 40.3734 90.3519 40.3254 90.6079 40.2294C90.8719 40.1254 91.0719 40.0214 91.2079 39.9174L91.7239 40.9374ZM89.4919 36.5334C89.0839 36.5334 88.7799 36.6574 88.5799 36.9054C88.3879 37.1454 88.2719 37.4694 88.2319 37.8774H90.4639C90.4959 37.4454 90.4279 37.1134 90.2599 36.8814C90.0999 36.6494 89.8439 36.5334 89.4919 36.5334ZM98.1296 36.9174C97.8816 36.8294 97.6576 36.7854 97.4576 36.7854C97.1776 36.7854 96.9416 36.8614 96.7496 37.0134C96.5656 37.1574 96.4416 37.3454 96.3776 37.5774V41.4534H94.8176V35.4534H96.0296L96.2096 36.2454H96.2576C96.3936 35.9494 96.5776 35.7214 96.8096 35.5614C97.0416 35.4014 97.3136 35.3214 97.6256 35.3214C97.8336 35.3214 98.0696 35.3654 98.3336 35.4534L98.1296 36.9174ZM103.309 39.7974C103.309 39.6374 103.241 39.5094 103.105 39.4134C102.969 39.3174 102.801 39.2294 102.601 39.1494C102.401 39.0694 102.181 38.9894 101.941 38.9094C101.701 38.8214 101.481 38.7054 101.281 38.5614C101.081 38.4094 100.913 38.2214 100.777 37.9974C100.641 37.7654 100.573 37.4694 100.573 37.1094C100.573 36.5174 100.749 36.0654 101.101 35.7534C101.453 35.4414 101.961 35.2854 102.625 35.2854C103.081 35.2854 103.493 35.3334 103.861 35.4294C104.229 35.5254 104.517 35.6334 104.725 35.7534L104.377 36.8814C104.193 36.8094 103.961 36.7334 103.681 36.6534C103.401 36.5734 103.117 36.5334 102.829 36.5334C102.365 36.5334 102.133 36.7134 102.133 37.0734C102.133 37.2174 102.201 37.3334 102.337 37.4214C102.473 37.5094 102.641 37.5934 102.841 37.6734C103.041 37.7454 103.261 37.8254 103.501 37.9134C103.741 38.0014 103.961 38.1174 104.161 38.2614C104.361 38.3974 104.529 38.5774 104.665 38.8014C104.801 39.0254 104.869 39.3134 104.869 39.6654C104.869 40.2734 104.673 40.7534 104.281 41.1054C103.897 41.4494 103.317 41.6214 102.541 41.6214C102.117 41.6214 101.717 41.5654 101.341 41.4534C100.973 41.3494 100.673 41.2254 100.441 41.0814L100.873 39.9174C101.057 40.0214 101.301 40.1254 101.605 40.2294C101.909 40.3254 102.221 40.3734 102.541 40.3734C102.773 40.3734 102.957 40.3294 103.093 40.2414C103.237 40.1534 103.309 40.0054 103.309 39.7974ZM107.819 35.4534H109.379V41.4534H107.819V35.4534ZM107.591 33.7614C107.591 33.5294 107.675 33.3334 107.843 33.1734C108.019 33.0054 108.259 32.9214 108.563 32.9214C108.867 32.9214 109.111 33.0054 109.295 33.1734C109.487 33.3334 109.583 33.5294 109.583 33.7614C109.583 33.9934 109.487 34.1894 109.295 34.3494C109.111 34.5014 108.867 34.5774 108.563 34.5774C108.259 34.5774 108.019 34.5014 107.843 34.3494C107.675 34.1894 107.591 33.9934 107.591 33.7614ZM112.086 35.4534H112.914V34.3254L114.474 33.8814V35.4534H115.938V36.7734H114.474V39.0774C114.474 39.4934 114.514 39.7934 114.594 39.9774C114.682 40.1534 114.842 40.2414 115.074 40.2414C115.234 40.2414 115.37 40.2254 115.482 40.1934C115.602 40.1614 115.734 40.1134 115.878 40.0494L116.154 41.2494C115.938 41.3534 115.686 41.4414 115.398 41.5134C115.11 41.5854 114.818 41.6214 114.522 41.6214C113.97 41.6214 113.562 41.4814 113.298 41.2014C113.042 40.9134 112.914 40.4454 112.914 39.7974V36.7734H112.086V35.4534ZM120.596 38.8254L120.812 39.7614H120.884L121.04 38.8134L121.952 35.4534H123.56L121.736 40.8654C121.584 41.3134 121.436 41.7214 121.292 42.0894C121.156 42.4654 121.004 42.7894 120.836 43.0614C120.668 43.3334 120.48 43.5414 120.272 43.6854C120.072 43.8374 119.832 43.9134 119.552 43.9134C119.136 43.9134 118.804 43.8454 118.556 43.7094L118.844 42.4614C118.964 42.5094 119.084 42.5334 119.204 42.5334C119.388 42.5334 119.564 42.4534 119.732 42.2934C119.908 42.1414 120.04 41.8614 120.128 41.4534L117.62 35.4534H119.492L120.596 38.8254Z" fill="#575757"/>
</svg>


