<svg width="22" height="22" viewBox="0 0 22 22" fill="none" xmlns="http://www.w3.org/2000/svg">
<path d="M11 11C11.9518 11 12.8823 10.7178 13.6737 10.1889C14.4651 9.66015 15.0819 8.90854 15.4462 8.02917C15.8104 7.1498 15.9057 6.18216 15.72 5.24863C15.5343 4.3151 15.076 3.45759 14.403 2.78455C13.7299 2.11151 12.8724 1.65316 11.9389 1.46747C11.0053 1.28178 10.0377 1.37709 9.15834 1.74133C8.27897 2.10558 7.52736 2.72241 6.99855 3.51382C6.46975 4.30523 6.1875 5.23568 6.1875 6.1875C6.1875 7.46386 6.69453 8.68793 7.59705 9.59045C8.49957 10.493 9.72365 11 11 11ZM11 12.375C8.01711 12.375 2.0625 14.2175 2.0625 17.875V20.625H19.9375V17.875C19.9375 14.2175 13.9829 12.375 11 12.375Z" fill="#099797"/>
</svg>
