<svg width="48" height="48" viewBox="0 0 48 48" fill="none" xmlns="http://www.w3.org/2000/svg">
<path d="M24 4C12.94 4 4 12.94 4 24C4 35.06 12.94 44 24 44C35.06 44 44 35.06 44 24C44 12.94 35.06 4 24 4ZM32.6 32.6C32.415 32.7854 32.1952 32.9325 31.9532 33.0329C31.7113 33.1332 31.4519 33.1849 31.19 33.1849C30.9281 33.1849 30.6687 33.1332 30.4268 33.0329C30.1848 32.9325 29.965 32.7854 29.78 32.6L24 26.82L18.22 32.6C17.846 32.974 17.3389 33.184 16.81 33.184C16.2811 33.184 15.774 32.974 15.4 32.6C15.026 32.226 14.816 31.7189 14.816 31.19C14.816 30.9281 14.8675 30.6688 14.9677 30.4269C15.068 30.185 15.2148 29.9652 15.4 29.78L21.18 24L15.4 18.22C15.026 17.846 14.816 17.3389 14.816 16.81C14.816 16.2811 15.026 15.774 15.4 15.4C15.774 15.026 16.2811 14.816 16.81 14.816C17.3389 14.816 17.846 15.026 18.22 15.4L24 21.18L29.78 15.4C29.9652 15.2148 30.185 15.068 30.4269 14.9677C30.6688 14.8675 30.9281 14.816 31.19 14.816C31.4519 14.816 31.7112 14.8675 31.9531 14.9677C32.195 15.068 32.4148 15.2148 32.6 15.4C32.7852 15.5852 32.932 15.805 33.0323 16.0469C33.1325 16.2888 33.184 16.5481 33.184 16.81C33.184 17.0719 33.1325 17.3312 33.0323 17.5731C32.932 17.815 32.7852 18.0348 32.6 18.22L26.82 24L32.6 29.78C33.36 30.54 33.36 31.82 32.6 32.6Z" fill="#EF4F4F"/>
</svg>
